<?xml version="1.0" encoding="utf-8"?>
<!-- Generator: Adobe Illustrator 28.0.0, SVG Export Plug-In . SVG Version: 6.00 Build 0)  -->
<svg version="1.1" id="Layer_1" xmlns="http://www.w3.org/2000/svg" xmlns:xlink="http://www.w3.org/1999/xlink" x="0px" y="0px"
	 viewBox="0 0 595.28 841.89" style="enable-background:new 0 0 595.28 841.89;" xml:space="preserve">
<style type="text/css">
	.st0{fill:#1D1D1B;}
</style>
<g>
	<g>
		<path class="st0" d="M549.28,834.77H45.72v-35.82H9.9V42.05h35.82V6.23h503.56v35.82l35.82,0v756.89h-35.82V834.77z M47.19,833.3
			h500.62v-34.36c-11.56-0.21-17.77-5.27-19.73-10.01c-1.43-3.46-0.81-7.02,1.68-9.5c1.59-1.59,3.61-2.43,5.85-2.43
			c6.51,0,13.42,7.17,13.67,20.48h34.36V43.52h-34.36c-0.25,13.31-7.16,20.48-13.67,20.48c-2.23,0-4.26-0.84-5.85-2.43
			c-2.49-2.49-3.11-6.04-1.68-9.5c1.96-4.74,8.17-9.81,19.73-10.01V7.7H47.19v34.36c11.56,0.21,17.77,5.27,19.73,10.01
			c1.43,3.47,0.81,7.02-1.68,9.5c-1.59,1.59-3.61,2.43-5.85,2.43c-3.41,0-6.8-1.97-9.3-5.4c-1.93-2.65-4.22-7.39-4.36-15.09
			l-34.36,0v753.95h34.36c0.25-13.31,7.16-20.48,13.67-20.48c2.23,0,4.26,0.84,5.85,2.43c2.49,2.49,3.11,6.04,1.68,9.5
			c-1.96,4.74-8.17,9.8-19.73,10.01V833.3z M535.61,778.46c-1.84,0-3.5,0.69-4.81,2c-2.05,2.05-2.56,5-1.36,7.9
			c1.78,4.31,7.54,8.9,18.36,9.1C547.57,785.12,541.41,778.46,535.61,778.46z M59.39,778.46c-5.8,0-11.96,6.66-12.2,19.01
			c10.83-0.2,16.58-4.8,18.36-9.1c1.2-2.9,0.69-5.85-1.36-7.9C62.89,779.16,61.23,778.46,59.39,778.46z M547.8,43.53
			c-10.83,0.2-16.58,4.8-18.36,9.1c-1.2,2.9-0.69,5.85,1.36,7.9c1.31,1.31,2.97,2,4.81,2C541.41,62.54,547.57,55.88,547.8,43.53z
			 M47.2,43.53c0.14,7.29,2.28,11.74,4.08,14.21c2.23,3.05,5.18,4.79,8.12,4.79c1.84,0,3.5-0.69,4.81-2c2.05-2.05,2.56-5,1.36-7.9
			C63.78,48.33,58.02,43.73,47.2,43.53z"/>
	</g>
	<g>
		<path class="st0" d="M571.13,820.79H23.87V20.2h547.26V820.79z M26.81,817.85h541.38V23.15H26.81V817.85z"/>
	</g>
</g>
</svg>
