<?xml version="1.0" encoding="utf-8"?>
<!-- Generator: Adobe Illustrator 26.0.1, SVG Export Plug-In . SVG Version: 6.00 Build 0)  -->
<svg version="1.1" xmlns="http://www.w3.org/2000/svg" xmlns:xlink="http://www.w3.org/1999/xlink" x="0px" y="0px"
	 viewBox="0 0 1200 587" style="enable-background:new 0 0 1200 587;" preserveAspectRatio="none" xml:space="preserve">
<g id="Layer_2">
	<path d="M1,0v587h1199V0H1z M1184.3,10.8c0.7-0.5,1.9-0.5,2.6,0c0.7,0.5,0.7,1.3,0,1.8c-0.7,0.5-1.9,0.5-2.6,0
		C1183.6,12.1,1183.6,11.3,1184.3,10.8z M1169.4,8.7c3.9,1.2,5.9,4.2,5.5,6.4c2.4-1.1,5-1.7,8-1.6c0.1,2.1-0.7,3.8-2.3,5.5
		c3.2-0.2,7.5,1.1,9.3,3.8c-5.8-1.5-14,4.6-20.6,0.1C1162.7,18.3,1171.6,12.7,1169.4,8.7z M1165.2,23.9c0.7-0.5,1.9-0.5,2.6,0
		c0.7,0.5,0.7,1.3,0,1.8c-0.7,0.5-1.9,0.5-2.6,0C1164.4,25.2,1164.4,24.4,1165.2,23.9z M1161.7,8c4.9,0.6-2.4,7.6,1.6,14.1
		C1156.5,17.6,1156.8,7.5,1161.7,8z M615.5,11.4c0,0,4.3-1.9,5.8-2.5c4.6,1.2,16.3,1.8,37.6,1.8c5.4,0,9.8,0,12.4,0
		c1.6,0,2.4,0,2.4,0h480.1c-0.6,12.8,14.7,23.3,33.4,22.8v211.6h0c0,1.8,0,4.8,0,8.5c0,14.6,0.9,22.6,2.6,25.7c-0.9,1-3.7,4-3.7,4h0
		c0,0-2.8-3-3.7-4c1.7-3.2,2.6-11.1,2.6-25.7c0-5.9,0-10.1,0-10.1h0V35c-18.2-0.4-32.8-10.4-33.4-22.9H673.6v0c0,0-6.1,0-14.8,0
		c-21.3,0-32.9,0.6-37.6,1.8C619.8,13.4,615.5,11.4,615.5,11.4L615.5,11.4z M1186,298.6c-0.5,0-0.4-2.5-1.9-3.6
		c-1.6-1.2-2.9-1.2-2.9-1.6c0-0.4,1.3-0.4,2.9-1.6c1.5-1.1,1.4-3.6,1.9-3.6c0.5,0,0.4,2.5,1.9,3.6c1.6,1.2,2.9,1.2,2.9,1.6
		c0,0.4-1.3,0.4-2.9,1.6C1186.4,296.2,1186.5,298.6,1186,298.6z M1187.9,301.2c0,0.7-0.8,1.3-1.9,1.3c-1,0-1.9-0.6-1.9-1.3
		c0-0.7,0.8-1.3,1.9-1.3C1187,299.9,1187.9,300.5,1187.9,301.2z M1184.1,285.8c0-0.7,0.8-1.3,1.9-1.3c1,0,1.9,0.6,1.9,1.3
		c0,0.7-0.8,1.3-1.9,1.3C1184.9,287.1,1184.1,286.5,1184.1,285.8z M39.3,8c4.9-0.5,5.2,9.6-1.6,14.1C41.8,15.7,34.4,8.6,39.3,8z
		 M35.8,23.9c0.7,0.5,0.7,1.3,0,1.8c-0.7,0.5-1.9,0.5-2.6,0c-0.7-0.5-0.7-1.3,0-1.8C33.9,23.4,35.1,23.4,35.8,23.9z M14,10.8
		c0.7-0.5,1.9-0.5,2.6,0c0.7,0.5,0.7,1.3,0,1.8c-0.7,0.5-1.9,0.5-2.6,0C13.3,12.1,13.3,11.3,14,10.8z M20.3,19
		c-1.6-1.7-2.4-3.4-2.3-5.5c3-0.1,5.5,0.5,8,1.6c-0.4-2.2,1.6-5.1,5.5-6.4c-2.1,4,6.8,9.6,0.1,14.1c-6.6,4.5-14.8-1.6-20.6-0.1
		C12.9,20.1,17.2,18.7,20.3,19z M10,28.1c0.8-3.4,11.2,1.7,20.6-1.1C24.1,31.6,9.2,31.4,10,28.1z M15,288.4c0.5,0,0.4,2.5,1.9,3.6
		c1.6,1.2,2.9,1.2,2.9,1.6c0,0.4-1.3,0.4-2.9,1.6c-1.5,1.1-1.4,3.6-1.9,3.6c-0.5,0-0.4-2.5-1.9-3.6c-1.6-1.2-2.9-1.2-2.9-1.6
		c0-0.4,1.3-0.4,2.9-1.6C14.6,290.8,14.5,288.4,15,288.4z M13.1,285.8c0-0.7,0.8-1.3,1.9-1.3c1,0,1.9,0.6,1.9,1.3
		c0,0.7-0.8,1.3-1.9,1.3C14,287.1,13.1,286.5,13.1,285.8z M16.9,301.2c0,0.7-0.8,1.3-1.9,1.3s-1.9-0.6-1.9-1.3
		c0-0.7,0.8-1.3,1.9-1.3C16.1,299.9,16.9,300.5,16.9,301.2z M10,558.9c-0.8-3.3,14.1-3.5,20.6,1.1C21.2,557.3,10.8,562.3,10,558.9z
		 M16.7,576.2c-0.7,0.5-1.9,0.5-2.6,0c-0.7-0.5-0.7-1.3,0-1.8c0.7-0.5,1.9-0.5,2.6,0C17.4,574.9,17.4,575.7,16.7,576.2z M31.6,578.3
		c-3.9-1.2-5.9-4.2-5.5-6.4c-2.4,1.1-5,1.7-8,1.6c-0.1-2.1,0.7-3.8,2.3-5.5c-3.2,0.2-7.5-1.1-9.3-3.8c5.8,1.5,14-4.6,20.6-0.1
		C38.3,568.7,29.4,574.3,31.6,578.3z M35.8,563.1c-0.7,0.5-1.9,0.5-2.6,0c-0.7-0.5-0.7-1.3,0-1.8c0.7-0.5,1.9-0.5,2.6,0
		C36.6,561.8,36.6,562.6,35.8,563.1z M39.3,579c-4.9-0.6,2.4-7.6-1.6-14.1C44.5,569.4,44.2,579.5,39.3,579z M585.5,575.6
		c0,0-4.3,1.9-5.8,2.5c-4.6-1.2-16.3-1.8-37.6-1.8c-5.4,0-9.8,0-12.4,0c-1.6,0-2.4,0-2.4,0H47.3c0.6-12.8-14.7-23.3-33.4-22.8V341.9
		h0c0-1.8,0-4.8,0-8.5c0-14.6-0.9-22.6-2.6-25.7c0.9-1,3.7-4,3.7-4h0c0,0,2.8,3,3.7,4c-1.7,3.2-2.6,11.1-2.6,25.7
		c0,5.9,0,10.1,0,10.1h0V552c18.2,0.4,32.8,10.4,33.4,22.9h477.9v0c0,0,6.1,0,14.8,0c21.3,0,32.9-0.6,37.6-1.8
		C581.2,573.6,585.5,575.6,585.5,575.6L585.5,575.6z M585.5,11.4c0,0-4.3,1.9-5.8,2.5c-4.6-1.2-16.3-1.8-37.6-1.8
		c-8.7,0-14.8,0-14.8,0v0H49.5C48.9,24.6,34.3,34.6,16.1,35v208.4h0c0,0,0,4.2,0,10.1c0,14.6,0.9,22.6,2.6,25.7c-0.9,1-3.7,4-3.7,4
		h0c0,0-2.8-3-3.7-4c1.7-3.2,2.6-11.1,2.6-25.7c0-3.7,0-6.7,0-8.5h0V33.5c18.7,0.4,34-10.1,33.4-22.8h480.1c0,0,0.9,0,2.4,0
		c2.6,0,7,0,12.4,0c21.3,0,32.9-0.6,37.6-1.8C581.2,9.5,585.5,11.4,585.5,11.4L585.5,11.4z M589.3,576.8c-1,0-1.9-0.6-1.9-1.3
		c0-0.7,0.8-1.3,1.9-1.3c1,0,1.9,0.6,1.9,1.3C591.1,576.3,590.3,576.8,589.3,576.8z M589.3,12.7c-1,0-1.9-0.6-1.9-1.3
		c0-0.7,0.8-1.3,1.9-1.3c1,0,1.9,0.6,1.9,1.3C591.1,12.1,590.3,12.7,589.3,12.7z M602.8,576.9c-1.7,1.1-1.7,2-2.3,2
		c-0.5,0-0.6-0.9-2.3-2c-1.6-1-5.2-1-5.2-1.3c0-0.4,3.6-0.3,5.2-1.3c1.7-1.1,1.7-2,2.3-2c0.5,0,0.6,0.9,2.3,2c1.6,1,5.2,1,5.2,1.3
		C608,575.9,604.4,575.9,602.8,576.9z M602.8,12.8c-1.7,1.1-1.7,2-2.3,2c-0.5,0-0.6-0.9-2.3-2c-1.6-1-5.2-1-5.2-1.3
		c0-0.4,3.6-0.3,5.2-1.3c1.7-1.1,1.7-2,2.3-2c0.5,0,0.6,0.9,2.3,2c1.6,1,5.2,1,5.2,1.3C608,11.8,604.4,11.7,602.8,12.8z
		 M611.7,576.8c-1,0-1.9-0.6-1.9-1.3s0.8-1.3,1.9-1.3c1,0,1.9,0.6,1.9,1.3C613.6,576.3,612.8,576.8,611.7,576.8z M611.7,12.7
		c-1,0-1.9-0.6-1.9-1.3c0-0.7,0.8-1.3,1.9-1.3c1,0,1.9,0.6,1.9,1.3C613.6,12.1,612.8,12.7,611.7,12.7z M673.6,576.3c0,0-0.9,0-2.4,0
		c-2.6,0-7,0-12.4,0c-21.3,0-32.9,0.6-37.6,1.8c-1.4-0.6-5.8-2.5-5.8-2.5v0c0,0,4.3-1.9,5.8-2.5c4.6,1.2,16.3,1.8,37.6,1.8
		c8.7,0,14.8,0,14.8,0v0h477.9c0.6-12.5,15.2-22.5,33.4-22.9V343.6h0c0,0,0-4.2,0-10.1c0-14.6-0.9-22.6-2.6-25.7c0.9-1,3.7-4,3.7-4
		h0c0,0,2.8,3,3.7,4c-1.7,3.2-2.6,11.1-2.6,25.7c0,3.7,0,6.7,0,8.5h0v211.6c-18.7-0.4-34,10.1-33.4,22.8H673.6z M1161.7,579
		c-4.9,0.5-5.2-9.6,1.6-14.1C1159.2,571.3,1166.6,578.4,1161.7,579z M1165.2,563.1c-0.7-0.5-0.7-1.3,0-1.8c0.7-0.5,1.9-0.5,2.6,0
		c0.7,0.5,0.7,1.3,0,1.8C1167.1,563.6,1165.9,563.6,1165.2,563.1z M1187,576.2c-0.7,0.5-1.9,0.5-2.6,0c-0.7-0.5-0.7-1.3,0-1.8
		c0.7-0.5,1.9-0.5,2.6,0C1187.7,574.9,1187.7,575.7,1187,576.2z M1180.7,568c1.6,1.7,2.4,3.4,2.3,5.5c-3,0.1-5.5-0.5-8-1.6
		c0.4,2.2-1.6,5.1-5.5,6.4c2.1-4-6.8-9.6-0.1-14.1c6.6-4.5,14.8,1.6,20.6,0.1C1188.1,566.9,1183.8,568.3,1180.7,568z M1191,558.9
		c-0.8,3.4-11.2-1.7-20.6,1.1C1176.9,555.4,1191.8,555.6,1191,558.9z M1170.4,27c9.4,2.7,19.8-2.3,20.6,1.1
		C1191.8,31.4,1176.9,31.6,1170.4,27z"/>
</g>
<g id="Isolation_Mode">
</g>
</svg>
