<?xml version="1.0" encoding="utf-8"?>
<!-- Generator: Adobe Illustrator 28.0.0, SVG Export Plug-In . SVG Version: 6.00 Build 0)  -->
<svg version="1.1" id="Layer_1" xmlns="http://www.w3.org/2000/svg" xmlns:xlink="http://www.w3.org/1999/xlink" x="0px" y="0px"
	 viewBox="0 0 241.39 302.11" style="enable-background:new 0 0 241.39 302.11;" xml:space="preserve">
<style type="text/css">
	.st0{fill:#FFFFFF;}
</style>
<g>
	<path class="st0" d="M155.27,129.4L155.27,129.4l-69.44-0.01c-9.46,0-17.16,7.7-17.16,17.16v65.95c3.7,1,7.52,1.69,11.44,2.05
		v-67.99c0-3.15,2.57-5.72,5.72-5.72h69.2c41.31,0,74.91,33.61,74.91,74.92s-33.61,74.91-74.91,74.91
		c-32.81,0-60.75-21.22-70.86-50.64l-4.92-0.27c-2.5-0.19-4.97-0.5-7.41-0.89c10.13,36.43,43.57,63.25,83.19,63.25
		c47.62,0,86.36-38.74,86.36-86.36C241.39,168.21,202.78,129.53,155.27,129.4z"/>
	<path class="st0" d="M86.11,233.15h69.44c9.46,0,17.16-7.7,17.16-17.16v-65.95c-3.7-1-7.52-1.69-11.44-2.05v67.99
		c0,3.15-2.57,5.72-5.72,5.72h-69.2c-41.31,0-74.91-33.61-74.91-74.91s33.61-74.91,74.91-74.91c32.81,0,60.75,21.22,70.86,50.64
		l4.92,0.27c2.5,0.19,4.97,0.5,7.41,0.89c-9.37-33.67-38.66-59.12-74.32-62.78l26-34.44l0.31-0.47c1.77-3.06,1.44-5.69,0.85-7.36
		c-0.7-1.97-2.53-4.72-7.31-6.61L93.28,1.59c-4.42-2.12-9.49-2.12-13.9,0L57.52,12.06c-3.76,1.6-6.25,3.96-7.23,6.85
		c-0.55,1.63-0.86,4.19,0.82,7.1l26.31,34.9C33.99,65.38,0,102.19,0,146.8C0,194.33,38.61,233.02,86.11,233.15L86.11,233.15z
		 M61.17,20.46L83.33,9.84c1.9-0.91,4.09-0.91,5.99,0l21.95,10.52l0.32,0.14c0.98,0.38,1.58,0.75,1.9,1.01L88.65,54.43v-26.6
		c0-1.26-1.02-2.29-2.29-2.29s-2.29,1.02-2.29,2.29v26.73L59.22,21.6C59.54,21.31,60.16,20.88,61.17,20.46z"/>
	<path class="st0" d="M109.48,199.81l28.13-16.24c1.77-1.02,1.77-3.58,0-4.6l-28.13-16.24c-1.77-1.02-3.98,0.26-3.98,2.3v32.49
		C105.5,199.56,107.71,200.84,109.48,199.81z"/>
</g>
</svg>
