<?xml version="1.0" encoding="utf-8"?>
<!-- Generator: Adobe Illustrator 26.0.1, SVG Export Plug-In . SVG Version: 6.00 Build 0)  -->
<svg version="1.1" xmlns="http://www.w3.org/2000/svg" xmlns:xlink="http://www.w3.org/1999/xlink" x="0px" y="0px"
	 viewBox="0 0 1046.5 272.5" xml:space="preserve">
<g id="Layer_1">
</g>
<g id="Isolation_Mode">
	<g>
		<g>
			<g>
				<g>
					<g>
						<path d="M114.6,132.2c0.9,2.3,2.2,4.9,5.5,6.3c1.4,1.1-2.7-0.6,1,1.5c3.8,0.6-2.2-1.3-5.2-6.7c-0.1-0.3-0.1-0.3-0.1-0.4
							C115.7,133.4,115.4,133.4,114.6,132.2z"/>
					</g>
				</g>
				<g>
					<g>
						<path d="M115.8,132.9l0-0.3C115.8,132.5,115.8,132.7,115.8,132.9z"/>
					</g>
				</g>
				<g>
					<g>
						<path d="M93.5,97.9c-0.4,0.3-0.9,0.7-1.8,1.7C92.5,98.9,93,98.4,93.5,97.9z"/>
					</g>
				</g>
				<g>
					<g>
						<path d="M192.3,265.4l-0.8-0.1C191.6,265.4,191.9,265.4,192.3,265.4z"/>
					</g>
				</g>
				<g>
					<g>
						<path d="M113,128.5c0.5,2,1.1,3,1.7,3.7C114.1,131,113.7,129.9,113,128.5z"/>
					</g>
				</g>
				<g>
					<g>
						<path d="M272.1,262.9l-0.9,0.1C271.2,263.3,271.6,263.1,272.1,262.9z"/>
					</g>
				</g>
				<g>
					<g>
						<path d="M198.7,265.2c0.3,0,0.6,0.1,0.8,0.1C201.5,265.2,200.6,265.2,198.7,265.2z"/>
					</g>
				</g>
				<g>
					<g>
						<path d="M233.3,265.3c0.7-0.1,1.3-0.1,1.8-0.2C234.3,265.1,233.7,265.2,233.3,265.3z"/>
					</g>
				</g>
				<g>
					<g>
						<path d="M274.6,262l0.5,0L274.6,262z"/>
					</g>
				</g>
				<g>
					<g>
						<path d="M110.3,56.5c0.2,0,0.2-0.1,0.4-0.1c-1,0-1.8,0-3,0L110.3,56.5z"/>
					</g>
				</g>
				<g>
					<g>
						<path d="M855.6,153.8c-12.7-2.1-29.4-3.9-41-5.6c-49.5-6-99.8-4.7-149.9,1.6c2.7,0-0.1,0.8-2.6,1.3l-0.7-0.2l-3.8,1.1
							c-3.7,0.5-2.3-0.5,0.9-1c-19.9,2.2-38.2,5.6-57.2,10.5c-1,1.3-9.9,2.8-10.3,4c-0.9,0.1-0.1-0.2,0.4-0.6
							c-12.9,4.4-13.8,4.7-26,7.5c-50.5,16.5-96,38.6-146,50.6c-50.4,13.5-100.2,26.2-153.2,31.9c-8,2.4-19.2,2.5-28.8,4.3l0.6-0.5
							c-8.2,1-10.4,0.3-20.8-0.2c-0.1,0.6-4,0.1-2.5,1.1c-3.6,0.8-6.5-1.4-11.7-1.1c-0.2-0.3,0.1,0.5-1,0.2
							c-13.5,0.5,2.5-0.3-14.4-2.2c-23.6-1.3-48-4.5-69.7-11.4c1.4,0.4,1.8,1.2-0.4,0.6c-1.7-2-7.5-1.8-11.1-3.7
							c0.4-0.2,2.2,0.3,3.3,0.5c-9.6-3.8-18-6-26.5-10.7c-8.7-3.3-17.2-9.8-22.6-12.7c1.5,0.3-3.1-2.7-4.5-4.1
							c-6.5-2.6-13.2-11.7-19.1-17.3l0.4,0c-15.9-18.4-23.8-45.9-21.8-71.1c1.4-14.3,9.3-28.7,19.3-40.3c1.8-2.2-0.1-0.9,1.4-2.7
							c2.9-2.7,0.3,0.4,1.6-0.5c5-6,13.9-11.3,22.5-15.5c0.9-0.7,3.3-2,2.3-2c10.2-3.6,24.3-8.8,35.6-8.7c-4-1.2,6.5-1.4,10.4-1.5
							c2.2,0.2,2.4,0.6,1.7,0.8c8.2,0.2,12.9,0.7,22.2,3.6c4.3,1.2,5.9,0.7,10.8,3.1c2.7,2.3,10.1,5.2,13.9,9
							c-0.5-1.6,5.4,2.1,8.5,6.6l-2-0.4c12.7,11.5,17.4,37.8,13,57l-1.2,1.1c-5.4,19.8-25.4,31.7-44.9,32.9
							c-5.4-0.2-13.6-2.1-18.3-4.2c-6.7-2.3-8.6-4.1-13-6.5c-2.1-1.8-2.6-3.5-3.1-4.5c-5.4-7.1-7.4-15.9-8.9-22.6l0.6-0.3
							c-1.4-6.7,0.9-17.8,6.9-23.2c0.6-2.4,7.2-7.2,3.8-5.6c2.7-1.9,2.2-0.4,4.8-2.4c-0.8,0.8-1.6,1.3-2.2,2.2
							c7.6-4.5,16.4-4.6,24.3-2.4c7.8,2.1,14.6,8,15.5,16.7c-0.3,2.5-0.5,6.5-2.6,10.5c-2.1,3.8-6.7,7.2-11.1,6.6
							c-0.4-0.1-3-0.1-4.9-1.6c-1.9-1.4-3-3.9-3.2-4.5c-1.4-4.3-2.7-1.8-3.7-1.5c0.8,4.5-1.8-0.5,0.8,5.3c-0.7-0.5-0.7,0.6-0.7,1.4
							c0.3,0.2,2.4,3.2,4.7,4.5c2.4,1.3,4,1.5,1.6,0c9.9,4.9,21.6-3.9,23.1-13.5c-0.8,3.1-0.5,4.3,0.8,1.7c0.8-4.7,0.8-13-3.7-20.1
							c-0.6,0.6,0.7,2.8-0.4,2.4c-0.6-1-1.9-2.3-3.1-3.7c-0.3-1.2,1.4-2.4-4.8-6.5c2.9-0.7,9.3,8.5,7.8,5.1c1.5,0.9,4.4,4.6,5.5,9
							c1.3,4.3,0.8,8.8,0.2,10.4c-0.1,7.2,1-5.5,1.5-4.2c-0.7-6.4-1.4-10.1-8.1-17.5c-0.5,0.3,1.7,2.7-1.7-0.2
							c-7.1-4.2-8.5-6-10.4-6.9c1.2,0.2,2.8,0.8,3.9,1.3c-5-2.5-7-2.4-12.6-3.1c-1.3-1.9,9,1.2,11.2,1.6c-1.2-0.8-2.5-1.6-3.8-2.4
							c-8.9-2-2.6,0.4-11.8-0.8l1.2-0.5c-2,0.2-4,0.2-5.9,0.6c0,0.5,1.3,1.1,6.2,1c-3.2,1.6-4.6-0.3-12.1,2.1
							c-2.1,1.6,3.1-1.2,3.5-0.2c0.9,0.5-4.2,1.5-7.5,3.5c-5.4,2.9-3.2,0.9-5.6,1.8c0.8-0.9,5.1-3.5,4.9-2.7c6.9-4.2-3.9,0,0.9-2.9
							c-6.2,2.4-5.1,3.5-7.9,5.7c1.6-1.3,0,1,1.2,0.3c-5.9,8.7-6.3,3.3-11.3,12.4c1.5-1.4-2.6,12.9,1,6.7c-0.4,2.2-0.7,5-1.1,7.2
							c-0.6-2.6-1.3,4.1-1.6-0.5c-0.2,1.1-0.3,2.3-0.3,3.5c-0.4-1.8-0.4-3.6-0.5-5.4c-1.6,3.7-1.9,10.6-2.1,12.9
							c1.4,5.2,0.6-1.7,2,4.2c-1-2-0.5,1.8,0.3,4.3c-1.1-5.2,1.1-0.4,2.6,2.5c1.8,4.8,3.4,8.7,2.8,8.2c-1.1-1.3-2.1-2.7-3.2-4.1
							c2.5,3.2,0.4,1.8,2.7,5.1c1.1,0.7,3.1,2.3,4.4,2.8c2.2,2.4,3.4,4.6,4.3,5.3c-1.4-1.1-2.8-2.2-4-3.5c4.9,5-0.2,2.3,5.5,7l2,0.6
							c1,1,1.4,1.7,0.2,1.1c1.2,0.2,4.6,2.7,6.3,3.2l0.2,0.7c2.8,1.2,6.7,1.6,9.9,3.5c-2.4-2-3.5-1-8-3.6c-2.5-2.1,4.9,1.4,6,1.5
							c-0.7,1.2,7.2,2.4,10.7,2.6c2,0.8,3.8,1,5,1.3l1.4-0.8c1.3,1.6,7-0.5,10.9-0.8c-1.9,0.9-1.6,1.4,1.3,1.2
							c-3.9-0.4,5.8-2.7,4.4-3.4c6.9-1.6-1.1,2,1.1,2.2c3.2-1.8,7.9-2.2,9.5-4.3c-4.9,1.8,0.5-1,1.1-2c5.7-3-0.7,1,3.5-0.9
							c2.2-1.7,4.6-4.4,0.9-2.3c3.3-1.8,5.8-5.4,9.2-7.9c1.9-0.6-5.5,5.7-3.3,4.4c6.5-6.2,2.1-4.3,6.9-10.8
							c-2.4,2.5-1.3-0.9,0.2-4.3c4.6-7.3-1.5,3.5,1,1.1l1.6-3.1c3.7-3.7-3.6,10.2-0.3,6.7c0.7-1.2,1.2-2.4,1.7-3.7
							c-0.1,0.9-0.2,2.4,0.9,1.2c0-1.2,4.1-8.6,3.9-9.5c-0.4-1.1-0.9,3.2-1.2,2.3c1.3-4.1,0.8-6.2,2.5-12.4c0,3.6,1.3-1.2,1.5,0.4
							c0.8-3.1-0.6-1.1,0.3-5.6l0.4,0.6c2.2-16.6-3.5-38.6-14.3-48.8c-1-2.5-4.2-7-10.4-12.7c2.7,2.6-0.4,0.7-2.1-0.5
							c-0.9-1-1.8-2.1-2.7-3.1c-3.8-3.2-9.9-5.4-14.2-6.6c-0.7-0.5-0.8-0.8-0.9-1.1c-3.8-2.1-4.4-1-6-1.3c-0.8-0.5-1.7-1-2.5-1.4
							l-0.8,0.4c-4.2-0.8-9.7-1.9-9-2.8c-1.7-0.1-3.3-0.2-1.3,0.5c-4.1-1.4-15.8-2.3-23.4-1.3c3.6,0.1,3.3,0.4,3.6,1
							c-1,1.1-1.7-0.2-4.7,0.7c-0.1-0.4-3.5-0.5,0.1-1.1c-10.3-0.8-24.2,3.1-36,7.8c-2.3,1.2-1.5,1-2.6,1.8
							c-7.8,2.2-15.9,8.2-23,13.4c1.8-0.8,0.4,1.7-3.1,5c-3.2,4.3-2.4,0.5-6.1,3.6c-1.4,2-4.2,5.5-5.3,7l0-0.2
							c-1.4,2.6-3.8,6.5-5.8,9.4l0.2-0.5c-1.5,2.4-3.5,5.1-4.6,7.9c0.1,1.5-2.8,8.2-2.5,10.1c-0.2,0.3-0.1-0.2-0.5,0.5l0.6,0.4
							c-0.7,1.8-1.2,3.7-1.7,5.6c0-1.3-0.2-1.7-0.1-3.3c-1.8,6.1,0.1,2.2-0.1,5.5C8.6,126.3,8,126,7.5,128c-0.2-1.8,0.5-3.2,0.5-4.3
							c-0.2-2.6-0.7,2.6-1,2.6c-0.1,0.9,0.7,1.4,0.3,4.6c-0.3,2.8,0,9.3-0.7,8.5c0.4,2.4,0.7,5.2,1.1,6.9c0-2.3-0.1-6.4,0.4-6.9
							c0.1,2,0.7,6,0.4,6.7l-0.3-1.6c0.2,1.6,0.8,7.5,1.1,4.4c-0.1,1.4-0.3,2.9-0.4,4.3c0.9,1.5,1.5,5.6,2.5,8.9
							c-0.7,0.4-2.3-2.2-0.8,4.2c0.8,1.7,1.5,3.5,2.4,5.1c1,2.8,1.1,3.6,0.6,3.3c3.5,9.7,6.1,8.6,9.3,15.8c-2.5-2.4-1.2,0,0.5,3.2
							c0.2,0,0.7,0.1,1.5,1.3c-0.2-1.1-1.8-1.4-2.6-4.1c0.1-1,2,2.6,3.1,3.8c2.1,7.2,14.3,18.7,22.8,26.2c0.1-1.3,4.2,2.9,6.4,3.8
							c-1.3,0.6,5.4,3.5,7.7,5.6l-0.8-1.9c5.5,4.2,10.5,4.1,13.6,7.3c3.3,2-1.6,0.2-3.1-0.4c4.2,3.7,13.3,5.3,16.7,8.2
							c0.6-0.3-0.6-1.6,3.9-0.2c3.3,1.8,10,4.9,9.3,4.8c3,0.7,3.9,0.7,6.9,2.1c-0.4,0.2-1.8-0.2-2.8-0.4c5,1.9,9.2,2.7,13.9,3.5
							c2.5,1.6,11.7,3.5,17.6,5.2c3.6-0.4,9.6,2.4,10.3,1.1c-0.2,0.1,0.6,0.4,0.9,0.6c2.3,0,4.3-0.5,7.1-0.2l-1.1,0.8
							c-0.8,1.1,8.1,1.4,8.8,2.1c-2.4-1.1,3.3,0.4,3.5-0.3l3.4,0.1c5.4,0.4,0.7-0.4,7.3,0.2c3.8,0.3,1.2,1.2-0.1,0.9
							c3.2,0.8,6.4,0.8,9.8,0.8c-1.2-0.1-1.7-0.2-0.6-0.3c0.1,0.1,0.5,0.2,0.9,0.3c1.2,0,2.4,0,3.5,0.2c1.6,0,3.4,0,4.9,0
							c0.9,0,1.7-0.1,2.3,0c1.9,0,2.8,0,0.8,0.1c-0.2-0.1-0.5-0.1-0.8-0.1c-0.7,0-1.4,0-2.3,0c-1.5,0.1-3.1,0.2-4.1,0.3
							c1.1,0.1,2.2,0.2,2.9,0.3l-1,0.7c2.3,0.2,8.8-0.4,8.6-0.7c9.2,1,24.3,0.3,30.4-0.4c0.4-0.1,1-0.2,1.8-0.2
							c-0.4,0.1-1.1,0.1-1.8,0.2c-1.2,0.2-1.3,0.4-0.2,0.2c3.2-0.2,6.7-1,7-0.6c3-0.5,2.9,0.3,7.6,0.2c0.1,0.1,0.7-0.8-0.7-0.6
							c8,0.6,18-2,27.6-2.4l0.5,0l-0.5,0c-0.8,0.1-1.8,0.7-2.5,1c7.2-1.1,14.1-2.3,20.4-4.1c-0.6,0.4-0.4,0.7-2.1,1.1
							c5-0.7,10.8-1.8,13-2.8c-3.5,0.2-0.2,0.4-2.5,0.7c-3.7-0.1,2.7-1.7,6-2.1l0.1,0.1c5-0.8,5.2-1.2,10.1-2.1
							c3.1-0.1-2.6,0.7-1.3,0.9c1.4,1,11.5-1.3,12.5-1.4c1.1-0.5,2.8-1,2.5-1.2c3.8-1.1,1.9,0.3,4.6-0.3l10.8-4.5
							c-2.5,0.7,3.6,0.3-0.1,1.5c8-1.8,12.3-4.2,17.1-6c2.4-0.3,10.1-2.6,12.7-3.3c1.4,0.3-2.3,0.5-2.8,1.1l4.2-0.3
							c-5.3,1.3,0.9,0.9-1.9,2c4.2-1.4,14.4-3.4,20.8-4.8c-4.7-0.2,8.4-2.8,7.8-3.9c7.4-2.1,3.9,0,6.8-0.5c7.6-2.5,15-4.1,22-6.1
							c0,0,0.1,0.1-0.2,0.3c6.3-2.1,16.8-4.9,22.9-8c-0.2,0.3,0.4,0.3-1.2,1.1c7-1.8,0.8-1.8,8.9-3.8l-1.6,1.2
							c4.7-2.2,9.6-2.7,14.9-5.6c0.3,0.2-0.9,0.8-1.6,1.2c5-2.1,10.7-4,14.7-6.4c0.8,0.1,0.2,0.7-1.6,1.7c5.1-1.5,5-3,9.7-4.4
							c1.3-0.5,4-0.9,3.1-0.6c2.1-1.4,9-4,11.4-5.1c0.8,0.1,2.6-0.5,5.6-1.2c24.9-9.7,50.4-19.2,75.6-27.6c4.6-0.1-5.7,2.4-2.8,2.4
							c-0.5-1,4.2-1.5,11.9-4l0.4,0.1c3.2-1.2,5.3-0.9,8.8-2.1l-0.2-0.2c3.7-1.6,8.8-0.8,10.5-2.4l3.1,0.1c3.6-1.8,6.1-1,10.6-2.6
							l-0.5,0.3c6.4-0.5,13-3.3,15.6-2.6c5.4-0.9,11.7-1.8,12.6-2.8c1.2,0.2,0.5,0.8-0.2,1.2c20.3-2.8,43.1-4.6,61.4-6.7
							c0.9,0.1-0.2,0.4-0.8,0.6c11.4-1.6,23.4,0.2,31.7-1.8l3-0.9c2.7,0.3,2.5,0.9,4.6,1.2c2.3-0.6,10.4,0,11.8-0.7
							c1.2,0.4-0.5,0.4-0.5,0.7c5.2,0.4,11.4-0.6,16.3,0l-1.6,0.3c26,3.4,59.1,9,80.3,11.7c5.7,0.9,2.3,1.6,4.8,2.1
							c22,3.2,46.4,14.1,65,22c14.4,7.1-9.1-11.1-9.5-10.8c-18.2-7.6-27.8-9.8-37.1-12.4C883.5,160.3,874.2,157.8,855.6,153.8z"/>
					</g>
				</g>
				<g>
					<g>
						<path d="M191.5,265.1c-0.1,0.1-0.1,0.2,0,0.2l0.8,0.1c1,0,2.6-0.2,4.1-0.3C194.8,265.2,193.1,265.2,191.5,265.1z"/>
					</g>
				</g>
				<g>
					<g>
						<path d="M191.5,265.1c-1.3,0-2.5-0.1-3.5-0.1c0.9,0.1,2.1,0.2,3.5,0.3C191.3,265.3,191.3,265.2,191.5,265.1z"/>
					</g>
				</g>
				<g>
					<g>
						<path d="M83.1,231.9l0.1,0.1l2.1,0.8C84.6,232.3,84.1,232.2,83.1,231.9z"/>
					</g>
				</g>
				<g>
					<g>
						<polygon points="187.5,265 188,265 187.9,265 						"/>
					</g>
				</g>
				<g>
					<g>
						<path d="M113.1,123.9c-0.1,0.7,0,1.5,0.2,2.3l0.5-0.1C113.5,125.5,113.2,125.7,113.1,123.9z"/>
					</g>
				</g>
				<g>
					<g>
						<path d="M113.8,126.2L113.8,126.2l-0.5,0c0.1,0.8,0.4,1.7,0.7,2.6C113.8,128.2,113.9,126.4,113.8,126.2z"/>
					</g>
				</g>
				<g>
					<g>
						<path d="M142.8,131.9c0.4,0.8-5.2,7.3-10.6,8.2C136.8,138.7,140.4,135.5,142.8,131.9z"/>
					</g>
				</g>
				<g>
					<g>
						<path d="M141.8,99.9c-1.9-2.4-1.1-2.1,1.7,1.1C143.6,101.3,142.6,100.3,141.8,99.9z"/>
					</g>
				</g>
				<g>
					<g>
						<path d="M139.4,99c-2.2-1.8-3.2-2.7-4.3-3.7C135.1,95.5,140.7,98.9,139.4,99z"/>
					</g>
				</g>
				<g>
					<g>
						<path d="M81.1,114.9c-0.6,1.6-1.1,5.2-1.9,6.7C79.7,119.9,80.8,113.5,81.1,114.9z"/>
					</g>
				</g>
				<g>
					<g>
						<path d="M82.7,146.4c0.4,0.9,0.4,1.4,1,2.4c0.5,1.8-0.5,0.1-1.2-1.3L82.7,146.4z"/>
					</g>
				</g>
				<g>
					<g>
						<polygon points="66.9,233 64.1,231.6 64.7,231.5 						"/>
					</g>
				</g>
				<g>
					<g>
						<path d="M287.7,261.2c3-0.7,2.1,0.1,2.7,0.1C287.7,261.8,291.3,260.7,287.7,261.2z"/>
					</g>
				</g>
				<g>
					<g>
						<polygon points="405.8,234.7 404.9,234.9 405,233.9 						"/>
					</g>
				</g>
			</g>
			<g>
				<g>
					<g>
						<path d="M767.6,207.7c0.2,0.3,0.2,0.8,0.7,0.6c0,0.3-0.5,0.5-0.3,0.8c0.5-0.3,0.7-1.5,0-1.9l0-0.2
							C767.9,207.3,767.8,207.6,767.6,207.7z"/>
					</g>
				</g>
				<g>
					<g>
						<path d="M768,207l0-0.2L768,207z"/>
					</g>
				</g>
				<g>
					<g>
						<path d="M768.5,219.9c-0.1,0-0.1,0.1-0.2,0.3C768.4,220.1,768.5,220,768.5,219.9z"/>
					</g>
				</g>
				<g>
					<g>
						<path d="M780.9,247.8l0.2-0.1C781,247.7,781,247.7,780.9,247.8z"/>
					</g>
				</g>
				<g>
					<g>
						<path d="M767.1,207.9c0.2,0,0.4-0.1,0.5-0.2C767.5,207.6,767.3,207.6,767.1,207.9z"/>
					</g>
				</g>
				<g>
					<g>
						<path d="M763.3,250.7l0.2,0C763.6,250.4,763.5,250.5,763.3,250.7z"/>
					</g>
				</g>
				<g>
					<g>
						<path d="M779.8,248.9l-0.2,0C779.3,249.2,779.4,249.1,779.8,248.9z"/>
					</g>
				</g>
				<g>
					<g>
						<path d="M772.2,250.8l-0.4,0.2L772.2,250.8z"/>
					</g>
				</g>
				<g>
					<g>
						<path d="M762.7,251.3l-0.1,0L762.7,251.3z"/>
					</g>
				</g>
				<g>
					<g>
						<path d="M770.1,181.2l-0.1,0.2c0.3-0.1,0.5-0.2,0.9-0.2L770.1,181.2z"/>
					</g>
				</g>
				<g>
					<g>
						<path d="M768.6,148c-3.2,1-7.3,2.7-10.3,3.4c-11.8,4.9-24.6,11-32.3,22.9c0.7-0.4,0.7,0.5,0.4,1.2l-0.3,0l-0.1,1.3
							c-0.5,0.9-1,0.1-0.6-0.7c-3.1,4.6-5.1,9.1-7,14.2c0.8,0.6-0.8,2.7,0.2,3.2c-0.3,0.2-0.2,0-0.4-0.2c-0.4,3.7-0.4,3.9-2.2,7.1
							c-2.4,14.4,0.9,28.7,9.6,41c9.4,12.1,24.1,17.7,38.6,18c2.3-1.6,5.3-0.7,7.8-2.5l-0.1,0.5c2.1-1,2.8,0,5.7-0.3
							c-0.1-0.5,1-0.4,0.4-1.2c0.7-1,2.1,0.8,3.3,0c0.1,0.3-0.2-0.5,0.2-0.3c3-2.5-0.5,0.8,4.2-0.3c6.1-3.2,10.7-8.3,15-12.9
							c-0.2,0.4-0.9,0-0.5-0.5c1.5,0.4,0.9-2,2-2.5c0.2,0.2,0,0.7-0.1,1c2.3-2,2.4-4.7,4.3-6.7c0.3-2.6,2.8-5,2.3-7
							c0.5,0.6,0.7-1,1.1-1.5c-1.2-2.1,1.5-5,0.5-7.6l0.3,0.1c0.3-7.1-1.3-15.7-6.6-21.7c-2.4-3.5-5.3-8-9.8-9.9
							c-0.9-0.3-0.5,0.4-1.1,0.2c-1-0.7,0.3-0.5,0-0.9c-2.5-0.3-4.6-2.5-7.6-3.3c-0.4,0.2-1.2,0-1.1,0.5c-2.9-2.1-7.5-1.1-10.8-1.7
							c1.2,1.5-1.9,0.9-3,1.3c-0.6,0-0.7-0.3-0.6-0.7c-2.4,0.7-3.7,0.7-6.6,1.3c-1.3,0.6-1.3,1.5-2.9,1.8c-1.4-0.6-3.1,1.6-4.7,2
							c0.8,0.5-0.5,2.2-1.9,3l-0.4-1.3c-3.7,3.4-9.4,10.1-8.5,16.5l-0.8,0.3c0,6.1,0.2,12.8,4.8,17.4c0.5,1.6,2.1,3.9,3.6,4.9
							c2.2,0.9,3,1.3,4.7,0.9c0.8,0.2,1,1,1.2,1.3c2.5,1,5.5,2.3,7.8,0.7l0.2,0.6c2.4-1,4.9-3.2,7.2-4.4c0.2-0.9,1.5-2.9,0.2-2.5
							c0.5-0.8,1.3,0.2,1.2-1c0.1,0.4,0.2,0.9,0.2,1.3c3.3-4.5,4-9.8,2-14.7c0.8-2-2.3-4.8-4.5-6.8c-0.2-0.4-3.3-1.4-3.8-1.2
							c-1.5,0.1-1.2,2.2-1.4,3.1c0.8,0.4-0.5,1.1,0.7,1c-0.3,0.4-0.3,0.8-0.3,1.2c0.4-0.5,1.6,0.8,1.4-0.5c1.3,0.9,2.3,2.1,3.2,3.4
							c-0.4-0.4-1.1-0.1-1.2,0.4c1,0.1,1.9,1.3,1.8,2.7c0.8-0.1,0.7-0.6,1.5-0.5c0.2,0.2,0.6,0.6,0.6,1c-0.8,0.3-2.1,0.3-2.2,1.5
							c-1.2-0.4,0.2-2.1-1.1-1.5c-1-0.5-1.5-1.9-1-2.5c-1.3-0.2,0.1,0.6-1,0.9c0.3,0.5,0.9,0.8,1.2,2c0.5,0,0.6-0.5,1.1,0.2
							c1.1,1.4-0.9,1.5-1,1.8c-0.1-0.2,0-0.4-0.2-0.6c-0.5,0.7,0.2,1.1-0.1,1.9c-1.4-0.2,0.1-1.3-0.7-1.8l-1.2,0.3
							c-0.4,1,1.2,0.6,0.4,1.6l-0.4-0.3l0.1,0.8c0.5,0.2,1.3,0.4,1.5-0.3c1.1,0.9,0.1,0.8-0.3,1.8c0.5,0.7,0.2-0.5,0.9-0.1
							c0.7,0.2,0.3,1,0.1,1.6c-0.6,0.9-1-0.1-1.7-0.1c0-0.2,0.4-0.8,0.7-0.5c-0.1-1.4-1.6-0.5-1.7-1.5c-0.7,0.4,0,0.8,0,1.3
							c0.2-0.1,0.5,0.6,0.9,0.6c0.6,2.7-1.8-0.5-2.3,0.6c1.1,1-0.7,2.5,1,3.4c-0.3,0.4-0.6,1-1.1,1c0.1-1-0.9-0.6-0.5-1.6l-0.5,0.1
							c0.2-0.4,0.3-0.8,0.4-1.2c-0.8-0.5-1.6-0.9-1.8-1.4c-0.6,0.4,0.3,0.9-0.4,1.1c0.2-0.5-0.2-0.9-0.5-0.9c0.6,0.4,0,1.3-0.5,1.6
							c-0.8-0.2-1.2-1.2-1.1-1.4l0.8-0.7c-0.6,0.6-0.1-0.4-0.7-0.2c-0.2,0.5-0.8,1.2-1.2,1.8c-0.6,0-0.7-0.8-0.9-0.7l0.9-0.2
							c-1-0.2,0.3-1.5-0.7-1.4l-0.5,0.5c-0.1-0.2,0-0.5,0.3-0.7c-0.4,0.4-0.8,0-1.1,0.1l0.2-0.4c-0.4,0-1.6,0.5-1.3-0.5
							c-0.5,1.1,0.4,0.3,0.6,1.2c-0.1,1-1.1,0.2-1.3,0.2c0.8-0.9-0.7-0.9-1.1-1.3c0.2-0.5,0.2-0.9,0.3-1.2l-0.8,0.3
							c1.2-1-0.9-0.8-0.8-1.6c0.6,0.1,1.2-0.3,1.2-0.7c-0.8,1.1-1.8-0.3-2.4,0.1c-0.1-1.3,1.5-0.3,2.2-0.9c-1.1-0.2,0.2-1.4-1.1-1.4
							c-0.1,0.9-0.8,0.1-1.3,0c-0.2-1.2,0.5,0.1,0.8-0.8c-0.2-0.4-1.3-0.9-1.5-0.1c0.1-0.7-1.1-1.4-0.4-2.3c0.7-0.4,0.5,1.5,1,0.9
							c0-1.7-2-0.7-2.2-2.4c-0.4,0.7-1.7,0.1-2.2-0.9c0.4-2,0.4,0.9,1.4,0.2l-0.1-0.8c1.4-0.9,2.1,2.3,3.2,1.3l-0.4-0.8
							c0.4,0.2,1,0.4,1.4,0.2c-1-0.2-0.1-1.7-0.3-1.8c-0.8-0.2,0.2,0.6-0.4,0.4c-0.2-0.8-1.3-1.4-0.6-2.5c0.4,0.8,1.1,0,1.5,0.3
							c0.4-0.5-0.9-0.4-0.2-1.1l0.4,0.2c0.9-3,2.6-5.6,3.5-8.8c1,0.3,1.6-0.5,3.3-0.8c-0.8,0.1-0.5-0.7-0.2-0.9l1.1,0.4
							c1.1,0,1.6-1.4,2.3-2.1c0.2,0.1,0.4,0.3,0.5,0.5c1,0.3,0.6-0.8,0.9-1.1l0.7,0.4l-0.1-0.6c0.7-0.7,1.9-0.7,2,0.3
							c0.3-0.2,0.6-0.5,0.1-0.7c1,0.5,3.2-0.1,4.8-0.4c-0.8-0.2-0.7-0.5-0.8-1.2c0.2-1.1,0.4,0.2,1-0.5c0,0.4,0.8,0.8,0,1.1
							c2.1,1.2,5,0.4,7.5,1.2c0.5,0,0.4-0.2,0.8-0.4c1.3,1.3,3.5,1.1,5,2.3c-0.2-0.6,0.9-1.5,1.9-1.1c1.5-0.3-0.2,1.3,0.4,2.3
							c0.6-0.1,1.5,0.3,1.7,0.6l-0.1,0.1c0.7,0,1.8,0.2,2.1,1l-0.1,0c0.4,0.5,0.5,1.4,1,1.7c0.8-0.4,1.5,1,2.3,0.7
							c0,0.1-0.1,0.1-0.2,0.3l0.6-0.4l0.4,1.3c-0.4,0-0.7,0.1-1,0c0.4,1.3,0.8-0.1,1.5,0.3c1,0.4,0.4,0.8,0.4,1.3
							c-0.5-0.1-0.3-0.6-0.5-0.7c-0.8-0.1,0.1,0.6-0.2,0.8c0.1,0.2,0.9-0.3,1.1,0.4c0.3,0.5,1,1.6,0.3,1.8c0.6,0.2,0.8,0.8,1.2,1
							c-0.1-0.5-0.3-1.3,0.1-1.7c0.3,0.3,0.9,1,0.6,1.3l-0.3-0.2c0.3,0.2,0.7,1.5,1,0.6c-0.2,0.4-0.3,0.8-0.5,1.2
							c0.6,0.1,0.9,1,1.2,1.7c-0.7,0.3-1.7,0-1.5,1.3l1.1,0.9c0.2,0.6,0,0.8-0.5,0.8c-0.2,2.1,2.6,1.9,2,3.7c-0.9-0.7-1-0.1-1.3,0.7
							c0.2,0,0.5,0.1,0.5,0.4c0.4-0.2-0.7-0.4,0-1c0.6-0.2,0.4,0.7,0.6,1c-1.9,1.5-0.7,5.1-2.1,7.4c1.1,0.1,0,1.1,0.3,1.7
							c-1.1-0.5-0.1,1.4-1,1.9l1.2,0c-1.1,1.2,0.7,3-0.9,3.4c-0.6,0.7-0.7-0.6-0.7-1c-1.5,0.6-0.3,3.3-2,3.6
							c0.4,0.3,1.2,0.3,1.1,1.5c-0.8,0.6-2.2,1.6-2.3,1.4c-0.2,0.7,0,1-0.8,1.4c-0.2-0.2-0.1-0.5,0-0.8c-0.9,0.8-1,1.9-1.4,2.9
							c-1.1-0.1-2.1,1.8-3.4,2.4c0.2,1.3-1.9,1.1-1.1,2.2c-0.1-0.1-0.3-0.2-0.4-0.2c-0.1,0.6,0.1,1.6-0.3,2.1l-0.4-0.9
							c-0.6-1-1.6,0.9-2.1,0.5c0.9,0.4-0.6,0.4-0.3,1l-0.5,0.7c-0.9,0.9,0.1,0.5-1.1,1.4c-0.8,0.4-0.8-0.8-0.5-0.8
							c-0.9-0.1-1.4,0.4-2,0.9c0.2-0.1,0.4-0.1,0.2,0.2c-0.1-0.1-0.2-0.1-0.3-0.1c-0.2,0.2-0.4,0.3-0.7,0.4l-0.9,0.7
							c-0.1,0.2-0.3,0.3-0.4,0.3c-0.4,0.3-0.5,0.4-0.2,0l0.2,0l0.4-0.3c0.3-0.3,0.5-0.6,0.7-0.8c-0.2,0.1-0.5,0.2-0.7,0.1l-0.1-0.8
							c-0.5,0.2-1.5,1.5-1.3,1.8c-2.2-0.1-5.2,1.5-6.6,1.9l-0.4,0.2l0.4-0.2c0.2-0.2,0.2-0.4,0-0.2c-0.7,0.2-1.4,1-1.5,0.5
							c-0.7,0.4-0.7-0.4-1.8-0.3c0-0.2-0.1,0.7,0.2,0.6c-1.8-1-4.2,0.7-6.4,0l-0.1,0l0.1,0c0.2,0,0.5-0.4,0.6-0.6
							c-1.7,0.2-3.3,0.2-5,0.9c0.2-0.3,0.2-0.6,0.7-0.7c-1.2-0.1-2.5-0.3-3.2,0.2c0.7,0.5,0.1-0.4,0.7-0.2c0.7,0.8-0.9,1.1-1.7,0.7
							l0-0.2c-1.2-0.3-1.3,0.1-2.5-0.2c-0.6-0.6,0.7,0,0.5-0.5c0-1.1-2.3-1.6-2.5-1.8c-0.3,0.1-0.8,0.2-0.9,0.5
							c-1-0.1-0.1-0.8-0.8-1c-1.1,0.3-2.3,0.8-3.5,0.9c0.6,0.1-0.3-1.3,0.8-1.3c-1.8-0.8-3.4-0.2-4.9-0.2c-0.5-0.4-2.3-1.3-2.9-1.6
							c0.1-0.7,0.5,0.4,0.9,0.1l-0.4-1.2c1.1,0.7,0.5-1,1.4-0.9c-1.1-0.3-2.8-2.1-3.7-3.4c-0.1,1.7-2-1-2.8-0.2
							c-1.5-1.2,0.1-1.3-0.2-2c-1.5-1.2-2.6-2.7-3.5-4.2c0,0,0.1-0.1,0.2-0.1c-1.2-1.2-2.2-3.5-3.7-4.6c0.2,0,0.4-0.3,0.7,0
							c-0.3-1.8-1.5,0.3-1.7-1.8l0.7,0.2c-1.1-0.9-0.4-2.4-1.7-3.5c0.3-0.1,0.5,0.1,0.7,0.3c-0.6-1.2-1.1-2.6-2-3.5
							c0.3-0.3,0.7-0.2,1.1,0.3c0.2-1.4-1.3-1.1-1.2-2.4c0-0.4,0.3-1.1,0.4-0.9c-0.7-0.5-0.9-2.3-1.2-2.9c0.4-0.2,0.4-0.7,0.7-1.5
							c-0.9-6.5-0.2-13,0.5-19.5c1.4-0.7,0.3,1.6,1.3,1.2c-1-0.2,0-1.1,0.2-3.1l0.2,0c0-0.9,0.8-1.1,0.9-2l-0.3-0.1
							c-0.3-1.2,2-1.4,1-2.4l1-0.4c-0.7-1.3,0.9-1.2,0.6-2.6l0.1,0.2c1.1-1.1,0.5-3.4,1.6-3.5c0.5-1.2,1.3-2.6,0.7-3.3
							c0.4,0,0.8,0.4,0.9,0.8c2.5-4.4,6.6-8.2,9.3-12c0.3,0,0.2,0.3,0.2,0.5c1.5-2.7,5.2-2.6,5.8-5.4l0.2-1.1c0.7-0.1,1,0.5,1.6,0.4
							c0.2-0.8,2.1-1.5,2.1-2.3c0.4,0.2,0.1,0.5,0.2,0.7c1.2-0.4,2-2.3,3.3-2.6l-0.2,0.5c6.5-1.6,14.5-3,19.3-5.7
							c1.4-0.6,0.8,1,1.4,0.8c5.2-2.5,11.8-0.5,16.8-2.6c4.1-0.4-3.1-5.5-3.2-5.4C778.3,146.4,778.6,147.4,768.6,148z"/>
					</g>
				</g>
				<g>
					<g>
						<path d="M781.2,247.9c0-0.1-0.1-0.2-0.1-0.2l-0.2,0.1c-0.2,0.2-0.4,0.5-0.7,0.8L781.2,247.9z"/>
					</g>
				</g>
				<g>
					<g>
						<path d="M781.2,247.9c0.2-0.2,0.5-0.3,0.7-0.4c-0.2,0-0.5,0.1-0.7,0.2C781.1,247.7,781.1,247.8,781.2,247.9z"/>
					</g>
				</g>
				<g>
					<g>
						<path d="M806.3,233.4L806.3,233.4l-0.2,0.7C806.3,233.8,806.3,233.7,806.3,233.4z"/>
					</g>
				</g>
				<g>
					<g>
						<polygon points="781.9,247.4 781.8,247.5 781.8,247.5 						"/>
					</g>
				</g>
				<g>
					<g>
						<path d="M766.7,207c0.1,0.2,0.2,0.2,0.3,0.1l0.1-0.5C767,206.8,766.9,207.1,766.7,207z"/>
					</g>
				</g>
				<g>
					<g>
						<path d="M767.1,206.6L767.1,206.6l-0.1,0.5c0.1,0,0.3-0.1,0.4-0.1C767.3,206.9,767.2,206.5,767.1,206.6z"/>
					</g>
				</g>
				<g>
					<g>
						<path d="M770.9,209.4c-0.4,0.2-1.3-0.1-1.6-0.5C769.7,209,770.3,209.2,770.9,209.4z"/>
					</g>
				</g>
				<g>
					<g>
						<path d="M770.4,213.7c-0.4,0.4-0.6,0.2-0.6-0.2C770,213.5,770.1,213.6,770.4,213.7z"/>
					</g>
				</g>
				<g>
					<g>
						<path d="M771.4,214c0,0.4-0.3,0.6-0.6,0.7C771.2,214.7,770.6,213.8,771.4,214z"/>
					</g>
				</g>
				<g>
					<g>
						<path d="M766.4,220.9c-0.1,0.1-0.3,0.6-0.6,0.2C766,221.3,766.2,220.2,766.4,220.9z"/>
					</g>
				</g>
				<g>
					<g>
						<path d="M763.1,222.2c-0.1-0.1-0.2-0.2-0.4-0.1c-0.2-0.3,0.1-0.5,0.3-0.5L763.1,222.2z"/>
					</g>
				</g>
				<g>
					<g>
						<polygon points="799.7,227 799.8,226.2 800.2,226.5 						"/>
					</g>
				</g>
				<g>
					<g>
						<path d="M759.8,250c-0.7,0.2-0.4-0.5-0.5-0.6C759.9,249.5,759,250,759.8,250z"/>
					</g>
				</g>
				<g>
					<g>
						<polygon points="734.2,239.5 734.4,239.6 733.6,240.2 						"/>
					</g>
				</g>
			</g>
			<g>
				<g>
					<g>
						<path d="M808.9,226.6c0.2,0,0.8,0.2,0.5-0.2c0.3,0.1,0.6,0.5,0.7,0.4c-0.4-0.5-1.3-0.7-1.7-0.5l-0.1-0.1
							C808.6,226.3,808.8,226.4,808.9,226.6z"/>
					</g>
				</g>
				<g>
					<g>
						<path d="M808.3,226.2l-0.2-0.1L808.3,226.2z"/>
					</g>
				</g>
				<g>
					<g>
						<path d="M813.8,220.6c0,0,0.1,0,0-0.2C813.7,220.5,813.7,220.5,813.8,220.6z"/>
					</g>
				</g>
				<g>
					<g>
						<path d="M846.7,183.5L846.7,183.5C846.7,183.5,846.7,183.5,846.7,183.5z"/>
					</g>
				</g>
				<g>
					<g>
						<path d="M809.1,227c0-0.1-0.1-0.3-0.1-0.4C808.8,226.6,808.8,226.7,809.1,227z"/>
					</g>
				</g>
				<g>
					<g>
						<path d="M851.9,182.3L851.9,182.3C851.9,182.5,851.9,182.4,851.9,182.3z"/>
					</g>
				</g>
				<g>
					<g>
						<path d="M847,182.8L847,182.8C847.1,182.7,847.1,182.7,847,182.8z"/>
					</g>
				</g>
				<g>
					<g>
						<path d="M849.4,182.2l0.1-0.1L849.4,182.2z"/>
					</g>
				</g>
				<g>
					<g>
						<path d="M852,181.6L852,181.6L852,181.6z"/>
					</g>
				</g>
				<g>
					<g>
						<polygon points="817.7,195.5 817.8,195.6 817.9,195.3 						"/>
					</g>
				</g>
				<g>
					<g>
						<path d="M853.1,204.3c1.6,1.2,3.7,1.8,5.1,2.6c5.5,1.7,14.3,1.2,17.5-6.1c-0.5,0.2-0.7-0.4-0.7-0.8l0.3,0.1l-0.3-0.7
							c0.2-0.4,0.8,0.1,0.7,0.5c1.2-2.5,1.1-4.6,1.6-6.7c-1-0.2-0.1-1.2-1.1-1.3c0.2-0.1,0.2,0,0.4,0c-0.6-1.5-0.5-1.5,0.4-3.2
							c-0.5-7-6.4-11.3-10.8-13.6c-5.1-2.1-10.1-2.1-15.3-1.4c-0.6,1.6-1.8,1-2.5,2.6l0-0.5c-0.6,0.8-1,0.1-2-0.2
							c0.1,0.5-0.3,0.3,0.1,1.1c-0.1,0.8-0.9-1.1-1.2-0.5c-0.1-0.3,0.2,0.5,0,0.3c-0.8,1.4,0.1-0.5-1.6-0.9c-1.9,1-3.4,2.7-5.5,3
							c0.1-0.1,0.5,0.5,0.3,0.6c-0.8-1.2-0.4,0.7-1,0.3c-0.1-0.3,0-0.4,0-0.6c-1.1-0.1-1.3,1-2.4,0.9c-0.4,0.9-1.8,0.4-1.9,1.3
							c-0.2-0.6-0.5-0.2-0.9-0.3c0.5,1.8-1.7,0.3-1.6,1.8l-0.2-0.3c-1.7,1.4-3.9,2.6-5,4.8c-0.8,1-2.9,0.9-3.4,2.5
							c0,0.3,0.4,0.5,0.4,0.7c-0.3,0.2-0.4-0.4-0.6-0.4c0,1-1.2,1.1-1.7,1.8c0.1,0.3,0.1,0.5,0.4,0.7c-1.5-0.1-1.2,2-2.4,2.2
							c1.4,0.7,0.3,1,0.4,1.4c-0.2,0.1-0.5-0.1-0.7-0.4c-0.3,0.7-0.5,1-1.4,1.4c-0.1,0.4,0.5,1,0.1,1.2c-1-0.4-0.6,0.8-1.2,0.9
							c0.8,0.4,1.1,1.3,0.5,1.5l-1-0.9c-0.2,1.7-2.5,2.6-2.1,4.9l-0.7-0.3c-0.2,1.9-1.9,2.9-1.5,5.1c-0.6,0.2-1.2,0.6-1.4,1
							c0.2,0.8,0.1,1,0.7,1.9c-0.1,0.2-0.6,0-0.9,0c-0.6,0.5-1.8,0.6-1.1,1.8l-0.6-0.3c0.3,0.8,0.5,2-0.5,2.2c0.4,0.5,0.2,1.1,1,1.3
							c0,0.3-1-0.4-0.6,0.2l-0.7-0.7c-1,1.2-1.2,2.5-1.5,4c-1.2-0.2-0.6,1.3-1.6,1.6c-0.1,0-0.2,1-0.1,1.2c0.3,0.7,2,1.4,2.8,1.9
							c0.3-0.2,1,0.7,0.8,0c0.3,0.3,0.8,0.4,1.1,0.6c-0.4-0.3,0.5-0.7-0.6-0.9c0.5-0.4,1-1,1.1-1.7c0,0.2,0.6,0.7,1,0.7
							c-0.5-0.7-0.6-1.3-0.1-1.7c-0.7-0.4-0.8-0.2-1.4-0.7c-0.1-0.1-0.3-0.4-0.2-0.5c0.8,0.3,1.8,1,2.1,0.6c1,0.8-0.6,0.7,0.6,1.1
							c0.8,0.7,0.4,1.5-0.3,1.4c0.7,0.9,0.3-0.2,1.2,0.4c0.1-0.4-0.2-0.8-0.1-1.5c-0.5-0.3-0.6-0.1-0.9-0.6
							c-0.7-1.1,1.1-0.2,1.2-0.3l0.1,0.4c0.5-0.1-0.1-0.6,0.2-0.9c1.3,0.7-0.2,0.6,0.5,1.2l1,0.3c0.4-0.4-1-0.8-0.3-1.1l0.4,0.3
							l-0.1-0.5c-0.5-0.3-1.2-0.6-1.3-0.3c-1.1-0.9,0-0.4,0-1c-0.6-0.6-0.1,0.2-0.7-0.2c-0.7-0.3-0.5-0.7-0.5-0.9
							c0.2-0.4,0.9,0.2,1.4,0.4c0.1,0.1,0,0.5-0.4,0.2c0.4,0.9,1.6,0.6,1.9,1.3c0.6-0.1-0.3-0.6-0.3-0.9c-0.1,0.1-0.7-0.4-0.9-0.5
							c-1.5-1.7,1.6,0.4,1.6-0.4c-1.3-0.6-1.2-1.8-2.8-2.1c-0.1-0.3-0.3-0.6-0.1-0.7c0.7,0.6,0.8,0.1,1.4,0.9l0.1-0.2l0.8,0.9
							c0.7,0.1,1.5,0,1.9,0.1c-0.2-0.5-0.8-0.4-0.8-0.8c0.3,0.4,0.8,0.4,0.9,0.2c-0.5,0.1-1.2-0.7-1.2-1c0.2-0.3,1.1-0.1,1.2,0
							l0.5,0.7c-0.5-0.6,0.4,0.1,0.3-0.3c-0.4-0.3-1-0.9-1.6-1.3c-0.1-0.3,0.6-0.1,0.5-0.2l0.3,0.6c0.1-0.5,1.3,0.7,1.2,0l-0.6-0.5
							c0.2,0,0.5,0.1,0.7,0.3c-0.4-0.3-0.2-0.5-0.3-0.7l0.4,0.2c-0.2-0.3-1-1.1,0-0.8c-1.1-0.4-0.1,0.2-0.8,0.2
							c-0.9-0.3-0.5-0.7-0.6-0.9c1.1,0.7,0.4-0.4,0.5-0.6c0.5,0.1,0.7,0.1,1,0.2l-0.7-0.5c1.4,0.8-0.1-0.6,0.5-0.6
							c0.4,0.4,0.9,0.7,1.2,0.7c-1.2-0.4-1-1.2-1.8-1.5c0.6-0.2,1.2,0.9,2,1.2c-0.7-0.7,0.8-0.1-0.1-0.9c-0.5,0.1-0.6-0.5-1-0.8
							c0.3-0.3,0.4,0.3,0.9,0.3c0-0.2-0.7-1-1.1-0.9c0.4-0.1-0.5-1,0.3-0.8c0.7,0.3,0,0.7,0.5,0.8c0.4-0.5-1.4-1.3-1.3-1.9
							c-0.5,0-1.5-0.9-1.7-1.4c0.6-0.4,0.2,0.5,1.2,0.8l0-0.3c1.3,0.4,1.4,1.8,2.5,2.1l-0.2-0.5c0.3,0.3,0.8,0.7,1.2,0.8
							c-0.7-0.6,0.2-0.7,0-0.8c-0.6-0.5,0.1,0.3-0.4-0.1c0-0.4-1-1.2-0.4-1.3c0.3,0.5,0.9,0.5,1.2,0.8c0.4,0-0.7-0.6-0.2-0.6
							l0.4,0.3c0.8-0.9,1.5-2.2,0.5-4.1c0.8,0.3,1,0,1.8-0.1c-0.4,0.1-0.7-0.5-0.7-0.6l0.9,0.3c0.6,0,0.2-0.8,0-1.4
							c0.2,0.1,0.4,0.2,0.6,0.3c0.7,0.1-0.2-0.6-0.3-0.8l0.6,0.2l-0.5-0.4c-0.1-0.5,0.3-0.7,1.1,0c-0.1-0.2-0.2-0.4-0.5-0.5
							c0.7,0.1,1.2-0.5,1.2-1.2c-0.4,0-0.6-0.2-1.1-0.5c-0.8-0.7,0.2,0-0.1-0.5c0.3,0.2,0.8,0.3,0.9,0.7c1.5,0.3,1.3-1.2,2.1-1.7
							c0-0.2-0.2-0.3-0.3-0.6c1.2,0.3,0.8-1,1.5-1.1c-0.4-0.2-1.2-1.2-1-1.5c-0.4-0.9,1,0.7,1.6,0.9c-0.2-0.4,0-0.7,0.1-0.8l0.1,0.1
							c-0.2-0.5-0.2-0.9,0.3-0.8l0,0.1c0.2-0.1,0.8,0.1,0.8-0.1c-0.5-0.7,0.2-0.7-0.2-1.3c0.1,0,0.1,0.1,0.3,0.2l-0.5-0.5l0.6,0
							c0.1,0.3,0.3,0.5,0.4,0.7c0.7,0.1-0.3-0.6-0.4-1c-0.1-0.6,0.3-0.1,0.7,0.1c0.1,0.3-0.3,0-0.2,0.2c0.3,0.5,0.3,0,0.6,0.3
							c0.1,0-0.5-0.7-0.2-0.7c0.2-0.1,0.4-0.5,0.9,0.1c-0.1-0.4,0.1-0.5-0.1-0.8c-0.2,0-0.6,0-0.9-0.3c0-0.2,0.1-0.5,0.4-0.3l0,0.2
							c0-0.2,0.4-0.3-0.2-0.7l0.9,0.5c-0.3-0.5,0-0.7,0.1-1c0.5,0.6,0.9,1.4,1.4,1.2l-0.2-0.9c0.1-0.2,0.3-0.1,0.5,0.3
							c0.8-0.1-0.8-2.1,0.1-1.9c0.4,0.9,0.6,0.8,0.9,0.9c-0.1-0.1-0.3-0.4-0.2-0.5c-0.3-0.3,0.3,0.6-0.3,0.2c-0.4-0.4,0-0.4-0.1-0.7
							c1.6,1.3,1.6-0.6,2.8-0.2c-0.7-0.9,0.1-0.5,0-0.9c0.6,1,0.3-0.4,0.8,0.1l-0.7-0.9c0.8,0.3-0.2-1.9,0.8-0.9
							c0.4,0.1,0.3,0.8,0.3,1c0.9,0.9,0.4-1.4,1.3-0.3c-0.2-0.4-0.7-1-0.6-1.6c0.5,0.3,1.2,0.6,1.3,0.8c0.1-0.3,0-0.7,0.4-0.4
							c0.1,0.3,0,0.4,0,0.5c0.5,0.1,0.5-0.5,0.6-1c0.5,0.7,1,0,1.6,0.3c-0.2-1.1,0.8,0.1,0.3-1.2c0,0.1,0.2,0.3,0.2,0.4
							c0-0.4-0.2-1.3-0.1-1.5l0.3,0.9c0.4,1.1,0.6,0,0.9,0.5c-0.5-0.7,0.2-0.1,0-0.7l0.1-0.4c0.3-0.4-0.1-0.5,0.3-0.7
							c0.2-0.1,0.5,1,0.3,0.9c0.4,0.4,0.5,0,0.7-0.2c-0.1,0-0.1,0-0.1-0.2c0,0.1,0.1,0.2,0.1,0.2c0.1-0.1,0.1-0.2,0.2-0.2l0.3-0.3
							c0-0.1,0.1-0.2,0.1-0.1c0.1-0.1,0.2-0.1,0.1,0.1l-0.1-0.1l-0.1,0.1c-0.1,0.2-0.1,0.4-0.1,0.5c0.1,0,0.2,0,0.3,0.1l0.2,0.7
							c0.2,0,0.4-0.9,0.2-1.2c0.8,0.4,1.7-0.5,2-0.9l0.1-0.1l-0.1,0.1c0,0.2,0,0.4,0,0.1c0.2-0.2,0.2-0.8,0.4-0.4
							c0.1-0.3,0.3,0.5,0.6,0.5c0,0.2-0.1-0.7-0.1-0.6c0.6,0.9,1.1-0.8,1.8-0.2l0,0l0,0c0,0.1-0.1,0.5-0.1,0.7
							c0.4-0.4,0.9-0.7,1.4-1.6c-0.1,0.3,0,0.6-0.2,0.8c0.3,0,0.8-0.2,1-0.9c-0.2-0.4,0,0.4-0.2,0.3c-0.2-0.6,0.3-1.3,0.5-1.1l0,0.2
							c0.4,0,0.4-0.4,0.8-0.4c0.2,0.4-0.2,0.2-0.2,0.6c0,1.2,0.8,0.8,0.8,0.9c0.1-0.2,0.3-0.4,0.3-0.7c0.3-0.3,0,0.7,0.2,0.7
							l1.2-2.1c-0.2,0.2,0.1,1.1-0.3,1.5c0.6-0.1,1.2-1.3,1.8-1.9c0.1,0.2,0.9-0.1,1.1,0c-0.1,0.6-0.2-0.1-0.4,0.4l0.1,0.8
							c-0.4,0-0.2,1.1-0.6,1.4c0.4-0.3,1,0.4,1.4,0.7c0.1-1.4,0.8-0.4,1.2-1.5c0.6,0-0.1,1,0,1.3c0.7-0.2,1.1,0.4,1.6,0.5
							c0,0-0.1,0.1-0.1,0.2c0.6-0.1,1.1,0.6,2.1,0c-0.2,0.2-0.2,0.4-0.5,0.5c0.2,0.6,0.9-1.2,1.1-0.2l-0.5,0.4
							c0.7-0.2,0.3,0.9,1.2,0.5c-0.2,0.3-0.3,0.3-0.5,0.4c0.5,0,0.7,0.5,1.5,0.2c-0.2,0.3-0.5,0.5-0.8,0.6c-0.1,0.6,1-0.4,1,0.1
							c0,0.1-0.2,0.6-0.3,0.5c0.5-0.2,0.8,0.3,1.1,0.3c-0.3,0.3-0.3,0.5-0.5,0.9c1.1,1.6,1.5,3.4,2.5,5.5c-1.2,0.3-0.8-0.4-1.6-0.2
							c1,0,0.3,0.3,0.7,0.9l-0.1,0c0.2,0.3-0.5,0.3-0.2,0.6l0.3,0c0.6,0.4-1.4,0.4-0.1,0.8l-0.7,0.1c1.1,0.5-0.4,0.4,0.4,0.9
							l-0.2-0.1c-0.6,0.2,0.9,1.3,0,1.1c0.1,0.4,0,0.9,0.8,1.4c-0.3-0.1-0.8-0.4-1-0.6c-0.2,1.6-1.6,2.5-2.3,4.3
							c-0.2-0.1-0.1-0.3-0.2-0.5c-0.4,1.4-2-0.4-2.1,1.8l-0.1,0.9c-0.3-0.3-0.4-0.9-0.6-1.1c-0.1,0.6-0.9,0.3-0.9,1
							c-0.1-0.3,0-0.5,0-0.7c-0.4-0.1-1,1-1.5,0.8l0.2-0.4c-2.4-1.7-3.4-3.4-5.9-3.6c-0.5-0.2,0.8-0.8,0.6-0.9
							c-2.4-1-0.3-3.3-2.2-5.1c-0.3-1.8-5.5,0.3-5.5,0.6C849.8,199.5,850.6,199.3,853.1,204.3z"/>
					</g>
				</g>
				<g>
					<g>
						<path d="M846.6,183.3c0,0.1,0.1,0.2,0.1,0.2l0.1,0c0-0.1,0.1-0.3,0.1-0.5L846.6,183.3z"/>
					</g>
				</g>
				<g>
					<g>
						<path d="M846.6,183.3l-0.2,0.2c0.1,0.1,0.2,0,0.3,0C846.6,183.5,846.6,183.4,846.6,183.3z"/>
					</g>
				</g>
				<g>
					<g>
						<path d="M835,179.8L835,179.8l0.1-0.2C835,179.5,835,179.6,835,179.8z"/>
					</g>
				</g>
				<g>
					<g>
						<polygon points="846.3,183.5 846.4,183.5 846.4,183.5 						"/>
					</g>
				</g>
				<g>
					<g>
						<path d="M808.4,226.9c0.1,0,0.1,0,0.1-0.1l-0.4-0.3C808.2,226.6,808.4,226.8,808.4,226.9z"/>
					</g>
				</g>
				<g>
					<g>
						<path d="M808,226.5L808,226.5l0.4,0.3c0-0.1-0.1-0.2-0.1-0.3C808.3,226.5,807.9,226.4,808,226.5z"/>
					</g>
				</g>
				<g>
					<g>
						<path d="M809.5,224.6c0.4,0.3,0.4,0.9,0.3,1.2L809.5,224.6z"/>
					</g>
				</g>
				<g>
					<g>
						<path d="M812.3,223.7c0.4,0,0.6,0.2,0.4,0.4C812.5,224,812.4,223.9,812.3,223.7z"/>
					</g>
				</g>
				<g>
					<g>
						<path d="M811.4,223c0.1-0.2,0.4-0.1,0.6,0C811.7,222.8,812.1,223.5,811.4,223z"/>
					</g>
				</g>
				<g>
					<g>
						<path d="M815,219.6c0-0.1-0.2-0.5,0.3-0.3C814.9,219.2,815.5,220.1,815,219.6z"/>
					</g>
				</g>
				<g>
					<g>
						<path d="M815.5,217.4c0.1,0,0.1,0,0.1-0.2c0.2,0,0.5,0.3,0.4,0.4L815.5,217.4z"/>
					</g>
				</g>
				<g>
					<g>
						<polygon points="838.4,187.6 838.3,187.9 838.1,187.5 						"/>
					</g>
				</g>
				<g>
					<g>
						<path d="M852.9,182.4c0.2-0.3,0.1,0.4,0.2,0.5C852.9,183,853.2,182.4,852.9,182.4z"/>
					</g>
				</g>
				<g>
					<g>
						<polygon points="861.7,181.8 861.6,181.7 862,180.9 						"/>
					</g>
				</g>
			</g>
			<g>
				<g>
					<g>
						<path d="M994.8,205.9c-0.3-0.1-0.7-0.7-0.9-0.1c-0.2-0.2,0.1-0.8-0.3-0.8c-0.2,0.6,0.5,1.4,1.2,1.5l0.1,0.1
							C994.7,206.4,994.7,206.2,994.8,205.9z"/>
					</g>
				</g>
				<g>
					<g>
						<path d="M994.8,206.7l0.1,0.2L994.8,206.7z"/>
					</g>
				</g>
				<g>
					<g>
						<path d="M980.3,206.5c-0.1,0-0.1,0-0.3,0.1C980.2,206.5,980.3,206.5,980.3,206.5z"/>
					</g>
				</g>
				<g>
					<g>
						<path d="M968,139.9l-0.1,0C967.9,140,967.9,140,968,139.9z"/>
					</g>
				</g>
				<g>
					<g>
						<path d="M995.2,205.5c-0.2,0.1-0.3,0.3-0.4,0.4C994.9,206,995.1,205.9,995.2,205.5z"/>
					</g>
				</g>
				<g>
					<g>
						<path d="M979.4,138.4l-0.1,0C979.3,138.6,979.3,138.5,979.4,138.4z"/>
					</g>
				</g>
				<g>
					<g>
						<path d="M968.7,139.1l0.1,0.1C969.1,138.9,969,139,968.7,139.1z"/>
					</g>
				</g>
				<g>
					<g>
						<path d="M973.7,138.1l0.2-0.2L973.7,138.1z"/>
					</g>
				</g>
				<g>
					<g>
						<path d="M979.8,137.7L979.8,137.7L979.8,137.7z"/>
					</g>
				</g>
				<g>
					<g>
						<polygon points="938.3,189.5 938.5,189.5 938.2,189 						"/>
					</g>
				</g>
				<g>
					<g>
						<path d="M968,177.7c0.9,3.1,3.3,6.1,4.9,8.2c7.8,8.4,22.3,8.9,30,1.2c-0.7,0.1-0.5-0.7-0.2-1.1l0.3,0.1l0.2-1
							c0.5-0.6,0.9,0.3,0.4,0.8c3.2-2.8,5.1-6,6.9-9.4c-0.7-0.6,0.7-1.9-0.2-2.4c0.2-0.1,0.2,0.1,0.4,0.2c0.5-2.6,0.4-2.7,2.2-4.8
							c2.9-9.9,0.2-20.8-6.6-28.9c-7.2-8.1-17.7-11-27.4-10.8c-1.5,1.5-3.6,0.8-5.1,2.4l0.1-0.5c-1.4,0.9-1.8,0-3.8-0.2
							c0.1,0.5-0.7,0.3-0.2,1.1c-0.4,0.9-1.4-1-2.2-0.4c-0.1-0.3,0.2,0.5-0.1,0.3c-2,1.7,0.3-0.7-2.9-0.5c-4.1,1.7-7.5,4.7-11.1,6.8
							c0.2-0.2,0.7,0.3,0.4,0.6c-1.2-0.9-0.9,1.1-1.8,1.2c-0.2-0.3,0-0.6,0.1-0.8c-1.8,0.8-2.3,2.6-4.1,3.4c-0.6,1.7-2.9,2.4-3,3.8
							c-0.3-0.6-0.9,0.3-1.3,0.5c0.8,2-2.4,2.4-2.1,4.4l-0.2-0.2c-2.2,4-4.4,8.7-4.6,13.6c-0.4,2.6-2.3,5.6-1.6,8.7
							c0.2,0.6,0.6,0.1,0.8,0.6c0,0.8-0.5,0-0.8,0.3c0.7,1.5,0,3.4,0.2,5.3c0.3,0.2,0.5,0.7,0.9,0.5c-0.9,2.3,1.3,4.7,1.1,6.9
							c1.2-1.2,1.2,0.9,1.7,1.5c0.1,0.4-0.3,0.6-0.6,0.6c0.8,1.4,1.1,2.2,1.6,4c0.6,0.7,1.4,0.5,1.7,1.5c-0.6,1.1,1.1,1.9,1.3,2.9
							c0.6-0.7,2-0.1,2.2,0.9l-1.2,0.5c2.5,2.1,4.8,6.5,8.9,7.5l-0.2,0.8c3.6,1.6,6.6,4.2,10.6,4.1c0.8,0.8,2.2,1.5,3.1,1.7
							c1.4-0.3,1.9,0,3-0.9c0.5,0,0.6,0.7,0.8,1c1.5,0.6,3,1.8,4.4,0.8l0,0.6c1.4-0.4,3.3-1.2,4.7-0.4c0.4-0.5,1.9-0.8,1.2-1.5
							c0.6-0.1,0.4,1.1,0.9,0.4l-0.5,0.9c3.2,0.2,6-0.4,8.9-1.3c1,1,2.9-0.5,4.7-0.3c0.2,0,1.9-0.7,2.1-1c0.7-0.8-0.2-2.4-0.4-3.4
							c-0.7,0-0.2-1.2-0.9-0.5c0-0.4-0.2-0.9-0.4-1.2c0,0.5-1.6,0.3-0.7,1.2c-1.3,0-2.7,0.2-4,0.6c0.4-0.1,0.4-0.9,0-1.2
							c-0.5,0.8-1.5,1.4-2.6,1.4c0.1,0.8,0.5,0.7,0.4,1.5c-0.2,0.2-0.4,0.5-0.7,0.5c-0.2-0.8-0.3-2.1-1.3-2c0.1-1.3,1.7,0,1.1-1.2
							c0.3-1,2-1.4,2.5-0.8c0.7-1.2-0.7,0-0.7-1.1c-0.7,0.2-1,0.9-2.2,1.1c0,0.6,0.5,0.6-0.1,1.1c-1,1.2-1.4-0.7-1.7-0.7l0.5-0.3
							c-0.7-0.3-0.9,0.4-1.7,0.4c-0.3-1.5,1.2-0.3,1.4-1.2l-0.6-1c-1.1-0.1-0.2,1.3-1.4,0.9l0.1-0.5l-0.7,0.3c0,0.5,0.2,1.4,0.8,1.2
							c-0.4,1.4-0.6,0.2-1.6,0.5c-0.3,0.8,0.4-0.1,0.5,0.7c0.1,0.7-0.6,0.8-1.1,0.9c-0.8,0-0.4-0.9-0.8-1.4c0.2-0.1,0.8-0.2,0.7,0.2
							c1-0.9-0.4-1.7,0.2-2.3c-0.8-0.5-0.7,0.5-1.2,0.8c0.2,0.1-0.1,0.8,0.1,1.1c-1.4,2.2-0.8-1.6-2.1-1.3c0.2,1.4-1.9,1.9-1,3.4
							c-0.3,0.2-0.8,0.5-1.1,0.4c0.4-0.9-0.5-0.8,0.2-1.6l-0.5-0.1l0.8-1c-0.5-0.7-1.2-1.5-1.4-1.9c-0.7,0.3,0.1,0.9-0.7,1.1
							c0.3-0.5-0.1-0.9-0.4-1c0.6,0.5-0.2,1.3-0.7,1.5c-0.7-0.1-1-1.1-0.9-1.3l0.8-0.7c-0.6,0.6-0.1-0.4-0.7-0.2
							c-0.2,0.5-0.7,1.2-1,1.8c-0.5,0.1-0.6-0.6-0.8-0.5l0.8-0.4c-0.9,0,0.1-1.5-0.8-1.3l-0.4,0.7c-0.1-0.2-0.1-0.5,0.1-0.7
							c-0.3,0.5-0.7,0.2-1,0.3l0.1-0.5c-0.4,0.2-1.2,1.1-1.4,0.1c0,1.2,0.4,0.1,0.9,0.8c0.2,0.9-0.8,0.6-1,0.7
							c0.4-1.2-0.9-0.3-1.3-0.6c-0.1-0.5-0.2-0.8-0.3-1.1l-0.5,0.7c0.4-1.6-1,0-1.3-0.6c0.4-0.4,0.6-1,0.4-1.3c0,1.3-1.3,1-1.5,1.8
							c-0.7-0.8,0.8-1.3,0.9-2.2c-0.8,0.7-0.6-1-1.4,0c0.4,0.6-0.4,0.6-0.8,1.1c-0.7-0.4,0.4-0.4,0-1c-0.4,0-1.2,0.6-0.9,1.1
							c-0.3-0.5-1.4,0.2-1.5-0.7c0.2-0.8,1.1,0.2,1.1-0.4c-1-0.7-1.5,1.3-2.6,0.9c0.2,0.6-0.9,1.5-1.6,1.5c-0.9-1,0.7,0,0.8-1.1
							l-0.5-0.2c0.2-1.5,2.4-1,2.5-2.2l-0.7,0.1c0.3-0.2,0.8-0.7,0.8-1.1c-0.6,0.7-1.1-0.5-1.3-0.4c-0.5,0.6,0.5,0.1,0.1,0.5
							c-0.6-0.1-1.6,0.8-1.9-0.2c0.7-0.1,0.5-0.9,0.9-1.2c-0.1-0.5-0.7,0.6-0.9-0.1l0.3-0.3c-1.6-1.4-3.4-3.3-6.1-3.6
							c0.4-0.8,0-1.4-0.2-2.6c0.1,0.5-0.7,0.5-0.9,0.3l0.5-0.9c0.1-0.8-1.1-1-1.8-1.3c0.1-0.2,0.3-0.3,0.5-0.5
							c0.3-0.8-0.7-0.3-1-0.4l0.4-0.6l-0.6,0.2c-0.6-0.4-0.8-1.1,0.2-1.5c-0.3-0.1-0.5-0.3-0.7,0.1c0.3-0.8-0.3-2.2-0.9-3.1
							c-0.1,0.5-0.4,0.6-1,0.9c-1.1,0.2,0.1-0.3-0.6-0.5c0.4-0.1,0.6-0.7,1.1-0.3c0.9-1.7-0.7-3.3-0.7-5.1c-0.2-0.3-0.4-0.2-0.7-0.3
							c0.9-1.2-0.3-2.5,0.1-3.7c-0.4,0.3-1.7,0-1.7-0.7c-0.9-0.8,1.2-0.3,1.8-1c-0.4-0.3-0.5-1-0.4-1.2l0.2,0
							c-0.4-0.4-0.7-1.1-0.2-1.6l0.1,0.1c0.1-0.4,0.7-0.8,0.7-1.2c-0.8-0.3-0.2-1.2-0.9-1.6c0.1,0,0.1,0.1,0.3,0l-0.7-0.1l0.5-0.8
							c0.2,0.2,0.5,0.3,0.7,0.6c0.7-0.8-0.6-0.4-0.9-0.9c-0.4-0.7,0.3-0.5,0.7-0.8c0.3,0.3-0.3,0.4-0.2,0.6c0.5,0.5,0.3-0.3,0.7-0.2
							c0.1-0.1-0.8-0.4-0.5-0.8c0.1-0.4,0.2-1.3,0.9-1c-0.3-0.4-0.1-0.8-0.4-1.1c-0.2,0.3-0.6,0.8-1.1,0.7c0-0.3,0-0.9,0.3-0.9
							l0.1,0.3c-0.1-0.3,0.4-1.1-0.5-0.8l1.1-0.3c-0.5-0.4-0.2-1-0.2-1.5c0.7,0.2,1.4,0.9,1.9,0.1l-0.5-1c0.1-0.4,0.3-0.5,0.7-0.2
							c1-1.1-1.4-2.2-0.2-3c0.6,0.9,0.9,0.5,1.3,0.2c-0.1-0.1-0.4-0.3-0.3-0.5c-0.4-0.1,0.4,0.5-0.3,0.6c-0.6-0.1-0.1-0.6-0.2-0.9
							c2.2,0.1,2.1-2.7,3.8-3.6c-1-0.5,0.1-0.8,0-1.3c0.9,0.8,0.4-0.8,1.3-0.7l-1.1-0.5c1.1-0.3-0.3-2.4,1.2-2
							c0.6-0.2,0.5,0.7,0.5,1c1.4,0.2,0.6-2.2,2.1-1.7c-0.3-0.4-1-0.8-0.8-1.5c0.8,0,1.9-0.3,2-0.1c0.2-0.5,0-0.9,0.6-0.9
							c0.1,0.3,0,0.4,0,0.6c0.7-0.3,1-1,1.3-1.7c0.8,0.5,1.7-0.7,2.6-0.8c-0.1-1.2,1.5-0.3,0.8-1.5c0.1,0.1,0.2,0.2,0.3,0.3
							c0.1-0.5-0.1-1.4,0.3-1.7l0.3,0.9c0.4,1.1,1.2-0.4,1.5,0.1c-0.6-0.5,0.4-0.2,0.2-0.9l0.3-0.4c0.7-0.5-0.1-0.5,0.8-0.9
							c0.5-0.2,0.6,0.9,0.3,0.9c0.6,0.3,0.9-0.1,1.3-0.5c-0.2,0.1-0.3,0-0.2-0.2c0.1,0.1,0.1,0.1,0.2,0.2c0.1-0.1,0.3-0.2,0.5-0.3
							c0.2-0.1,0.4-0.3,0.6-0.4c0.1-0.1,0.2-0.2,0.3-0.2c0.3-0.1,0.4-0.2,0.1,0.1l-0.1-0.1l-0.3,0.2c-0.2,0.2-0.3,0.5-0.4,0.6
							c0.2,0,0.3-0.1,0.4,0l0.1,0.7c0.3-0.1,1-1.1,0.9-1.4c1.4,0.3,3.4-0.8,4.3-1.2l0.2-0.2l-0.2,0.2c-0.2,0.2-0.1,0.4,0,0.2
							c0.4-0.2,0.9-0.9,1-0.4c0.4-0.3,0.5,0.5,1.2,0.4c0,0.2,0.1-0.7-0.1-0.6c1.2,0.9,2.7-0.7,4.1,0l0.1,0l-0.1,0
							c-0.1,0.1-0.3,0.5-0.4,0.7c1.1-0.4,2.1-0.5,3.2-1.2c-0.1,0.3-0.2,0.6-0.4,0.8c0.7,0.1,1.6,0,2.1-0.6c-0.5-0.4-0.1,0.4-0.5,0.3
							c-0.4-0.7,0.7-1.3,1.1-1l0,0.2c0.8,0.2,0.9-0.2,1.7,0c0.4,0.5-0.4,0.1-0.4,0.6c-0.1,1.2,1.5,1.1,1.6,1.3
							c0.2-0.2,0.6-0.3,0.6-0.6c0.7-0.1,0,0.7,0.4,0.8c0.8-0.5,1.6-1,2.5-1.4c-0.5,0,0.1,1.2-0.7,1.3c1.2,0.3,2.5-0.6,3.5-0.7
							c0.3,0.4,1.6,0.6,2,0.8c-0.1,0.6-0.3-0.2-0.7,0.1l0.2,0.9c-0.8-0.4-0.5,1-1.1,1.1c0.8-0.1,1.8,1.3,2.4,2.1
							c0.3-1.5,1.5,0.4,2.2-0.5c1.1,0.7-0.2,1.1-0.1,1.6c1.1,0.6,1.7,1.7,2.5,2.5c0,0-0.1,0.1-0.2,0.1c0.8,0.7,1.4,2.3,2.9,2.7
							c-0.2,0.1-0.4,0.3-0.7,0.1c0.1,1.2,1.5-0.5,1.3,1l-0.6,0c0.8,0.5,0.1,1.6,1.3,2.2c-0.3,0.1-0.5,0-0.7-0.1
							c0.6,0.7,0.7,1.6,1.7,2.2c-0.3,0.2-0.7,0.2-1-0.1c-0.2,0.9,1.2,0.6,1,1.5c0,0.2-0.4,0.7-0.5,0.6c0.6,0.3,0.8,1.5,1,1.9
							c-0.4,0.2-0.5,0.5-0.8,1c0.4,4.2-0.3,8.3-0.9,12.6c-1.4,0.2-0.3-1.2-1.3-1c0.9,0.3,0,0.7-0.1,2l-0.2,0c0,0.6-0.8,0.5-0.7,1.2
							l0.2,0.1c0.3,0.9-1.8,0.5-0.9,1.4l-0.9,0c0.6,1.2-0.8,0.6-0.5,1.7l-0.1-0.2c-1,0.4-0.4,2.4-1.4,2c-0.5,0.7-1,1.6-0.6,2.3
							c-0.4-0.1-0.6-0.6-0.7-1c-2.2,2.4-5.6,3.7-8.2,5.5c-0.2-0.2,0-0.3,0-0.6c-1.8,1.4-3.7-0.7-5.2,1.1l-0.7,0.7
							c-0.4-0.4-0.3-1-0.5-1.3c-0.5,0.5-1.7-0.3-2.2,0.3c-0.1-0.4,0.2-0.4,0.3-0.6c-0.8-0.4-2.2,0.2-2.9-0.5l0.4-0.2
							c-3.6-3.6-4.8-8.2-6.7-11.5c-0.3-1,1.1-0.4,1-0.8c-1.3-4,2.9-6.8,3.6-10.4c1.6-2.6-5.4-2.1-5.6-1.8
							C968,168.5,968.3,168.8,968,177.7z"/>
					</g>
				</g>
				<g>
					<g>
						<path d="M967.8,139.7c0,0.1,0,0.2,0.1,0.2l0.1,0c0.1-0.1,0.3-0.4,0.4-0.6C968.2,139.4,968,139.6,967.8,139.7z"/>
					</g>
				</g>
				<g>
					<g>
						<path d="M967.8,139.7l-0.4,0.3c0.1,0,0.3,0,0.5-0.1C967.8,139.9,967.8,139.8,967.8,139.7z"/>
					</g>
				</g>
				<g>
					<g>
						<path d="M947.9,143.2L947.9,143.2l0.2-0.4C948,142.8,948,142.9,947.9,143.2z"/>
					</g>
				</g>
				<g>
					<g>
						<polygon points="967.3,140.1 967.4,140 967.3,140 						"/>
					</g>
				</g>
				<g>
					<g>
						<path d="M995.8,206.1c-0.1-0.1-0.2,0-0.3,0l0.1,0.5C995.7,206.4,995.6,206.1,995.8,206.1z"/>
					</g>
				</g>
				<g>
					<g>
						<path d="M995.7,206.6L995.7,206.6l-0.1-0.5c-0.1,0.1-0.2,0.2-0.3,0.3C995.4,206.5,995.7,206.8,995.7,206.6z"/>
					</g>
				</g>
				<g>
					<g>
						<path d="M991.1,207.2c0-0.4,0.9-1,1.4-1.2L991.1,207.2z"/>
					</g>
				</g>
				<g>
					<g>
						<path d="M986.8,205.9c-0.4-0.4-0.3-0.6,0.2-0.6C987,205.5,986.8,205.7,986.8,205.9z"/>
					</g>
				</g>
				<g>
					<g>
						<path d="M986.6,207c-0.3,0-0.5-0.2-0.7-0.5C985.9,206.9,986.6,206.2,986.6,207z"/>
					</g>
				</g>
				<g>
					<g>
						<path d="M977.8,205.8c-0.2,0-0.7,0.4-0.8-0.1C977.1,206,978,205.1,977.8,205.8z"/>
					</g>
				</g>
				<g>
					<g>
						<path d="M973.7,206c-0.1,0-0.2-0.1-0.3,0c-0.2-0.3,0.1-0.5,0.3-0.5L973.7,206z"/>
					</g>
				</g>
				<g>
					<g>
						<polygon points="952.8,150.5 952.7,151 952.4,150.7 						"/>
					</g>
				</g>
				<g>
					<g>
						<path d="M981.7,138.7c0.5-0.2,0.2,0.5,0.3,0.5C981.6,139.3,982.2,138.7,981.7,138.7z"/>
					</g>
				</g>
				<g>
					<g>
						<polygon points="998.6,143.8 998.5,143.7 999.2,143.1 						"/>
					</g>
				</g>
			</g>
			<g>
				<g>
					<g>
						<path d="M894.6,204c1.8,1.6,3.9,3.2,6.9,3c1.4,0.4-2.2,0.6,1.3,0.9c3.1-0.9-1.9-0.4-6.6-3.5c-0.2-0.2-0.2-0.2-0.3-0.3
							C896.1,204.5,895.8,204.7,894.6,204z"/>
					</g>
				</g>
				<g>
					<g>
						<path d="M895.9,204.1l-0.1-0.3C895.7,203.8,895.8,203.9,895.9,204.1z"/>
					</g>
				</g>
				<g>
					<g>
						<path d="M868.5,192.6c-0.1,0.4-0.3,0.9-0.5,2.1C868.2,193.8,868.4,193.2,868.5,192.6z"/>
					</g>
				</g>
				<g>
					<g>
						<path d="M772.5,5.5l0.7,0.1C773,5.5,772.8,5.5,772.5,5.5z"/>
					</g>
				</g>
				<g>
					<g>
						<path d="M891.6,201.2c1.2,1.7,2.2,2.4,3,2.8C893.6,203.2,892.8,202.3,891.6,201.2z"/>
					</g>
				</g>
				<g>
					<g>
						<path d="M704.6,5.5l0.7-0.1C705.3,5.2,705,5.3,704.6,5.5z"/>
					</g>
				</g>
				<g>
					<g>
						<path d="M767,5.8c-0.3,0-0.5-0.1-0.7-0.1C764.7,5.8,765.4,5.8,767,5.8z"/>
					</g>
				</g>
				<g>
					<g>
						<path d="M737.7,5.1c-0.6,0-1.1,0.1-1.5,0.1C736.8,5.2,737.3,5.1,737.7,5.1z"/>
					</g>
				</g>
				<g>
					<g>
						<path d="M702.4,6.3l-0.4,0L702.4,6.3z"/>
					</g>
				</g>
				<g>
					<g>
						<path d="M1033.8,158.2c0,0.2,0.1,0.2,0.1,0.3c0-0.8-0.1-1.6-0.1-2.5L1033.8,158.2z"/>
					</g>
				</g>
				<g>
					<g>
						<path d="M208.7,90.9c10.4,3.5,24.2,7.3,33.9,10.1c20.7,5.1,41.9,8.7,63.7,9.2c21.8,0.8,43.6-2.9,64.5-8
							c-2.3,0.2-0.1-0.9,2.1-1.5l0.6,0.2l3.2-1.4c3.1-0.8,2,0.3-0.6,1.1c16.8-3.9,31.5-8.2,47.5-12.8c0.8-1.3,8.3-2.5,8.5-3.7
							c0.8-0.1,0.1,0.2-0.3,0.5c10.8-4,11.6-4.2,22-6.3c42.7-13.1,83.7-26.5,125.8-39.3c21.2-6.4,42.3-12.6,63.7-17.4
							c21.1-4.3,43.6-6.5,66.1-7.8c6.9-1.9,16.4-1.4,24.6-2.9l-0.5,0.5c7-0.6,8.8,0.1,17.7,0.8c0.1-0.6,3.4,0,2.2-1
							c3.1-0.7,5.5,1.5,10,1.2c0.1,0.3-0.1-0.5,0.8-0.2c11.5-0.6-2.2,0.3,12.3,2.1c20.2,0.9,41.1,2.3,60.3,5.9
							c-1.2-0.1-1.7-1,0.3-0.7c1.6,1.7,6.6,0.7,9.9,1.8c-0.3,0.3-2,0.1-2.9,0c8.6,2.1,16,2.6,24.1,5.1c7.9,1.1,16.5,4.6,21.8,5.3
							c-1.4,0.2,3.3,1.4,4.8,2.1c6.1-0.2,14.6,5.1,21.7,6.4l-0.3,0.2c20.4,6.9,41.1,18,60.8,28.9c10.9,6.4,21.5,15.7,31.4,24.7
							c1.9,1.6,0.8-0.1,2.4,1.2c2.3,2.5-0.4,0.3,0.3,1.4c4.9,4.6,9.7,11.8,13,19.2c0.7,0.7,1.7,2.8,1.8,1.9
							c2.7,8.7,7.4,20.5,7.3,30.2c1.2-3.5,1.4,5.5,1.6,8.8c0,1.9-0.5,2.1-0.8,1.5c0.1,7-0.1,11-2,19.1c-0.6,3.8,0,5.1-1.5,9.6
							c-1.9,2.5-3.2,9.2-5.7,13.1c1.4-0.6-0.6,5-3.6,8.7l-0.3-1.9c-6.8,13.2-24,26.3-39.6,33.3l-1.4-0.2c-16.3,6.3-35,5.5-52.1,5.1
							c-4.6-0.9-11.8-2.7-16.2-4.1c-6.1-1.3-8.1-2.3-12.3-3.3c-2.1-1-3-2.3-3.6-3c-6.6-4.3-10.5-10.4-14.5-15l0.4-0.5
							c-3.4-4.6-7.2-13.9-5.7-20.2c-0.6-1.9,1.2-8.5-0.3-5.8c0.8-2.7,1.6-1.3,2.1-4.1c-0.2,0.9-0.1,1.8-0.2,2.7
							c2.9-6.9,8.2-12.2,14.5-14.2c6-1.9,14.3-1,18.1,4.8c0.5,2,1.9,5.1,1.8,8.8c0.1,3.8-2.2,7.4-6.1,8.2c-0.4,0.1-2.4,0.8-4.4,0.4
							c-2-0.3-3.5-1.7-3.8-2c-2.1-2.8-2.9-0.7-3.8,0c2.1,3.7-1.9,0.3,2.4,4.3c-0.8-0.1-0.4,0.8-0.1,1.5c0.7,1.4,11.7,2.4,6.7,1
							c4.3,0.2,8.9-1.7,11.7-5.6c2.8-4.1,2.9-8.8,1.9-12.9c0.5,2.7,1.3,3.5,1.4,1c-1.3-3.8-4.3-10.8-11.5-13.9
							c-0.2,0.7,1.9,1.8,0.9,2.1c-0.9-0.5-2.5-0.5-4-1.1c-0.7-0.9,0-2.6-6.3-2.9c1.9-1.9,10.5,2.1,8,0.1c1.2-0.2,5.7,0.9,8.6,4.2
							c2.8,3,4.3,6.8,4.3,8.3c3,5.6-1.4-4.7-0.3-4c-2.7-4.7-6.5-8.1-14.3-9.9c-0.2,0.5,2.4,1.1-1.3,0.8c-7.1,0.1-9.1-0.8-11-0.5
							c1-0.5,2.5-0.6,3.6-0.9c-5.1,0.3-6.6,1.8-11.1,4.2c-2.2-0.8,7.3-4.1,9.3-4.7c-1.4-0.2-2.7-0.1-4.2,0c-7.9,3.3-2,1.6-9.1,6
							l0.4-1.1c-1.3,1.2-2.6,2.4-3.6,3.8c0.4,0.5,1.6,0.1,4.8-2.8c-1.2,3-3.2,2.5-6.9,8.1c-0.6,2.2,1.6-2.3,2.3-1.9
							c0.9,0-1.7,3.4-3,6.4c-2,4.8-1.9,2.1-3.1,4c0-1.1,1.8-4.9,2-4.3c2.5-6.3-3,1.9-1.2-2.6c-3,4.8-1.7,5-2.4,7.9
							c0.6-1.6,0.6,0.7,1.2-0.3c0.4,9-3.1,5.6-2,14.5c0.9-1.8,4.3,10.1,4.4,4c0.7,1.8,1.7,3.9,2.3,5.7c-1.7-1.6,0.7,3.5-1.6,0.4
							l1.1,2.7c-0.9-1.2-1.9-2.4-2.7-3.7c0.4,3.3,2.4,8.7,3.2,10.4c2.8,3.5-0.1-1.6,3.1,2.4c-1.4-1.2,0,1.7,1.6,3.4
							c-2.6-3.7,0.9-0.8,3,1c3.1,3.2,5.4,5.9,4.7,5.7c-1.3-0.6-2.6-1.4-3.8-2.2c3,1.7,0.8,1.3,3.7,3.1c1.1,0.2,3.2,0.7,4.5,0.7
							c2.4,1.3,3.8,2.8,4.7,3.2c-1.4-0.5-2.7-1.1-4.1-1.7c5.1,2.7,0.3,2,5.8,4.4l1.7,0c1,0.6,1.4,1.1,0.3,0.9c1-0.1,4.1,1.3,5.5,1.6
							l0.2,0.6c2.4,0.5,5.6,0.4,8.2,2c-1.9-1.7-2.9-0.7-6.7-2.5c-2.2-1.6,4.1,0.5,5.1,0.6c-0.6,1.2,5.9,1.7,8.7,2.1
							c1.5,0.7,3,1.2,3.9,1.6l1.2-0.7c0.8,1.8,5.7,0.3,8.8,1c-1.7,0.4-1.5,1.1,0.8,1.4c-3-1.4,5.1-1.2,4.2-2.1
							c5.7,0.6-1.4,1.5,0.3,2.4c2.9-0.8,6.4,0.7,8.3-0.5c-4.2-0.3,0.7-0.8,1.5-1.3c5.2-0.1-0.8,0.6,2.9,0.8c2.2-0.3,4.9-1.4,1.6-1.5
							c3,0.1,6.3-1.3,9.8-1c1.5,0.6-6.3,1-4.3,1.3c7.2-0.6,3.4-2.2,10-3.4c-2.9,0-0.4-1.6,2.6-2.8c7.2-1.3-3,1.2-0.1,1.5l2.8-0.8
							c4.4,0.4-8.1,4.1-4.1,4.3l3.1-1.2c-0.6,0.5-1.5,1.4-0.1,1.5c0.7-1,7.5-2.3,8-2.7c0.4-0.9-2.5,1-2.2,0.3c3.3-1.2,4.3-3,9.4-4.6
							c-2.5,1.8,1.5,0.5,0.5,1.4c2.5-0.8,0.4-1.2,4-2.4l-0.2,0.6c12.9-6,26.5-18.4,31.6-29.5c1.9-1.3,4.6-5,8.2-11
							c-1.7,2.6-0.8-0.3-0.1-1.8c0.8-0.9,1.4-1.8,2.2-2.7c2.2-3.6,3.1-9,3.6-12.7c0.3-0.6,0.6-0.7,0.9-0.9c1.5-3.4,0.4-3.8,0.5-5.2
							l1.1-2.2l-0.5-0.6c0.2-3.6,1-8.3,1.9-7.7c-0.1-1.4-0.1-2.8-0.6-1.1c1.1-3.5,1.4-13.5,0.4-19.9c-0.1,3.1-0.4,2.8-1,3.1
							c-1.1-0.8,0.1-1.5-0.7-4c0.4-0.1,0.5-3,1.1,0c0.7-8.7-2.7-20.6-6.6-30.8c-1-2-0.9-1.3-1.6-2.2c-1.7-6.8-7-13.8-11.4-19.7
							c0.7,1.6-1.8,0.5-4.4-2.5c-3.5-2.8-0.2-2.2-2.6-5.5c-1.7-1.1-4.5-3.7-5.6-4.9l0.2,0c-2.2-1.2-5.3-3.5-7.2-5.7l0.4,0.3
							c-1.7-1.7-3.7-3.6-5.7-5.1c-1.4,0-6-3.9-7.6-4c-0.2-0.2,0.2,0-0.2-0.6l-0.6,0.5l-3.9-3c1,0.4,1.4,0.2,2.7,0.8
							c-4.1-3.3-1.8-0.5-4.3-1.6c-3.4-1.4-2.8-1.9-4.2-3.1c1.5,0.5,2.2,1.5,3,1.9c2.1,0.6-1.8-1.3-1.6-1.7c-0.7-0.4-1.4,0.1-3.6-1.4
							c-1.9-1.3-6.8-3.7-5.8-4c-1.9-0.6-3.9-1.8-5.3-2.2c1.6,1,4.4,2.9,4.6,3.5c-1.5-0.7-4.5-2.2-4.8-2.7l1.3,0.5
							c-1.3-0.5-5.5-3-3.6-1.2l-2.6-2.5c-1.4-0.1-4.5-1.8-7.2-3c0.2-0.8,2.7-0.5-2.1-3.1c-1.5-0.5-3-0.9-4.6-1.3
							c-2.3-1-2.8-1.4-2.2-1.7c-7.5-3.9-8.7-1.6-14.6-4.7c2.9,0.2,0.8-0.8-1.9-2.1c-0.2,0.1-0.5,0.3-1.7-0.1
							c0.6,0.7,1.9,0.1,3.7,1.5c0.4,0.8-2.6-0.7-4-1c-4.7-4-18.2-7.2-27.1-10.7c0.3,1.3-4.2-0.9-6.2-1c0.9-1-5.2-1.2-7.5-2.5
							l1.1,1.5c-5.5-2.1-9.6-0.6-12.7-2.8c-3.1-1.1,1.3-0.6,2.6-0.4c-4.1-2.3-12-1.7-15.2-3.7c-0.5,0.4,0.7,1.4-3.2,1
							c-3-1.1-9-2.9-8.4-2.9c-2.6-0.2-3.3,0-6.1-0.9c0.3-0.3,1.5-0.1,2.4-0.1c-4.4-1.1-8-1.1-12-1.3c-2.3-1.2-10.2-2-15.2-3
							c-3,0.7-8.3-1.5-8.8-0.1c0.1-0.1-0.5-0.4-0.8-0.5c-2,0.2-3.6,0.9-6,0.7l0.9-0.8c0.7-1.1-6.9-0.9-7.6-1.5c2,1-2.8-0.3-3,0.4
							l-2.9,0c-4.6-0.2-0.6,0.3-6.2,0.1c-3.2-0.2-1-1.1,0.1-0.9c-2.7-0.7-5.5-0.6-8.3-0.5c1,0.1,1.5,0.2,0.5,0.3
							c-0.1-0.1-0.4-0.2-0.8-0.3c-1,0-2,0-3-0.1c-1.4,0-2.9,0-4.2-0.1c-0.7,0.1-1.4,0.1-2,0c-1.6,0-2.4,0-0.7-0.1
							c0.2,0.1,0.4,0.1,0.7,0.1c0.6,0,1.2,0,2,0c1.3-0.1,2.6-0.2,3.5-0.2c-1-0.1-1.9-0.2-2.5-0.3l0.8-0.7c-2-0.2-7.5,0.5-7.3,0.8
							c-7.8-1-20.6-0.7-25.8-0.2c-0.4,0.1-0.9,0.1-1.5,0.1c0.4,0,0.9-0.1,1.5-0.1c1-0.2,1.2-0.4,0.1-0.2c-2.7,0.1-5.7,0.7-6,0.3
							c-2.6,0.3-2.4-0.4-6.4-0.4c-0.1-0.2-0.6,0.7,0.5,0.6c-6.8-0.9-15.4,1-23.6,0.9l-0.4,0l0.4,0c0.6-0.1,1.5-0.5,2.1-0.8
							c-6.2,0.7-12.1,1.3-17.5,2.8c0.6-0.4,0.4-0.7,1.8-1c-4.3,0.4-9.3,1-11.2,1.9c3,0.1,0.2-0.4,2.2-0.6c3.1,0.4-2.3,1.5-5.1,1.6
							l-0.1-0.1c-4.3,0.5-4.4,0.9-8.7,1.4c-2.6-0.1,2.2-0.5,1.1-0.8c-1.1-1-9.9,0.5-10.8,0.5c-1,0.4-2.4,0.8-2.2,1.1
							c-3.3,0.8-1.6-0.4-3.9,0c-3.1,1.2-6.2,2.7-9.2,4c2.2-0.6-3.1-0.5,0.1-1.5c-6.8,1.6-10.4,3.9-14.4,5.6c-2.1,0.2-8.5,2.3-10.8,3
							c-1.2-0.3,1.9-0.5,2.3-1.1l-3.6,0.2c4.5-1.3-0.8-0.9,1.5-2c-3.5,1.4-12.2,3.1-17.6,4.5c4.1,0.2-7,2.7-6.5,3.7
							c-6.2,2-3.4,0-5.9,0.4c-6.4,2.4-12.7,3.9-18.6,5.9c0,0-0.1-0.1,0.2-0.3c-5.3,2-14.2,4.4-19.3,7.2c0.2-0.3-0.4-0.4,1-1
							c-5.9,1.4-0.6,1.8-7.6,3.2l1.4-1c-4,1.9-8.3,2.1-12.7,4.4c-0.3-0.2,0.8-0.7,1.4-1.1c-4.3,1.6-9.2,3.1-12.7,5
							c-0.7-0.2-0.2-0.7,1.4-1.5c-4.4,0.9-4.4,2.5-8.4,3.3c-1.2,0.3-3.4,0.5-2.7,0.2c-1.8,1.1-7.8,3-9.9,3.8
							c-0.7-0.2-2.3,0.2-4.9,0.6c-21.7,6.7-43.7,14.2-65,21.8c-4,0,4.8-2.3,2.3-2.3c0.5,0.9-3.5,1.4-10,3.7l-0.3-0.1
							c-2.7,1.1-4.5,0.9-7.4,2.1l0.2,0.2c-3,1.6-7.5,0.8-8.8,2.5l-2.7,0c-2.9,2-5.1,1.1-8.8,3l0.4-0.3c-5.4,0.8-10.7,4-13,3.6
							c-4.5,1.3-9.7,2.6-10.3,3.7c-1.1-0.1-0.6-0.8,0-1.2c-16.9,4.3-36.1,7.7-51.6,9.6c-0.8-0.2,0.2-0.4,0.6-0.6
							c-9.7,1.6-19.9-0.8-27.1,0.8l-2.6,0.7c-2.3-0.5-2-1.1-3.8-1.5c-2,0.4-8.9-0.8-10.1-0.2c-1-0.5,0.5-0.4,0.5-0.6
							c-4.4-0.7-9.7-0.3-13.9-1.3l1.4-0.1c-21.8-5-48.6-14.9-66.2-19.7c-4.7-1.5-1.7-1.8-3.7-2.5c-18.1-5.3-37.8-16.8-54.7-20.7
							c-12.7-4.2,8.4,8.9,8.3,9C178.7,78.7,178.9,78.5,208.7,90.9z"/>
					</g>
				</g>
				<g>
					<g>
						<path d="M773.2,5.8c0.1-0.1,0.1-0.2,0-0.2l-0.7-0.1c-0.9,0-2.2,0.2-3.5,0.2C770.3,5.7,771.8,5.8,773.2,5.8z"/>
					</g>
				</g>
				<g>
					<g>
						<path d="M773.2,5.8c1.1,0,2.2,0,2.9,0.1c-0.7-0.1-1.8-0.2-2.9-0.3C773.3,5.6,773.3,5.7,773.2,5.8z"/>
					</g>
				</g>
				<g>
					<g>
						<path d="M868.1,26.6l-0.1,0l-2-0.3C866.8,26.5,867.2,26.5,868.1,26.6z"/>
					</g>
				</g>
				<g>
					<g>
						<polygon points="776.5,5.9 776.1,5.9 776.2,5.9 						"/>
					</g>
				</g>
				<g>
					<g>
						<path d="M890.5,196.8c0.1,0.7,0.3,1.4,0.7,2.1l0.5-0.2C891.2,198.2,891,198.4,890.5,196.8z"/>
					</g>
				</g>
				<g>
					<g>
						<path d="M891.7,198.8L891.7,198.8l-0.5,0.1c0.4,0.7,1,1.5,1.5,2.2C892.4,200.7,891.8,198.9,891.7,198.8z"/>
					</g>
				</g>
				<g>
					<g>
						<path d="M917.6,193.8c0.8,0.3-1.3,8.5-6,10.8C915.1,202.1,917.5,197.5,917.6,193.8z"/>
					</g>
				</g>
				<g>
					<g>
						<path d="M903.5,169.5c-2.5-0.8-1.7-1.1,1.7-0.1C905.3,169.7,904.2,169.5,903.5,169.5z"/>
					</g>
				</g>
				<g>
					<g>
						<path d="M901.2,170.1c-2.4-0.5-3.6-0.6-4.8-0.9C896.5,169.4,902.2,169.3,901.2,170.1z"/>
					</g>
				</g>
				<g>
					<g>
						<path d="M868.1,210.8c0.3,1.3,1.5,4.1,1.5,5.5C869.3,214.8,867.1,209.9,868.1,210.8z"/>
					</g>
				</g>
				<g>
					<g>
						<path d="M881.4,233.9c0.6,0.6,0.8,1,1.6,1.6c1,1.2-0.5,0.4-1.4-0.6L881.4,233.9z"/>
					</g>
				</g>
				<g>
					<g>
						<polygon points="881.6,21.1 884.2,21.5 883.7,21.8 						"/>
					</g>
				</g>
				<g>
					<g>
						<path d="M691.2,6.1c-2.6,0.5-1.8-0.3-2.3-0.3C691.3,5.6,688.1,6.5,691.2,6.1z"/>
					</g>
				</g>
				<g>
					<g>
						<polygon points="590.4,27.6 591.2,27.4 591.2,28.4 						"/>
					</g>
				</g>
			</g>
			<g>
				<g>
					<g>
						<path d="M378.4,40.8c0.8,0.3,1.4,1.2,2.7,0.6c0.7,0.2-0.9,0.8,0.7,0.8c1.3-0.8-1.2-1-2.8-1.8c-0.1-0.1-0.1-0.1-0.1-0.2
							C379,40.5,378.9,40.7,378.4,40.8z"/>
					</g>
				</g>
				<g>
					<g>
						<path d="M379,40.2l0-0.2C378.9,40,378.9,40.1,379,40.2z"/>
					</g>
				</g>
				<g>
					<g>
						<path d="M375.6,19.5c-0.1,0-0.3,0-0.7,0.1C375.2,19.6,375.4,19.6,375.6,19.5z"/>
					</g>
				</g>
				<g>
					<g>
						<path d="M485.6,43.6l-0.2,0C485.5,43.7,485.6,43.7,485.6,43.6z"/>
					</g>
				</g>
				<g>
					<g>
						<path d="M377.2,40.7c0.6,0.2,0.9,0.2,1.2,0.1C378,40.6,377.7,40.5,377.2,40.7z"/>
					</g>
				</g>
				<g>
					<g>
						<path d="M501.4,40.4l-0.2,0.1C501.2,40.7,501.3,40.6,501.4,40.4z"/>
					</g>
				</g>
				<g>
					<g>
						<path d="M486.8,42.9l0.2,0.1C487.3,42.7,487.1,42.7,486.8,42.9z"/>
					</g>
				</g>
				<g>
					<g>
						<path d="M493.6,41.5l0.3-0.2L493.6,41.5z"/>
					</g>
				</g>
				<g>
					<g>
						<path d="M501.7,39.6l0.1,0L501.7,39.6z"/>
					</g>
				</g>
				<g>
					<g>
						<polygon points="406.6,46.2 406.5,46.3 407.1,46.3 						"/>
					</g>
				</g>
				<g>
					<g>
						<path d="M619.3,12.4c-2.5,0.5-5.9,1.2-8.3,1.1c-9.9,1.4-20.1,0.5-30.1,2.8c0.6,0.3,0.1,0.8-0.4,1.1l-0.2-0.3l-0.7,0.8
							c-0.7,0.2-0.5-0.7,0.1-0.9c-4,0.6-7.6,1.3-11.5,1.7c-0.1,1-2,0.3-2,1.4c-0.2-0.2,0-0.2,0-0.5c-2.6,0.9-2.8,1-5.5,0.1
							c-10.7,0.8-20.7,3.2-31.1,4.8c-10.4,2.1-20.6,5.1-31.1,7.7c-1.3,1.9-3.7,1.6-5.3,3.4l0-0.5c-1.5,1-2.1,0.3-4.3,0.2
							c0.1,0.5-0.8,0.3-0.3,1.1c-0.6,0.9-1.6-1-2.5-0.4c-0.1-0.3,0.1,0.5-0.1,0.3c-2.5,1.6,0.4-0.6-3.2-0.8c-4.7,1.3-9.4,3.1-14,3.4
							c0.3-0.1,0.5,0.6,0.1,0.7c-0.7-1.4-1.5,0.7-2.4,0.2c0-0.3,0.4-0.5,0.6-0.6c-2.2-0.2-3.8,1-5.8,0.6c-1.8,0.9-4.1,0-5.3,1
							c0.2-0.6-0.9-0.3-1.4-0.5c-1.1,2-3.7,0-5.3,1.4l0-0.3c-5.1,0.9-10.6,1.3-15.9,2.6c-3,0.5-6.5-0.7-9.8,0.4
							c-0.6,0.3-0.1,0.6-0.5,0.8c-0.8,0,0-0.5-0.4-0.7c-1.6,0.9-3.8,0.2-5.8,0.4c-0.2,0.3-0.8,0.4-0.5,0.8c-2.3-1-5.3,0.8-7.6,0
							c0.9,1.5-1.3,0.9-2.1,1.3c-0.5,0-0.5-0.5-0.4-0.8c-1.7,0.2-2.6,0.3-4.6-0.2c-0.9,0.2-1.2,1-2.3,0.7c-0.7-1.1-2.3-0.2-3.4-0.6
							c0.2,0.9-1.2,1.6-2.3,1.1l0.5-1.2c-3.6,0.5-8-1.7-12.3-1.3l-0.1-0.8c-4.3-0.3-6.5-2.5-9.2-4.2c-0.1-0.9-0.3-2.3-0.5-3.1
							c-0.8-1-0.8-1.5-1.8-2.3c-0.1-0.5,0.6-0.8,0.8-0.9c0.4-1.6,1.7-2.3,1.2-3.7l0.6,0.3c-0.2-1.1,0.7-2.7,2-2.2
							c0.1-0.7,1.5-0.9,0.9-1.6c0.6-0.1,0.3,1.1,0.9,0.5l-0.6,0.9c3,0.6,5.1,1.2,5.9,4c-0.9,0.6-0.4,2.8-1.4,2.6
							c0.1,0.1-0.5,0.4-1,0.4c-0.9,0.3-1.5,2-1.8,2.9c1,0.6-0.7,1.1,1,1.1c-0.3,0.4-0.2,0.9-0.1,1.3c0.2-0.1,4.3,0.1,2.4-0.9
							c3.4-0.1,5.4-3.6,5.4-5.9c0,0.8,0.6,1.3,1.2,0.6c-0.5-1.4-0.9-3.3-1.5-5.4c-0.7,0.3-0.5,0.9-1.3,1c-0.2-0.2-0.7-0.4-0.8-0.8
							c0.6-0.6,1.8-1.2,0.7-2.7c1.5-0.5,1.6,2.9,2.3,1.5c1.6,0.3,2.4,4.7,1.5,5.5c0.9,2.1,0.3-1.6,1.2-1.2c-0.2-2-0.9-2.8-2.3-5.3
							c-0.5,0.3-0.1,1-1.1,0.2c-2.1-1.2-1.3-2.7-1.7-3.3c0.4,0.1,0.8,0.5,1.1,0.6c-1-1.5-2-1.2-3.3-2c0.3-1.6,2.5,1.2,3.5,1.1
							c-0.1-0.6-0.2-1.1-0.4-1.7c-2.5-1.8-1.3,0.5-3.7-1.1l0.5-0.4c-0.6-0.2-1.2-0.2-1.7-0.2c-0.1,0.6-0.2,1.3,1.2,1.7
							c-1.4,0.9-1.2-0.2-3.1-0.4c-0.7,0.7,0.8,0.1,0.6,0.9c0,0.8-1.1,0.4-2,0.5c-1.5-0.1-0.7-0.9-1.3-1.5c0.3-0.1,1.6-0.1,1.4,0.3
							c2.2-0.6-0.7-1.8,0.9-2.2c-1.8-0.6-1.8,0.4-2.7,0.6c0.6,0.1-0.2,0.8,0.2,1.1c-2.6,2.5-2-1.7-5.2-0.1c0.9,0.9-2.3,3.7,0.2,3.9
							c-0.3,0.5-0.7,1.2-1.1,1.5c-0.2-1.1-1.3,0.3-1.1-1.2l-0.6,0.7c0-0.6,0.1-1.2,0.2-1.9c-1.3,0.3-3.1,1.6-3.7,2
							c-0.4,1.6,1,0,0.4,1.7c-0.2-0.7-1,0-1.3,0.8c0.9-1.3,1.2,0.5,1.2,1.3c-0.3,1.2-1.4,2.1-1.6,1.9l-0.5-1.5
							c0.4,1.2-0.5,0.4-0.4,1.5c0.5,0.4,1.2,1.1,1.9,1.5c0.1,0.8-0.6,1.3-0.4,1.6c-0.2-0.4-0.4-0.9-0.5-1.3c0.1,1.8-1.5,0.3-1.1,2.2
							l0.8,0.4c-0.1,0.4-0.4,0.6-0.7,0.2c0.5,0.3,0.6,1.3,0.8,1.7l-0.5,0.2c0.4,0.7,1.7,1.3,1,2.5c1-1-0.3-0.9,0-2.3
							c0.7-0.9,1,1,1.3,1.3c-1.3,0.3,0.4,1.8,0.7,2.6c-0.2,0.6-0.2,1.2-0.3,1.6l0.9-0.1c-1.3,1.1,1.2,1.4,1.5,2.5
							c-0.7-0.1-1.2,0.3-0.9,1.1c0.3-1.5,2.2,0.3,2.6-0.6c1,1.4-1.4,0.8-1.6,1.7c1.3-0.1,1.3,1.9,2.5,1.3c-0.8-1.1,0.6-0.5,1.1-0.8
							c1.2,1.1-0.5,0.3,0.2,1.3c0.7,0.2,1.8-0.3,1.2-1c0.6,0.6,2,0,2.5,1.1c0,0.9-1.7-0.5-1.5,0.2c1.8,1,1.7-1.1,3.4-0.8
							c-0.5-0.6,0.6-1.6,1.5-1.8c1.5,0.9-0.9,0.2-0.6,1.3l0.7,0.1c0.6,1.6-2.8,1.3-2.2,2.7l1-0.1c-0.3,0.3-0.8,0.8-0.6,1.3
							c0.5-0.8,2,0.4,2.2,0.3c0.4-0.7-0.7,0-0.4-0.5c0.9,0.1,1.6-1.1,2.7-0.3c-0.8,0.3,0,1.1-0.4,1.4c0.5,0.5,0.4-0.8,1.2-0.2
							l-0.2,0.4c3.3,0.9,7.6,1.7,10.6,0c0.4,0.8,1.5,1.1,3.1,1.7c-0.7-0.3,0-0.8,0.4-0.9l0.7,0.9c0.9,0.6,2.3-0.2,3.2-0.7
							c0.2,0.2,0.2,0.4,0.2,0.7c0.8,0.6,0.9-0.5,1.2-0.7l0.6,0.6l0.1-0.6c0.9-0.4,2-0.2,1.9,0.8c0.3-0.2,0.7-0.4,0.2-0.7
							c0.9,0.6,3.2,0.6,4.7,0.1c-0.7-0.2-0.7-0.5-0.8-1.2c0.2-1.1,0.3,0.2,0.9-0.5c0,0.4,0.7,0.8,0,1.1c2.1,1.3,4.9,0,7.4,0.1
							c0.5-0.2,0.3-0.4,0.6-0.7c1.7,1,3.5-0.4,5.2-0.1c-0.4-0.4,0-1.7,0.9-1.8c0.9-1,0.5,1.2,1.5,1.6c0.4-0.5,1.3-0.7,1.6-0.6l0,0.2
							c0.5-0.5,1.4-0.9,2.1-0.5l-0.1,0.1c0.6,0,1.2,0.5,1.8,0.4c0.2-0.9,1.6-0.5,1.9-1.3c0.1,0.1,0,0.2,0.2,0.3l0-0.7l1.2,0.3
							c-0.2,0.3-0.2,0.6-0.5,0.8c1.3,0.3,0.3-0.7,0.9-1.1c0.8-0.6,0.8,0.1,1.3,0.3c-0.3,0.4-0.6-0.1-0.8,0.1
							c-0.4,0.6,0.5,0.2,0.6,0.6c0.2,0,0.2-0.9,0.8-0.8c0.6,0,1.8-0.3,1.7,0.4c0.4-0.5,1-0.4,1.3-0.8c-0.5-0.1-1.3-0.2-1.4-0.7
							c0.4-0.1,1.2-0.4,1.3-0.1l-0.3,0.2c0.3-0.2,1.5-0.1,0.8-0.8l1,0.9c0.2-0.6,1.1-0.7,1.7-0.9c0.1,0.8-0.3,1.7,1,1.7l1-0.9
							c0.6-0.2,0.7,0,0.7,0.5c2,0.2,1.7-2.4,3.4-1.9c-0.5,1,0,1,0.8,1.2c0-0.2,0-0.5,0.3-0.5c-0.3-0.4-0.3,0.7-0.9,0.1
							c-0.2-0.5,0.6-0.5,0.9-0.7c1.7,1.8,4.6-0.2,7,0.4c-0.3-1.1,0.9-0.5,1.3-1c0,1.2,1.2-0.4,1.9,0.2l-0.5-1.1
							c1.5,0.4,1.9-2.1,3-0.9c0.8,0.2-0.1,0.9-0.4,1.1c1.3,1.1,2.6-1.5,3.7-0.3c0-0.5-0.4-1.2,0.4-1.7c0.8,0.4,2.4,0.7,2.3,0.9
							c0.6-0.3,0.7-0.7,1.4-0.4c0,0.3-0.3,0.4-0.5,0.6c1.1,0.1,1.9-0.5,2.7-1.1c0.7,0.8,2.5,0,3.8,0.2c0.5-1.2,2,0.1,1.9-1.3
							c0,0.2,0.2,0.3,0.3,0.4c0.4-0.5,0.6-1.4,1.1-1.6l0,0.9c0.1,1.2,1.7-0.1,1.9,0.5c-0.6-0.7,0.6-0.1,0.6-0.8l0.6-0.4
							c1-0.4,0-0.5,1.3-0.9c0.7-0.2,0.5,1,0.2,0.9c0.7,0.3,1.3-0.1,1.9-0.4c-0.2,0.1-0.4,0-0.2-0.2c0,0.1,0.1,0.2,0.2,0.2
							c0.2-0.1,0.4-0.2,0.7-0.2l0.9-0.4c0.2-0.1,0.3-0.2,0.4-0.2c0.4-0.2,0.5-0.2,0.2,0.1l-0.2-0.1l-0.4,0.2
							c-0.3,0.2-0.5,0.5-0.7,0.6c0.2,0,0.4,0,0.6,0.1l0,0.7c0.5-0.1,1.6-1.1,1.5-1.4c1.9,0.2,4.8-0.9,5.9-1.5l0.3-0.2l-0.3,0.2
							c-0.2,0.2-0.2,0.4,0,0.2c0.6-0.3,1.2-1,1.3-0.6c0.5-0.4,0.7,0.4,1.6,0.2c0,0.1,0-0.7-0.3-0.6c1.8,0.7,3.4-1.4,5.5-1.1l0.1,0
							l-0.1,0c-0.1,0.1-0.3,0.5-0.4,0.8c1.4-0.7,2.7-1.2,3.8-2.4c-0.1,0.3,0,0.6-0.3,0.9c1-0.2,2.1-0.7,2.4-1.4
							c-0.8-0.2,0,0.4-0.4,0.5c-0.8-0.5,0.3-1.4,1-1.4l0.1,0.1c1-0.2,1-0.6,1.9-0.8c0.7,0.3-0.5,0.3-0.1,0.7
							c0.5,1.1,2.4,0.2,2.7,0.3c0.2-0.3,0.5-0.6,0.4-0.9c0.7-0.5,0.5,0.6,1,0.4l1.8-2.7c-0.5,0.3,0.9,0.9,0.2,1.5
							c1.6-0.5,2.2-2,3.1-2.9c0.5,0.1,2-0.7,2.5-0.8c0.4,0.5-0.5,0.1-0.5,0.5l1,0.5c-1.1,0.3,0.3,1-0.2,1.6c0.8-0.6,2.9-0.5,4.3-0.6
							c-1.1-1.1,1.6-1,1.4-2.1c1.5-0.5,0.9,0.8,1.6,0.9c1.5-0.8,3.1-0.7,4.5-1.1c0,0,0.1,0.2,0,0.2c1.3-0.6,3.5-0.6,4.6-1.9
							c0,0.2,0.1,0.5-0.2,0.7c1.5,0.2,0-1.5,1.8-1.1l-0.3,0.6c0.9-0.7,2.1,0.2,3.1-0.9c0.1,0.3-0.1,0.5-0.3,0.6c1-0.4,2.3-0.5,3-1.4
							c0.2,0.3,0.1,0.7-0.3,1c1.1,0.3,1-1.2,2-1c0.3,0,0.9,0.4,0.7,0.5c0.4-0.6,1.9-0.8,2.4-1.1c0.2,0.4,0.6,0.4,1.3,0.7
							c5.3-0.9,10.8-1.5,15.9-3.3c1.1,1-1.1,0.9-0.4,1.6c-0.2-1,0.9-0.4,2.4-1l0.1,0.1c0.7-0.3,1.1,0.3,1.8-0.1l-0.1-0.3
							c0.7-0.8,1.9,1,2.2-0.3l0.7,0.6c0.6-1.2,1.3,0.2,2.1-0.9l-0.1,0.2c1.4,0.3,2.5-1.6,3.1-0.8c1.1-0.3,2.3-0.7,2.4-1.6
							c0.3,0.3,0.2,0.9,0.1,1.2c4-1,8.7-1.4,12.2-3.1c0.2,0.2,0,0.3-0.1,0.6c2.2-1.3,4.8,0.5,6.3-1.7l0.5-0.9
							c0.6,0.3,0.6,0.9,1.1,1.1c0.4-0.6,2.1-0.4,2.2-1.2c0.3,0.3,0,0.5,0,0.7c1.1,0,2.1-1.3,3.2-1.2l-0.3,0.4
							c5.4,0.8,12.3,1.2,16.4-1.1c1.1-0.4,0.6,1,1.1,0.9c4.3-2,9.8-0.1,13.7-2.9c3.1-0.9-3.1-5.1-3.1-5.1
							C627,12.1,627.1,13,619.3,12.4z"/>
					</g>
				</g>
				<g>
					<g>
						<path d="M485.4,43.5c0,0.1,0,0.2,0,0.2l0.2,0c0.2-0.1,0.4-0.4,0.7-0.6L485.4,43.5z"/>
					</g>
				</g>
				<g>
					<g>
						<path d="M485.4,43.5c-0.2,0.1-0.5,0.2-0.7,0.2c0.2,0,0.4,0,0.7,0C485.4,43.6,485.4,43.6,485.4,43.5z"/>
					</g>
				</g>
				<g>
					<g>
						<path d="M461.3,39.8L461.3,39.8l0.5-0.2C461.6,39.6,461.5,39.7,461.3,39.8z"/>
					</g>
				</g>
				<g>
					<g>
						<polygon points="484.7,43.7 484.8,43.7 484.7,43.7 						"/>
					</g>
				</g>
				<g>
					<g>
						<path d="M376.3,39.5c0.1,0.2,0.3,0.3,0.6,0.3l0.2-0.4C376.8,39.5,376.7,39.7,376.3,39.5z"/>
					</g>
				</g>
				<g>
					<g>
						<path d="M377.1,39.4L377.1,39.4l-0.3,0.4c0.3,0,0.5,0,0.8,0.1C377.5,39.8,377.2,39.3,377.1,39.4z"/>
					</g>
				</g>
				<g>
					<g>
						<path d="M387.3,35.8c0.4,0.3-0.3,2.8-1.9,4C386.7,38.5,387.1,37.1,387.3,35.8z"/>
					</g>
				</g>
				<g>
					<g>
						<path d="M388.5,26.1c-0.2-1,0.2-0.9,0.8,0.3C389.1,26.5,388.8,26.2,388.5,26.1z"/>
					</g>
				</g>
				<g>
					<g>
						<path d="M387.2,26c-0.5-0.7-0.5-1.2-0.6-1.7C386.4,24.5,388,25.8,387.2,26z"/>
					</g>
				</g>
				<g>
					<g>
						<path d="M369,20.9c-0.5,0.4-1.2,1.4-1.9,1.3C367.7,22.1,369,20.1,369,20.9z"/>
					</g>
				</g>
				<g>
					<g>
						<path d="M363.8,29c-0.1,0.2-0.2,0.3-0.2,0.7c-0.3,0.4-0.5-0.2-0.5-0.6L363.8,29z"/>
					</g>
				</g>
				<g>
					<g>
						<polygon points="460,48.7 459.4,49 459.4,48.5 						"/>
					</g>
				</g>
				<g>
					<g>
						<path d="M504.5,39.9c0.5-0.4,0.5,0.3,0.6,0.4C504.6,40.5,505.2,39.7,504.5,39.9z"/>
					</g>
				</g>
				<g>
					<g>
						<polygon points="527.9,32.8 527.7,32.9 527.6,31.9 						"/>
					</g>
				</g>
			</g>
			<g>
				<g>
					<g>
						<path d="M124.6,57.6c0.3,0.2,0.4,0.9,0.9,0.5c0.1,0.3-0.4,0.7,0,0.8c0.5-0.5,0-1.5-0.6-1.9l0-0.2
							C124.8,57.2,124.8,57.4,124.6,57.6z"/>
					</g>
				</g>
				<g>
					<g>
						<path d="M124.8,56.9l0-0.2L124.8,56.9z"/>
					</g>
				</g>
				<g>
					<g>
						<path d="M139.6,61.9c0.1,0,0.1,0.1,0.3,0C139.8,61.9,139.7,61.9,139.6,61.9z"/>
					</g>
				</g>
				<g>
					<g>
						<path d="M248.2,90l-0.1,0L248.2,90z"/>
					</g>
				</g>
				<g>
					<g>
						<path d="M124.1,57.8c0.2,0,0.4-0.1,0.5-0.2C124.4,57.5,124.3,57.5,124.1,57.8z"/>
					</g>
				</g>
				<g>
					<g>
						<path d="M261.4,91l-0.1,0C261.2,91.2,261.3,91.2,261.4,91z"/>
					</g>
				</g>
				<g>
					<g>
						<path d="M249.3,89.6l0.1,0.1C249.8,89.5,249.6,89.5,249.3,89.6z"/>
					</g>
				</g>
				<g>
					<g>
						<path d="M255,90.1l0.3-0.1L255,90.1z"/>
					</g>
				</g>
				<g>
					<g>
						<path d="M261.8,90.3L261.8,90.3L261.8,90.3z"/>
					</g>
				</g>
				<g>
					<g>
						<polygon points="188.4,66.2 188.3,66.3 188.8,66.4 						"/>
					</g>
				</g>
				<g>
					<g>
						<path d="M290.9,67.8c-0.3,0-0.7,0.1-0.3-0.2c0-1.4,2.4-3.3,4.6-3.6c2.4-0.4,3.6,0,5.4,0.7c0-0.4,0.5-0.7,0.8-0.6l-0.1,0.3
							L302,64c0.4,0.2-0.3,0.7-0.6,0.6c1.4,1.2,1.8,1.7,1.7,2.9c1,0.1-0.1,0.8,0.9,1c-0.2,0-0.2-0.1-0.4-0.1
							c0.2,1.3,0.1,1.6-1.6,2.2c-3.7,4.8-9.2,8.1-16.9,9.3c-7.4,1.6-15.6,2.5-24.2,2.4c-1.4,1.5-3.1,0.7-4.8,2l0.1-0.5
							c-1.4,0.6-1.7-0.3-3.3-1c-0.1,0.6-0.7,0.1-0.5,1c-0.7,0.7-0.9-1.4-1.8-1c0-0.3,0,0.5-0.2,0.2c-2.3,0.9,0.5-0.4-2.2-1.6
							c-3.8-0.2-7.9,0.3-11.4-1c0.2,0,0.2,0.7-0.2,0.7c-0.1-1.5-1.3,0.2-1.8-0.5c0.1-0.3,0.4-0.3,0.6-0.4c-1.5-0.9-3.1-0.2-4.5-1.2
							c-1.6,0.3-3-1.4-4.2-0.8c0.4-0.5-0.6-0.6-0.8-0.9c-1.5,1.5-2.7-1.3-4.3-0.5l0.1-0.3c-4-0.8-8.2-2.5-12.5-2.9
							c-2.4-0.5-4.5-2.9-7.2-3c-0.5,0.1-0.3,0.6-0.7,0.6c-0.6-0.3,0.2-0.5,0-0.8c-1.5,0.2-2.9-1.1-4.4-1.7c-0.3,0.2-0.7,0.1-0.7,0.6
							c-1.4-1.7-4.3-1-5.8-2.5c0.1,1.7-1.3,0.4-2.1,0.5c-0.3-0.2-0.2-0.6,0-0.8c-1.4-0.3-2.1-0.5-3.6-1.5c-0.8-0.1-1.3,0.6-2.1,0.1
							c-0.2-1.2-1.9-0.7-2.6-1.3c-0.1,0.9-1.4,1.2-2.2,0.6l0.7-1.1c-3.1-0.2-6.6-2.9-10.4-2.4l0-0.8c-3.7-0.3-6.8-2.2-10.5-1.8
							c-0.8-0.7-2.1-1.3-3-1.6c-1.4,0.2-1.8,0.1-2.9,0.9c-0.5-0.1-0.6-0.7-0.7-1c-1.5-0.6-2.7-2-4.2-1.2l0.1-0.6
							c-1.4,0.3-3.3,0.6-4.5-0.4c-0.5,0.5-1.9,0.4-1.5,1.2c-0.6,0-0.1-1.1-0.8-0.6l0.7-0.8c-3-0.9-5.7-1.2-8.9-1.2
							c-0.7-1.3-2.9-0.4-4.5-1.4c-0.2-0.1-2,0-2.3,0.1c-0.9,0.5-0.8,2.3-0.9,3.3c0.6,0.2-0.3,1.2,0.6,0.8c-0.2,0.4-0.1,0.9-0.1,1.3
							c0.2-0.5,1.6,0.4,1.1-0.8c1.3,0.5,2.7,0.9,4.1,0.9c-0.5,0-0.7,0.7-0.4,1.2c0.8-0.6,2-0.8,3.1-0.4c0.1-0.8-0.2-0.8,0-1.6
							c0.2-0.1,0.5-0.4,0.8-0.3c0,0.8-0.3,2.1,0.7,2.3c-0.5,1.2-1.7-0.6-1.5,0.8c-0.7,0.9-2.5,0.6-2.8-0.1c-1.1,0.9,0.7,0.3,0.3,1.3
							c0.8,0.1,1.3-0.4,2.6-0.3c0.1-0.5-0.3-0.7,0.4-1c1.4-0.9,1.2,1.1,1.5,1.2c-0.2,0.1-0.4,0.1-0.6,0.2c0.7,0.5,1.1-0.1,1.8,0.1
							c-0.1,1.5-1.3-0.1-1.8,0.7l0.3,1.2c1.2,0.4,0.6-1.1,1.7-0.4l-0.3,0.5l0.8-0.1c0.1-0.5,0.2-1.4-0.5-1.4
							c0.8-1.3,0.7-0.1,1.8-0.1c0.5-0.7-0.5,0-0.3-0.8c0.1-0.7,0.8-0.6,1.4-0.6c0.9,0.2,0.2,1,0.5,1.6c-0.2,0.1-0.9,0-0.7-0.4
							c-1.3,0.6,0.1,1.7-0.8,2.1c0.7,0.7,0.9-0.3,1.4-0.5c-0.2-0.1,0.3-0.7,0.2-1.1c1.9-1.8,0.5,1.8,2,1.7c0.1-1.4,2.3-1.4,1.7-3.2
							c0.4-0.2,0.9-0.4,1.2-0.1c-0.6,0.8,0.4,0.9-0.5,1.6l0.5,0.2l-1,0.9c0.4,0.8,1.1,1.7,1.3,2.2c0.8-0.2,0-0.9,0.9-0.9
							c-0.4,0.4,0,0.9,0.4,1c-0.6-0.6,0.3-1.3,0.9-1.4c0.7,0.2,1.1,1.2,0.9,1.4l-0.9,0.6c0.7-0.5,0.1,0.4,0.8,0.3
							c0.3-0.5,0.8-1.2,1.2-1.8c0.5-0.1,0.7,0.7,0.9,0.6l-0.9,0.4c1,0.1-0.2,1.5,0.9,1.4l0.5-0.6c0.2,0.2,0.2,0.5-0.1,0.7
							c0.3-0.5,0.8-0.2,1.1-0.3l-0.1,0.5c0.5-0.2,1.3-1.1,1.6,0c-0.1-1.2-0.5-0.2-1.1-0.9c-0.2-1,0.9-0.6,1.1-0.6
							c-0.4,1.2,1,0.4,1.5,0.6c0.2,0.5,0.4,0.8,0.5,1.1l0.4-0.7c-0.3,1.6,1.1-0.1,1.5,0.6c-0.4,0.4-0.6,1-0.2,1.4
							c-0.2-1.3,1.3-1.2,1.4-2c0.9,0.7-0.7,1.4-0.6,2.3c0.8-0.7,0.9,0.9,1.6-0.1c-0.6-0.6,0.3-0.7,0.7-1.2c0.9,0.4-0.3,0.5,0.2,1.1
							c0.4,0,1.2-0.8,0.7-1.3c0.5,0.4,1.4-0.5,1.8,0.4c0,0.8-1.2,0-1,0.6c1.2,0.5,1.2-1.6,2.5-1.4c-0.4-0.6,0.5-1.7,1.2-1.9
							c1.2,0.7-0.7,0.2-0.5,1.3l0.6,0c0.3,1.5-2.2,1.6-1.8,2.8l0.7-0.2c-0.2,0.3-0.6,0.9-0.5,1.3c0.4-0.8,1.4,0.2,1.6,0
							c0.4-0.7-0.5,0.1-0.3-0.5c0.7,0,1.3-1.1,2.1-0.4c-0.7,0.3-0.1,1.1-0.5,1.4c0.4,0.5,0.4-0.8,0.9-0.2l-0.2,0.4
							c2.4,0.9,5.4,1.9,8.1,0.8c0.1,0.9,0.9,1.2,1.9,2.1c-0.4-0.4,0.2-0.8,0.6-0.8l0.3,1c0.5,0.7,1.7,0.2,2.5,0c0.1,0.2,0,0.4,0,0.7
							c0.4,0.8,0.8-0.3,1.1-0.4l0.2,0.7l0.3-0.6c0.7-0.1,1.5,0.3,1.1,1.2c0.3-0.1,0.6-0.2,0.4-0.6c0.4,0.8,2.1,1.4,3.4,1.4
							c-0.4-0.4-0.3-0.7-0.1-1.3c0.5-1,0.2,0.3,0.8-0.2c-0.1,0.4,0.3,0.9-0.4,1c1,1.8,3.5,1.5,5.3,2.4c0.4,0,0.4-0.2,0.7-0.4
							c0.8,1.4,2.7,0.9,3.8,1.8c-0.1-0.5,0.7-1.6,1.4-1.4c1.1-0.6-0.1,1.3,0.5,2c0.5-0.3,1.2-0.2,1.5,0l-0.1,0.1
							c0.6-0.3,1.4-0.3,1.8,0.2l-0.1,0c0.4,0.2,0.7,0.9,1.2,1c0.5-0.7,1.4,0.1,1.9-0.5c0,0.1-0.1,0.1,0,0.3l0.2-0.7l0.8,0.7
							c-0.3,0.2-0.4,0.5-0.7,0.6c0.8,0.8,0.5-0.5,1.1-0.7c0.8-0.3,0.6,0.4,0.8,0.8c-0.4,0.3-0.4-0.3-0.6-0.2
							c-0.5,0.4,0.3,0.3,0.2,0.7c0.1,0.1,0.5-0.7,0.9-0.4c0.4,0.2,1.5,0.3,1.1,1c0.5-0.3,0.9-0.1,1.3-0.3c-0.3-0.2-0.9-0.6-0.8-1.1
							c0.3,0,1,0,1,0.3l-0.3,0.1c0.3-0.1,1.2,0.4,0.9-0.4l0.4,1.1c0.4-0.5,1.1-0.3,1.6-0.2c-0.2,0.8-0.9,1.5,0.1,1.9l1.1-0.5
							c0.5,0.1,0.5,0.3,0.4,0.7c1.5,0.8,2.2-1.7,3.2-0.7c-0.8,0.8-0.3,1,0.1,1.3c0.1-0.1,0.2-0.4,0.4-0.4c0-0.5-0.5,0.5-0.8-0.2
							c0-0.6,0.6-0.2,0.9-0.4c0.6,2.2,3.5,1.4,5.1,2.8c0.1-1.1,0.9-0.1,1.3-0.5c-0.4,1.1,1.1,0,1.4,0.8l0-1.2c1,0.9,2.2-1.3,2.5,0.2
							c0.5,0.5-0.4,0.8-0.7,0.9c0.6,1.4,2.5-0.5,2.9,1c0.2-0.4,0.1-1.2,0.9-1.5c0.5,0.6,1.6,1.4,1.4,1.6c0.5-0.1,0.7-0.5,1.2,0
							c-0.1,0.3-0.3,0.3-0.5,0.4c0.8,0.4,1.6,0.1,2.4-0.2c0.3,0.9,1.9,0.8,2.8,1.4c0.7-1,1.5,0.7,1.8-0.7c0,0.1,0.1,0.3,0.1,0.4
							c0.4-0.3,0.9-1.2,1.3-1.2l-0.3,0.9c-0.3,1.1,1.3,0.4,1.4,1c-0.3-0.8,0.5,0.1,0.7-0.6l0.6-0.2c0.9-0.1,0.2-0.4,1.3-0.4
							c0.6,0,0.1,1.1-0.1,0.9c0.5,0.6,1,0.3,1.6,0.2c-0.2,0-0.3-0.1-0.1-0.3c0,0.1,0.1,0.2,0.1,0.3c0.2,0,0.4-0.1,0.6,0l0.8-0.1
							c0.2-0.1,0.3-0.1,0.4-0.1c0.3-0.1,0.5,0,0.1,0.1l-0.1-0.1l-0.4,0.1c-0.3,0.1-0.5,0.3-0.7,0.4c0.2,0,0.4,0.1,0.5,0.2l-0.2,0.7
							c0.4,0.1,1.5-0.7,1.5-1c1.4,0.7,4,0.5,5,0.2l0.3-0.1l-0.3,0.1c-0.2,0.1-0.3,0.4,0,0.1c0.5-0.1,1.2-0.7,1.2-0.2
							c0.5-0.2,0.4,0.5,1.2,0.6c0,0.2,0.2-0.7-0.1-0.6c1.3,1.1,3-0.5,4.6,0.2l0.1,0l-0.1,0c-0.1,0.1-0.3,0.4-0.5,0.7
							c1.2-0.3,2.4-0.6,3.5-1.4c-0.1,0.3-0.1,0.6-0.4,0.8c0.8,0,1.8-0.2,2.2-0.8c-0.6-0.3,0,0.4-0.4,0.4c-0.6-0.6,0.5-1.3,1-1.1
							l0,0.2c0.8,0,0.9-0.4,1.7-0.4c0.5,0.4-0.4,0.2-0.2,0.6c0.2,1.2,1.9,0.7,2.1,0.8c0.2-0.3,0.5-0.5,0.4-0.8
							c0.6-0.3,0.3,0.7,0.8,0.6l1.8-2.3c-0.4,0.2,0.6,1,0,1.5c1.4-0.2,2-1.6,2.8-2.3c0.4,0.2,1.7-0.4,2.1-0.5c0.3,0.6-0.4,0-0.4,0.5
							l0.7,0.6c-0.9,0.2,0.2,1.1-0.2,1.6c0.7-0.5,2.4-0.1,3.6-0.1c-0.9-1.2,1.4-0.8,1.1-2c1.2-0.4,0.8,0.8,1.3,1
							c1.2-0.6,2.5-0.6,3.7-1c0,0,0.1,0.2,0,0.2c1-0.5,2.8-0.7,3.6-2.1c0,0.2,0.2,0.4,0,0.7c1.3,0-0.3-1.5,1.3-1.2l-0.1,0.6
							c0.6-0.7,1.7-0.1,2.3-1.3c0.2,0.3,0,0.5-0.1,0.7c0.7-0.6,1.7-0.9,2-1.9c0.3,0.3,0.3,0.6,0.1,1c1,0,0.4-1.4,1.2-1.4
							c0.2-0.1,0.9,0.1,0.7,0.2c0.1-0.7,1.1-1.3,1.3-1.7c0.3,0.2,0.6,0.1,1.3,0.1c3.4-2.7,6.8-6.7,6.8-11.3c1.3-0.5,0.5,1.2,1.4,0.9
							c-1-0.2-0.1-0.9-0.2-2.3l0.1,0c-0.2-0.6,0.5-1,0.1-1.7l-0.3,0c-0.8-0.6,1.1-1.9-0.3-1.9l0.5-0.8c-1.3-0.2,0-1.3-1.4-1.6l0.2,0
							c-0.2-1.4-2.4-1.2-2-2.1c-0.8-0.6-1.8-1-2.5-0.4c0-0.4,0.5-0.8,0.8-0.9c-2.9-2-7.3-2.8-9.9-0.9c-0.2-0.2,0-0.3,0-0.6
							c-1.4,1.3-4.1,0.2-4.3,2.6l0.1,1c-0.5-0.1-0.8-0.6-1.3-0.6c0.1,0.7-1.2,1.1-0.7,1.8c-0.4-0.1-0.3-0.4-0.4-0.5
							c-0.7,0.5-0.3,1.9-0.9,2.3l-0.2-0.4c-1.6,1.1-3.3,3.4-2.8,5.9c0.5,2.5,3,4.2,4.8,3.6c0.9-0.1,0.1,1.2,0.6,1.2
							c3.6-0.2,8.4-3.3,6.5-7.2c-0.3-2.1-5.5,0.8-5.5,0.1C291.8,68.7,291.5,69.4,290.9,67.8z"/>
					</g>
				</g>
				<g>
					<g>
						<path d="M248.1,89.8l0,0.2l0.1,0c0.2-0.1,0.5-0.3,0.7-0.4L248.1,89.8z"/>
					</g>
				</g>
				<g>
					<g>
						<path d="M248.1,89.8c-0.2,0-0.4,0-0.6,0c0.1,0.1,0.3,0.1,0.6,0.2L248.1,89.8z"/>
					</g>
				</g>
				<g>
					<g>
						<path d="M231,78.9L231,78.9l0.4-0.1C231.3,78.8,231.2,78.8,231,78.9z"/>
					</g>
				</g>
				<g>
					<g>
						<polygon points="247.4,89.8 247.5,89.8 247.5,89.8 						"/>
					</g>
				</g>
				<g>
					<g>
						<path d="M123.6,57.1c0.1,0.1,0.2,0.1,0.3,0.1l0.1-0.5C123.8,56.8,123.8,57.1,123.6,57.1z"/>
					</g>
				</g>
				<g>
					<g>
						<path d="M124,56.6L124,56.6l-0.1,0.5c0.1-0.1,0.2-0.2,0.4-0.2C124.2,56.9,124,56.5,124,56.6z"/>
					</g>
				</g>
				<g>
					<g>
						<path d="M128.6,57.8c-0.2,0.4-1.2,0.6-1.8,0.5L128.6,57.8z"/>
					</g>
				</g>
				<g>
					<g>
						<path d="M132.6,60.5c0.3,0.5,0.1,0.6-0.4,0.5C132.3,60.8,132.5,60.7,132.6,60.5z"/>
					</g>
				</g>
				<g>
					<g>
						<path d="M133.1,59.6c0.4,0.1,0.5,0.4,0.6,0.7C133.8,59.9,132.9,60.3,133.1,59.6z"/>
					</g>
				</g>
				<g>
					<g>
						<path d="M142.2,63.1c0.2,0,0.8-0.2,0.9,0.3C143,63.1,141.9,63.7,142.2,63.1z"/>
					</g>
				</g>
				<g>
					<g>
						<path d="M146.7,63.6c0.1,0.1,0.2,0.2,0.4,0.1c0.2,0.3-0.2,0.5-0.4,0.5L146.7,63.6z"/>
					</g>
				</g>
				<g>
					<g>
						<polygon points="227,86.7 226.5,86.8 226.7,86.4 						"/>
					</g>
				</g>
				<g>
					<g>
						<path d="M264,91.3c0.5-0.3,0.3,0.4,0.4,0.5C263.9,91.9,264.6,91.3,264,91.3z"/>
					</g>
				</g>
				<g>
					<g>
						<polygon points="283.9,88.1 283.7,88.1 283.7,87.2 						"/>
					</g>
				</g>
			</g>
			<g>
				<g>
					<g>
						<path d="M134.2,167.5c-0.2-0.1-0.4-0.8-0.6-0.3c-0.1-0.3,0.1-0.8-0.2-0.8c-0.2,0.6,0.3,1.4,0.7,1.7l0,0.2
							C134.2,168,134.2,167.7,134.2,167.5z"/>
					</g>
				</g>
				<g>
					<g>
						<path d="M134.2,168.2l0,0.2L134.2,168.2z"/>
					</g>
				</g>
				<g>
					<g>
						<path d="M124.9,166.8c0,0-0.1,0-0.2,0C124.7,166.9,124.8,166.9,124.9,166.8z"/>
					</g>
				</g>
				<g>
					<g>
						<path d="M66.4,140.2L66.4,140.2L66.4,140.2z"/>
					</g>
				</g>
				<g>
					<g>
						<path d="M134.5,167.2c-0.1,0.1-0.2,0.2-0.3,0.3C134.3,167.6,134.4,167.5,134.5,167.2z"/>
					</g>
				</g>
				<g>
					<g>
						<path d="M62,133.8L62,133.8C62.2,133.8,62.1,133.8,62,133.8z"/>
					</g>
				</g>
				<g>
					<g>
						<path d="M65.6,140l0-0.1C65.3,139.9,65.4,139.9,65.6,140z"/>
					</g>
				</g>
				<g>
					<g>
						<path d="M63.6,137.2l-0.2-0.1L63.6,137.2z"/>
					</g>
				</g>
				<g>
					<g>
						<path d="M61.3,134L61.3,134L61.3,134z"/>
					</g>
				</g>
				<g>
					<g>
						<polygon points="93.5,170.7 93.6,170.5 93.3,170.5 						"/>
					</g>
				</g>
				<g>
					<g>
						<path d="M73.5,98c0-2.9-0.9-5.3-1.9-7.8c-7.3-9.3-19.9-5.6-23.1,2.3c0.5-0.2,0.7,0.4,0.7,0.8l-0.3-0.1l0.3,0.8
							c-0.2,0.5-0.8-0.1-0.7-0.5c-1.3,2.6-1.6,4.8-2.3,7.1c0.9,0.4-0.2,1.2,0.8,1.5c-0.2,0.1-0.2,0-0.4-0.1c0.3,1.6,0.3,1.7-1.2,3
							c-1.6,6-0.3,12.6,1.1,18.2c1.9,5.8,5.2,10.7,8.5,15.6c1.8-0.1,1.9,1.4,3.6,1.5l-0.4,0.2c1.1,0.3,0.5,1,0.7,2.3
							c0.5-0.3,0.4,0.3,1-0.4c0.9-0.2-0.6,1.4,0.1,1.6c-0.2,0.2,0.4-0.3,0.3-0.1c1.8,0.5-0.6,0.1-0.1,2.1c1.9,1.9,4.4,3.2,5.7,5.4
							c-0.1-0.1,0.3-0.6,0.5-0.5c-0.9,1.2,0.9,0.3,0.8,1c-0.2,0.2-0.5,0.1-0.6,0.1c0.4,1.2,1.7,1.2,2,2.5c1.2,0.2,1.2,2,2.2,1.9
							c-0.5,0.3,0.1,0.6,0,1c1.7-0.9,1.2,1.8,2.6,1.4l-0.2,0.2c2.2,1.7,4.5,3.8,7.4,4.7c1.5,0.7,2.2,3.1,4.2,3.2
							c0.4,0,0.4-0.5,0.7-0.5c0.4,0.3-0.3,0.5-0.2,0.7c1.1-0.2,1.7,1.1,2.8,1.6c0.2-0.2,0.6-0.1,0.7-0.5c0.6,1.6,2.8,0.9,3.6,2.2
							c0.2-1.6,1-0.5,1.6-0.6c0.2,0.2,0.1,0.5-0.1,0.8c0.9,0.2,1.4,0.3,2.3,1.1c0.6,0,1-0.7,1.5-0.3c0,1.1,1.2,0.5,1.7,1
							c0.2-0.9,1.1-1.4,1.6-0.8l-0.6,1.2c2.1-0.2,4.4,2,7,1l0,0.8c2.5-0.3,4.6,1,7-0.1c0.5,0.5,1.5,0.8,2.1,0.9
							c0.9-0.5,1.2-0.4,1.8-1.4c0.3,0,0.4,0.6,0.5,0.9c1,0.3,1.9,1.4,2.8,0.2l0,0.6c0.9-0.6,2-1.3,2.9-0.6c0.3-0.6,1.2-0.8,0.8-1.5
							c0.4-0.1,0.2,1.1,0.6,0.4l-0.3,0.9c2,0.3,3.8-0.3,5.7-0.9c0.6,1.1,1.8-0.3,3,0.2c0.1,0.1,1.2-0.5,1.4-0.6
							c0.5-0.7,0-2.4-0.2-3.4c-0.4-0.1-0.1-1.2-0.5-0.6c0-0.4-0.1-0.9-0.2-1.3c0,0.5-1,0-0.5,1.1c-0.8-0.2-1.7-0.2-2.6,0.1
							c0.3-0.1,0.3-0.9,0-1.2c-0.3,0.8-1,1.2-1.7,1.1c0,0.8,0.3,0.8,0.2,1.5c-0.1,0.1-0.3,0.5-0.4,0.4c-0.1-0.8-0.2-2.1-0.8-2.1
							c0.1-1.3,1.1,0.1,0.7-1.1c0.2-1,1.3-1.1,1.6-0.5c0.5-1.1-0.4-0.1-0.4-1.2c-0.5,0.1-0.7,0.7-1.5,0.9c0,0.6,0.3,0.6-0.1,1.1
							c-0.7,1.2-0.9-0.8-1.1-0.8l0.3-0.3c-0.5-0.4-0.6,0.4-1.1,0.4c-0.2-1.5,0.8-0.2,0.9-1.1l-0.4-1c-0.7-0.1-0.2,1.2-0.9,0.9
							l0.1-0.5l-0.5,0.3c0,0.5,0.1,1.4,0.5,1.3c-0.3,1.4-0.4,0.2-1,0.5c-0.2,0.8,0.3-0.1,0.3,0.7c0.1,0.7-0.4,0.8-0.7,0.9
							c-0.5,0-0.3-0.9-0.5-1.4c0.1-0.1,0.5-0.2,0.5,0.2c0.7-0.8-0.3-1.7,0.2-2.2c-0.5-0.5-0.5,0.5-0.8,0.8c0.2,0.1-0.1,0.8,0,1.1
							c-0.9,2.2-0.5-1.6-1.4-1.2c0.1,1.4-1.2,1.9-0.6,3.5c-0.2,0.2-0.5,0.5-0.7,0.4c0.3-0.9-0.3-0.8,0.1-1.6l-0.3,0l0.5-1.1
							c-0.3-0.7-0.8-1.4-1-1.8c-0.5,0.4,0.1,0.9-0.4,1.1c0.2-0.5-0.1-0.9-0.3-0.9c0.4,0.4-0.1,1.3-0.4,1.6c-0.5,0-0.7-0.9-0.7-1.1
							l0.5-0.8c-0.4,0.7-0.1-0.4-0.5-0.1c-0.1,0.5-0.4,1.3-0.6,2c-0.3,0.2-0.4-0.5-0.6-0.4l0.5-0.5c-0.6,0.1,0-1.5-0.6-1.2l-0.2,0.7
							c-0.1-0.1-0.1-0.5,0-0.7c-0.1,0.5-0.5,0.4-0.6,0.5l0-0.5c-0.3,0.3-0.7,1.3-0.9,0.3c0.1,1.2,0.3,0,0.7,0.6
							c0.2,0.9-0.5,0.8-0.6,0.9c0.2-1.2-0.6-0.2-1-0.2c-0.1-0.5-0.2-0.7-0.3-1l-0.2,0.8c0.1-1.6-0.7,0.3-0.9-0.3
							c0.3-0.5,0.3-1.1,0.1-1.4c0.1,1.2-0.8,1.4-0.8,2.2c-0.6-0.5,0.4-1.5,0.4-2.4c-0.5,0.9-0.6-0.7-1,0.4c0.4,0.4-0.2,0.7-0.4,1.2
							c-0.6-0.2,0.2-0.5-0.1-1c-0.3,0.1-0.8,1-0.4,1.4c-0.3-0.3-0.9,0.8-1.1-0.1c0-0.8,0.8-0.2,0.6-0.8c-0.8-0.3-0.8,1.7-1.6,1.8
							c0.2,0.5-0.3,1.7-0.8,2.1c-0.8-0.5,0.5-0.4,0.3-1.4l-0.4,0.1c-0.2-1.4,1.4-1.9,1.2-3l-0.4,0.4c0.2-0.3,0.4-1,0.3-1.4
							c-0.3,0.9-0.9,0-1,0.2c-0.2,0.7,0.3-0.2,0.1,0.4c-0.4,0.1-0.9,1.3-1.3,0.7c0.4-0.5,0.1-1.1,0.4-1.5c-0.2-0.4-0.3,0.9-0.6,0.4
							l0.2-0.4c-1.4-0.5-3.2-0.9-5,0.5c0-0.8-0.4-1-1-1.8c0.2,0.3-0.2,0.8-0.5,0.8l0-1c-0.2-0.6-1.1,0-1.6,0.3
							c0-0.2,0.1-0.4,0.1-0.7c-0.2-0.7-0.6,0.3-0.8,0.5l0-0.7l-0.3,0.6c-0.5,0.2-0.9-0.1-0.5-1.1c-0.2,0.1-0.4,0.2-0.4,0.6
							c-0.2-0.7-1.1-1.1-1.9-1.1c0.2,0.4,0.1,0.6-0.2,1.2c-0.5,0.9-0.1-0.3-0.6,0.2c0.2-0.4,0-0.9,0.5-1c-0.3-1.6-2-1.2-2.9-2
							c-0.3,0-0.3,0.2-0.5,0.4c-0.2-1.3-1.5-0.7-2-1.5c-0.1,0.5-0.9,1.5-1.3,1.3c-0.9,0.5,0.4-1.2,0.3-1.9c-0.4,0.3-0.8,0.1-0.9,0
							l0.1-0.1c-0.5,0.3-1,0.3-1.1-0.2l0.1,0c-0.2-0.2-0.2-0.9-0.4-0.9c-0.5,0.6-0.8-0.1-1.4,0.4c0-0.1,0.1-0.1,0.1-0.3l-0.4,0.6
							l-0.3-0.6c0.3-0.2,0.4-0.4,0.7-0.5c-0.2-0.7-0.5,0.4-1,0.6c-0.6,0.2-0.2-0.4-0.2-0.7c0.3-0.2,0.2,0.3,0.3,0.2
							c0.5-0.3-0.1-0.3,0.1-0.7c-0.1-0.1-0.6,0.6-0.7,0.3c-0.2-0.2-0.8-0.4-0.3-1c-0.4,0.2-0.6,0-0.9,0.2c0.1,0.2,0.3,0.6,0.1,1.1
							c-0.2,0-0.7-0.1-0.5-0.4l0.2-0.1c-0.2,0.1-0.6-0.4-0.7,0.3l0.2-1c-0.5,0.4-0.8,0.1-1.1,0.1c0.4-0.6,1.2-1.2,0.8-1.7l-0.9,0.3
							c-0.3-0.1-0.2-0.3,0.1-0.6c-0.5-0.9-2.1,1.1-2.3,0.1c0.8-0.5,0.7-0.8,0.5-1.2c-0.1,0.1-0.3,0.3-0.5,0.3
							c-0.2,0.4,0.6-0.4,0.4,0.3c-0.3,0.5-0.5,0.1-0.7,0.2c0.7-2-1.4-1.8-1.7-3.2c-0.7,0.9-0.6-0.1-1,0.1c0.8-0.8-0.6-0.2-0.3-1
							l-0.6,1c-0.1-0.9-2,0.6-1.4-0.7c0-0.5,0.7-0.5,0.9-0.6c0.5-1.3-1.7-0.2-1-1.5c-0.4,0.3-0.8,1-1.4,0.9c0.1-0.6,0-1.5,0.2-1.7
							c-0.4,0-0.7,0.2-0.6-0.4c0.2-0.2,0.4-0.1,0.5-0.1c-0.2-0.6-0.8-0.5-1.4-0.6c0.4-0.8-0.5-1.2-0.5-1.9c-1,0.5-0.3-1-1.4-0.1
							c0.1-0.1,0.2-0.3,0.2-0.4c-0.4,0.1-1.2,0.6-1.5,0.4l0.8-0.5c0.9-0.7-0.3-0.8,0-1.2c-0.4,0.7-0.2-0.2-0.8,0.2l-0.4-0.1
							c-0.5-0.3-0.4,0.3-0.9-0.2c-0.3-0.3,0.8-0.8,0.7-0.6c0.2-0.6-0.2-0.6-0.6-0.7c0.1,0.1,0.1,0.2-0.2,0.2
							c0.1-0.1,0.1-0.2,0.1-0.2c-0.1,0-0.2-0.1-0.3-0.2l-0.5-0.2c-0.1,0-0.2,0-0.2-0.1c-0.2-0.1-0.2-0.2,0-0.1l0,0.1l0.2,0.1
							c0.2,0,0.5,0,0.6,0c-0.1-0.1-0.1-0.2,0-0.3l0.6-0.4c-0.1-0.2-1.2-0.2-1.4,0c-0.1-1.1-1.3-2-2-2.2l-0.2-0.1l0.2,0.1
							c0.2,0,0.4-0.1,0.1-0.1c-0.3-0.2-1-0.1-0.6-0.4c-0.4-0.1,0.3-0.5,0.1-0.9c0.1-0.1-0.6,0.3-0.5,0.4c0.5-1.3-1.5-1.1-1.5-2.3
							l0-0.1l0,0.1c0.1,0,0.5-0.1,0.7-0.1c-0.7-0.4-1.3-0.9-2.3-1c0.3-0.1,0.6-0.3,0.8-0.2c-0.3-0.4-0.7-0.8-1.4-0.7
							c-0.1,0.5,0.4-0.2,0.4,0.1c-0.4,0.6-1.3,0.4-1.3,0l0.1-0.1c-0.2-0.4-0.6-0.3-0.9-0.7c0.2-0.5,0.3,0.1,0.6-0.2
							c1-0.6,0.1-1.3,0.2-1.5c-0.3,0-0.5-0.1-0.8,0.1c-0.4-0.2,0.5-0.5,0.4-0.7l-2.5-0.1c0.3,0.2,0.8-0.7,1.4-0.6
							c-0.5-0.7-1.9-0.6-2.8-0.8c0.1-0.3-0.7-0.9-0.8-1.2c0.5-0.3,0.1,0.2,0.5,0.1l0.5-0.7c0.3,0.5,1-0.5,1.5-0.3
							c-0.5-0.3-0.5-1.4-0.5-2.1c-1.1,0.9-0.9-0.6-2-0.2c-0.5-0.7,0.8-0.7,0.9-1c-0.7-0.6-0.5-1.5-0.9-2.1c0,0,0.2-0.1,0.2,0
							c-0.5-0.6-0.4-1.7-1.6-2.1c0.2,0,0.5-0.1,0.7,0c0.3-0.8-1.5,0.2-1-0.8l0.6,0.1c-0.7-0.4,0.3-1.1-0.6-1.5
							c0.3-0.1,0.4,0,0.6,0.1c-0.3-0.5-0.3-1.1-1.1-1.5c0.4-0.1,0.7-0.1,1,0.1c0.4-0.6-1.1-0.5-0.8-1c0-0.2,0.5-0.4,0.5-0.4
							c-0.5-0.2-0.6-1-0.8-1.2c0.4-0.1,0.5-0.3,0.9-0.6c-0.1-2.7,0.4-5.4-0.2-8.2c1.2-0.2,0.6,0.7,1.5,0.6c-1-0.2-0.2-0.5-0.4-1.3
							l0.2,0c-0.1-0.4,0.5-0.4,0.3-0.8l-0.3-0.1c-0.5-0.6,1.5-0.5,0.3-1l0.8-0.1c-1-0.7,0.5-0.4-0.2-1.2l0.2,0.1
							c0.7-0.4-0.7-1.7,0.2-1.6c0.1-0.5,0.2-1.2-0.6-1.7c0.4,0.1,0.8,0.4,1,0.6c0.5-2.1,2.2-3.4,3.4-5.3c0.2,0.1,0.1,0.3,0.1,0.5
							c0.8-1.5,2.4,0.4,3.1-1.7l0.3-0.9c0.3,0.4,0.3,1,0.5,1.3c0.3-0.5,1.2,0,1.5-0.7c0.1,0.4-0.2,0.4-0.2,0.7
							c0.5,0.3,1.6-0.5,2.2,0l-0.4,0.2c2.4,3.1,1.4,5.9,2.2,8.6c-0.2,0.8-1.1-0.4-1.1-0.2c-0.1,1.3-2,1.6-2.9,0.8
							c-1-0.8-1.4-1.7-2.5-2.9c-0.7-2.8-5.4,2.3-4.8,3.5c2.9,5.5,7.4,5.6,9.9,5C68.7,104.8,72.4,102.5,73.5,98z"/>
					</g>
				</g>
				<g>
					<g>
						<path d="M66.3,140.4l0.2-0.1l0-0.1c-0.1,0-0.4,0-0.6,0L66.3,140.4z"/>
					</g>
				</g>
				<g>
					<g>
						<path d="M66.3,140.4l0.3,0.2c0-0.1-0.1-0.2-0.1-0.3L66.3,140.4z"/>
					</g>
				</g>
				<g>
					<g>
						<path d="M68.4,154.5L68.4,154.5l-0.3-0.1C68.1,154.5,68.2,154.5,68.4,154.5z"/>
					</g>
				</g>
				<g>
					<g>
						<polygon points="66.6,140.6 66.6,140.6 66.6,140.6 						"/>
					</g>
				</g>
				<g>
					<g>
						<path d="M134.9,167.8c-0.1-0.1-0.1-0.1-0.2,0l0.1,0.5C134.8,168,134.8,167.8,134.9,167.8z"/>
					</g>
				</g>
				<g>
					<g>
						<path d="M134.8,168.3L134.8,168.3l-0.1-0.5c-0.1,0.1-0.1,0.2-0.2,0.2C134.6,168.1,134.8,168.4,134.8,168.3z"/>
					</g>
				</g>
				<g>
					<g>
						<path d="M131.9,168.2c0-0.5,0.6-0.9,1-1L131.9,168.2z"/>
					</g>
				</g>
				<g>
					<g>
						<path d="M129.1,166.5c-0.2-0.4-0.2-0.6,0.1-0.6C129.2,166.1,129.1,166.3,129.1,166.5z"/>
					</g>
				</g>
				<g>
					<g>
						<path d="M128.9,167.6c-0.2,0-0.3-0.2-0.5-0.5C128.5,167.4,129,166.8,128.9,167.6z"/>
					</g>
				</g>
				<g>
					<g>
						<path d="M123.1,166.2c-0.1,0-0.5,0.4-0.6-0.1C122.7,166.5,123.3,165.6,123.1,166.2z"/>
					</g>
				</g>
				<g>
					<g>
						<path d="M120.4,166.8c-0.1,0-0.1-0.1-0.2,0c-0.1-0.2,0.1-0.5,0.2-0.6L120.4,166.8z"/>
					</g>
				</g>
				<g>
					<g>
						<polygon points="75.2,149.2 75.6,149.2 75.2,149.5 						"/>
					</g>
				</g>
				<g>
					<g>
						<path d="M61.4,132.4c-0.4-0.1,0.3-0.4,0.3-0.5C61.9,132.1,61.1,132.1,61.4,132.4z"/>
					</g>
				</g>
				<g>
					<g>
						<polygon points="54.4,122.5 54.5,122.6 53.6,122.9 						"/>
					</g>
				</g>
			</g>
			<g>
				<g>
					<g>
						<path d="M890.1,196.8c-0.1,0.2-0.7,0.4-0.3,0.6c-0.3,0.1-0.8-0.1-0.8,0.2c0.6,0.1,1.4-0.3,1.7-0.7l0.2,0
							C890.6,196.9,890.4,196.9,890.1,196.8z"/>
					</g>
				</g>
				<g>
					<g>
						<path d="M890.9,196.8l0.2,0L890.9,196.8z"/>
					</g>
				</g>
				<g>
					<g>
						<path d="M891,205.7c0,0,0,0.1,0.1,0.2L891,205.7z"/>
					</g>
				</g>
				<g>
					<g>
						<path d="M940.8,232.2L940.8,232.2L940.8,232.2z"/>
					</g>
				</g>
				<g>
					<g>
						<path d="M889.8,196.6c0.1,0.1,0.2,0.2,0.4,0.2C890.2,196.8,890.2,196.7,889.8,196.6z"/>
					</g>
				</g>
				<g>
					<g>
						<path d="M947.3,232.3L947.3,232.3C947.2,232.6,947.2,232.5,947.3,232.3z"/>
					</g>
				</g>
				<g>
					<g>
						<path d="M941.3,231.7l0.1,0.1C941.6,231.6,941.5,231.6,941.3,231.7z"/>
					</g>
				</g>
				<g>
					<g>
						<path d="M944.1,231.8l0.1-0.1L944.1,231.8z"/>
					</g>
				</g>
				<g>
					<g>
						<path d="M947.5,231.6L947.5,231.6L947.5,231.6z"/>
					</g>
				</g>
				<g>
					<g>
						<polygon points="913.7,216.9 913.6,217 913.9,217 						"/>
					</g>
				</g>
				<g>
					<g>
						<path d="M988,211c-0.5,0.7-1.1,1.7-2.1,1.8c-2.7,2.2-6.7,1.9-9.6,4c0.3,0.2,0.3,0.8,0.2,1l-0.2-0.3l0,0.7
							c-0.2,0.2-0.4-0.7-0.3-0.9c-1.3,0.5-2.5,1.2-3.9,1.5c0.2,1-0.7,0.3-0.4,1.3c-0.1-0.2-0.1-0.2-0.1-0.4
							c-0.8,0.8-0.9,0.8-2.1-0.1c-3.9,0.2-7.4,1.7-11.2,1.9c-3.8,0.7-7.5,1.9-11.6,2.2c-0.6,1.6-1.5,0.9-2.2,2.2l0.1-0.5
							c-0.6,0.7-0.8-0.2-1.6-0.8c0,0.6-0.3,0.1-0.2,1.1c-0.3,0.8-0.5-1.3-0.9-0.9c0-0.3,0,0.5-0.1,0.3c-1.1,1.1,0.2-0.5-1-1.4
							c-1.8,0.2-3.8,1.1-5.4,0.2c0.1,0,0.1,0.7-0.1,0.7c0-1.5-0.6,0.3-0.9-0.3c0.1-0.3,0.2-0.4,0.3-0.5c-0.7-0.7-1.5,0.1-2.1-0.6
							c-0.8,0.5-1.4-0.9-2-0.3c0.2-0.6-0.2-0.5-0.3-0.8c-0.8,1.7-1.2-0.8-2.1,0.2l0.1-0.3c-1.9-0.3-3.7-1.2-5.8-1
							c-1.2-0.1-1.7-2.1-3.1-1.8c-0.3,0.1-0.3,0.6-0.5,0.6c-0.3-0.1,0.2-0.5,0.2-0.7c-0.8,0.5-1.2-0.7-1.8-1
							c-0.2,0.2-0.4,0.2-0.5,0.6c-0.2-1.4-1.9-0.4-2.2-1.7c-0.5,1.5-0.8,0.5-1.3,0.6c-0.1-0.1,0.1-0.5,0.3-0.7c-0.6-0.1-1-0.3-1.3-1
							c-0.4,0-0.9,0.6-1.1,0.2c0.4-1-0.7-0.5-0.8-1.1c-0.4,0.8-1.3,1.1-1.4,0.5l0.9-1c-1.5-0.2-1.9-2.3-4-2.3l0.5-0.6
							c-1.7-0.5-1.9-2.2-3.9-2.5c0.1-0.6-0.1-1.2-0.2-1.5c-0.8-0.1-0.8-0.3-1.9-0.1c-0.2-0.1,0.3-0.6,0.5-0.7
							c-0.2-0.7,0.4-1.7-0.8-1.7l0.6-0.3c-0.8-0.2-1.8-0.7-1.4-1.5c-0.6,0-1.1-0.5-1.6,0c-0.2-0.2,1-0.5,0.2-0.5l1-0.1
							c-0.1-1.4-1-2.4-1.7-3.7c1-0.6-0.3-1.3,0.2-2.2c0.1-0.1-0.5-0.8-0.7-0.9c-0.7-0.3-2.5,0.1-3.4,0.2c-0.1,0.4-1.2,0.1-0.6,0.5
							c-0.4,0-0.9,0.1-1.3,0.2c0.5,0,0.1,0.9,1.1,0.4c-0.1,0.7-0.1,1.5,0.2,2.2c-0.1-0.2-0.9-0.2-1.2,0.1c0.8,0.2,1.3,0.7,1.2,1.4
							c0.8-0.2,0.7-0.4,1.5-0.5c0.1,0.1,0.5,0.1,0.5,0.3c-0.8,0.3-2,0.5-1.9,1.1c-1.3,0.2-0.1-1-1.3-0.4c-1.1,0-1.4-1.1-0.8-1.4
							c-1.2-0.3-0.1,0.4-1.1,0.5c0.1,0.5,0.7,0.6,1.1,1.2c0.5-0.1,0.5-0.4,1.1-0.2c1.3,0.3-0.6,1-0.6,1.1l-0.4-0.2
							c-0.3,0.5,0.5,0.5,0.6,0.9c-1.4,0.5-0.4-0.7-1.3-0.6l-0.9,0.6c0.1,0.8,1.2-0.1,1,0.7l-0.5,0.1l0.4,0.4
							c0.5-0.2,1.3-0.5,1.1-0.8c1.4-0.2,0.3,0.3,0.7,0.8c0.8-0.1-0.1-0.2,0.6-0.5c0.7-0.3,0.8,0.1,1,0.3c0.1,0.5-0.7,0.5-1.2,0.9
							c-0.2,0-0.4-0.4,0.1-0.5c-1-0.3-1.5,0.8-2.2,0.6c-0.3,0.7,0.7,0.3,1,0.5c0-0.2,0.8-0.2,1-0.4c2.4,0-1.3,1-0.6,1.7
							c1.2-0.7,2.2,0.2,3.4-0.9c0.3,0.1,0.7,0.1,0.6,0.4c-1,0.2-0.5,0.6-1.5,0.6l0.1,0.3l-1.2,0.1c-0.5,0.6-0.8,1.3-1.2,1.7
							c0.6,0.2,0.8-0.5,1.2-0.2c-0.5,0-0.8,0.5-0.7,0.7c0.1-0.6,1.2-0.6,1.5-0.5c0.2,0.4-0.4,1.1-0.6,1.1l-0.9,0
							c0.8,0-0.3,0.3,0.2,0.5c0.5-0.2,1.3-0.4,2-0.6c0.3,0.1-0.2,0.6,0,0.7l-0.7-0.1c0.5,0.4-1.2,0.8-0.6,1.2l0.7-0.2
							c0,0.2-0.3,0.4-0.6,0.4c0.5-0.2,0.6,0.2,0.8,0.2l-0.4,0.3c0.4,0.1,1.5-0.3,0.8,0.5c0.9-0.8-0.1-0.3,0.1-0.9
							c0.6-0.7,0.9-0.1,1.1-0.1c-1.1,0.7,0.2,0.6,0.4,0.8c-0.3,0.4-0.3,0.6-0.5,0.9l0.8-0.4c-1.3,1,0.7,0.3,0.4,0.8
							c-0.5,0.2-1,0.6-1,0.9c0.8-1,1.5-0.5,2.1-1c0,0.7-1.3,0.8-1.9,1.5c0.9-0.3-0.1,0.9,1,0.3c0-0.6,0.6-0.4,1.1-0.7
							c0.2,0.5-0.5,0.3-0.6,0.8c0.3,0.1,1.2-0.3,1.2-0.8c0,0.4,1.1-0.1,0.8,0.6c-0.5,0.6-0.7-0.2-1,0.3c0.4,0.6,1.7-0.9,2.3-0.6
							c0.1-0.5,1.3-1.2,1.8-1.3c0.2,0.7-0.5,0.1-1.1,0.9l0.3,0.1c-0.7,1.2-2.2,0.8-2.7,1.9l0.6-0.1c-0.3,0.2-0.9,0.6-1.1,0.9
							c0.7-0.6,0.7,0.4,0.9,0.3c0.6-0.5-0.3,0,0.1-0.4c0.4,0.1,1.4-0.7,1.4,0.1c-0.6,0.2-0.7,0.8-1.1,1.1c0,0.4,0.7-0.6,0.7,0
							l-0.4,0.3c1,1.1,2.4,2.2,4.5,1.4c-0.3,0.7,0,1,0.3,1.9c-0.1-0.4,0.5-0.7,0.7-0.6l-0.3,0.9c0,0.7,1,0.3,1.5,0.1
							c0,0.2-0.2,0.4-0.3,0.6c0,0.7,0.6-0.2,0.8-0.3l-0.2,0.7l0.4-0.5c0.5-0.1,0.8,0.2,0.2,1.1c0.2-0.1,0.4-0.2,0.4-0.5
							c0,0.7,0.8,1.2,1.6,1.2c-0.1-0.4,0-0.6,0.3-1.2c0.6-0.9,0,0.2,0.5-0.2c-0.2,0.3-0.1,0.9-0.5,1c0.1,1.7,1.7,1.2,2.5,1.9
							c0.3-0.1,0.3-0.3,0.5-0.5c0.1,1.3,1.4,0.6,1.8,1.3c0-0.5,0.7-1.6,1.1-1.4c0.7-0.7-0.3,1.2-0.2,1.8c0.3-0.3,0.7-0.3,0.8-0.2
							l-0.1,0.1c0.4-0.4,0.8-0.5,0.9,0l-0.1,0c0.2,0.2,0.2,0.8,0.5,0.8c0.4-0.7,0.8-0.1,1.1-0.7c0,0.1-0.1,0.1-0.1,0.3l0.2-0.7
							l0.3,0.5c-0.2,0.2-0.3,0.5-0.5,0.7c0.3,0.6,0.4-0.6,0.7-0.9c0.5-0.4,0.3,0.3,0.3,0.6c-0.2,0.3-0.2-0.2-0.3-0.1
							c-0.4,0.5,0.1,0.3,0,0.7c0.1,0,0.4-0.8,0.6-0.5c0.2,0.1,0.8,0.1,0.5,0.8c0.3-0.3,0.5-0.2,0.7-0.5c-0.1-0.2-0.4-0.5-0.3-1
							c0.2,0,0.6-0.1,0.5,0.2l-0.2,0.1c0.2-0.1,0.6,0.2,0.5-0.5l0,1c0.3-0.5,0.6-0.4,0.9-0.4c-0.2,0.8-0.7,1.5-0.2,1.9l0.6-0.7
							c0.2,0,0.3,0.2,0.1,0.6c0.7,0.6,1.3-1.9,1.8-1.1c-0.5,0.8-0.3,1-0.1,1.3c0-0.1,0.1-0.4,0.3-0.4c0-0.4-0.3,0.6-0.4-0.1
							c0.1-0.6,0.3-0.3,0.5-0.5c0.1,2.1,1.7,0.9,2.4,2c0.2-1.1,0.5-0.2,0.7-0.6c-0.3,1.1,0.5-0.1,0.7,0.6l0.1-1.2
							c0.4,0.8,1.2-1.6,1.3-0.1c0.3,0.4-0.2,0.8-0.4,1c0.2,1.3,1.3-0.8,1.4,0.6c0.1-0.5,0.1-1.2,0.5-1.6c0.2,0.5,0.7,1.2,0.7,1.4
							c0.3-0.2,0.4-0.6,0.6-0.1c-0.1,0.3-0.2,0.3-0.3,0.4c0.4,0.4,0.8-0.1,1.2-0.5c0.1,0.9,0.9,0.6,1.4,1.1c0.4-1.1,0.8,0.5,0.9-0.9
							c0,0.1,0,0.3,0,0.4c0.2-0.4,0.4-1.3,0.7-1.3l-0.2,0.9c-0.2,1.2,0.6,0.3,0.7,0.9c-0.1-0.8,0.3,0,0.3-0.7l0.3-0.3
							c0.5-0.2,0.1-0.5,0.6-0.5c0.3,0,0,1.1-0.1,0.9c0.2,0.5,0.5,0.2,0.8,0.1c-0.1,0-0.1-0.1,0-0.3c0,0.1,0,0.2,0.1,0.2
							c0.1-0.1,0.2-0.1,0.3-0.1l0.4-0.2c0.1-0.1,0.1-0.1,0.2-0.1c0.2-0.1,0.2-0.1,0.1,0.1l-0.1-0.1l-0.2,0.1
							c-0.1,0.1-0.3,0.4-0.4,0.4c0.1,0,0.2,0.1,0.2,0.2l-0.1,0.7c0.2,0,0.8-0.8,0.7-1.1c0.7,0.6,2,0.1,2.5-0.2l0.1-0.1l-0.1,0.1
							c-0.1,0.2-0.1,0.4,0,0.2c0.3-0.1,0.6-0.7,0.6-0.3c0.2-0.3,0.2,0.5,0.6,0.6c0,0.2,0.1-0.7,0-0.6c0.6,1.1,1.5-0.7,2.2,0l0,0l0,0
							c-0.1,0.1-0.1,0.5-0.2,0.7c0.6-0.4,1.1-0.7,1.6-1.6c0,0.3,0,0.6-0.2,0.8c0.4,0,0.9-0.2,1-0.9c-0.3-0.3,0,0.4-0.2,0.4
							c-0.3-0.6,0.2-1.3,0.4-1.2l0,0.2c0.4,0,0.4-0.4,0.8-0.5c0.3,0.4-0.2,0.2-0.1,0.7c0.2,1.1,1,0.7,1.1,0.8
							c0.1-0.3,0.2-0.5,0.2-0.8c0.3-0.3,0.2,0.7,0.4,0.6l0.7-2.3c-0.2,0.2,0.4,1,0.1,1.5c0.6-0.2,0.9-1.6,1.2-2.3
							c0.2,0.2,0.8-0.4,1-0.4c0.2,0.6-0.2,0-0.2,0.5l0.4,0.7c-0.4,0.1,0.2,1.1,0,1.5c0.3-0.4,1.2-0.1,1.7,0.1
							c-0.5-1.3,0.6-0.7,0.5-1.9c0.6-0.3,0.4,0.9,0.7,1.1c0.6-0.6,1.2-0.3,1.8-0.5c0,0,0,0.2,0,0.2c0.5-0.4,1.4-0.2,1.7-1.3
							c0,0.2,0.1,0.5,0,0.7c0.6,0.3-0.2-1.5,0.6-0.9l0,0.6c0.3-0.6,0.9,0.4,1.2-0.6c0.1,0.3,0,0.4,0,0.6c0.4-0.3,0.9-0.3,1.1-1.1
							c0.1,0.4,0.1,0.7,0,1c0.5,0.4,0.2-1.1,0.7-0.8c0.1,0,0.4,0.5,0.4,0.5c0.1-0.5,0.7-0.6,0.8-0.9c0.1,0.4,0.3,0.4,0.6,0.8
							c2.1-0.5,4.3-0.9,5.9-2.5c0.7,1-0.3,0.8,0.2,1.6c-0.3-1,0.3-0.4,0.8-0.9l0.1,0.1c0.2-0.3,0.5,0.3,0.7-0.1l-0.1-0.2
							c0.1-0.7,1.1,1,0.8-0.3l0.5,0.6c-0.1-1.2,0.6,0.2,0.6-0.9l0,0.2c0.7,0.3,0.6-1.5,1.1-0.7c0.3-0.3,0.7-0.7,0.5-1.6
							c0.2,0.3,0.4,0.8,0.4,1.1c1.3-1,3.1-1.5,3.9-3.3c0.1,0.1,0.1,0.3,0.2,0.5c0.3-1.3,2.2,0.2,1.8-1.9l-0.2-0.9
							c0.3,0.2,0.6,0.7,0.9,0.9c-0.1-0.6,0.6-0.5,0.3-1.2c0.3,0.2,0.2,0.4,0.3,0.6c0.4-0.1,0.2-1.3,0.7-1.3l0.1,0.4
							c2.4,0.2,5.4-0.7,5.4-3.2c0.1-0.5,0.9,0.7,1,0.5c0.2-2.3,3.4-2.3,2.4-5c0.2-1.2-4.9-2.4-4.8-2.5
							C990.2,209.6,990.7,210.4,988,211z"/>
					</g>
				</g>
				<g>
					<g>
						<path d="M940.7,232l0,0.2l0.1,0c0.1-0.1,0.2-0.3,0.4-0.4L940.7,232z"/>
					</g>
				</g>
				<g>
					<g>
						<path d="M940.7,232l-0.3,0.1c0.1,0.1,0.2,0.1,0.3,0.1L940.7,232z"/>
					</g>
				</g>
				<g>
					<g>
						<path d="M932.7,223.1L932.7,223.1l0.2-0.1C932.8,223,932.8,223,932.7,223.1z"/>
					</g>
				</g>
				<g>
					<g>
						<polygon points="940.4,232.1 940.4,232.1 940.4,232.1 						"/>
					</g>
				</g>
				<g>
					<g>
						<path d="M890.4,196.2c-0.1,0.1-0.1,0.1,0,0.2l0.5,0C890.7,196.3,890.4,196.4,890.4,196.2z"/>
					</g>
				</g>
				<g>
					<g>
						<path d="M890.9,196.4L890.9,196.4l-0.5,0c0.1,0.1,0.2,0.1,0.2,0.2C890.7,196.5,891.1,196.4,890.9,196.4z"/>
					</g>
				</g>
				<g>
					<g>
						<path d="M891,199c-0.5,0-0.9-0.5-1-0.8L891,199z"/>
					</g>
				</g>
				<g>
					<g>
						<path d="M889.6,201.8c-0.3,0.3-0.5,0.3-0.6,0C889.2,201.8,889.4,201.8,889.6,201.8z"/>
					</g>
				</g>
				<g>
					<g>
						<path d="M890.7,201.8c0.1,0.2-0.2,0.4-0.4,0.5C890.7,202.2,889.9,201.9,890.7,201.8z"/>
					</g>
				</g>
				<g>
					<g>
						<path d="M891.2,207.5c0.1,0.1,0.6,0.2,0.1,0.6C891.6,207.8,890.5,207.7,891.2,207.5z"/>
					</g>
				</g>
				<g>
					<g>
						<path d="M892.9,209.7c0,0.1,0,0.2,0.1,0.2c-0.1,0.2-0.5,0.2-0.6,0.1L892.9,209.7z"/>
					</g>
				</g>
				<g>
					<g>
						<polygon points="930.2,231.3 929.9,231.5 930,231 						"/>
					</g>
				</g>
				<g>
					<g>
						<path d="M948.6,232.5c0.2-0.3,0.2,0.4,0.2,0.5C948.6,233,948.9,232.4,948.6,232.5z"/>
					</g>
				</g>
				<g>
					<g>
						<polygon points="958.2,229.5 958.1,229.5 958,228.5 						"/>
					</g>
				</g>
			</g>
		</g>
		<g>
			<g>
				<g>
					<path d="M232.2,180.4l-8.6-0.6l0.6-23l-7.4-0.6l-1.7,65.3l7.4,0.6l-0.4,16.7l-27.6-2.1l0.4-16.7l7.4,0.6l1.7-65.3l-7.4-0.6
						l-0.6,23l-8.6-0.6l1-39.7l44.7,3.4L232.2,180.4z"/>
				</g>
			</g>
			<g>
				<g>
					<path d="M242.9,222.2l5.8-0.6l1.7-65.3l-5.8,0.6l0.4-16.7l23.6-2.3l-0.4,16.7l-5,0.5l-0.6,21.7l13.4-1.3l0.6-21.7l-5,0.5
						l0.4-16.7l23.6-2.3l-0.4,16.7l-5.8,0.6l-1.7,65.3l5.8-0.6L293,234l-23.6,2.3l0.4-16.7l5-0.5l0.7-26.9l-13.4,1.3l-0.7,26.9
						l5-0.5l-0.4,16.7l-23.6,2.3L242.9,222.2z"/>
				</g>
			</g>
			<g>
				<g>
					<path d="M305.2,215.2l5.7-1.1l1.7-65.3l-5.7,1.1l0.4-16.7l42.6-8.4l-0.8,31.3l-9.2,1.8l0.4-14.5l-15.1,3l-0.6,22.7l12.1-2.4
						l-0.4,16.7l-12.1,2.4l-0.7,25.9l15.1-3l0.4-14.7l9.2-1.8l-0.8,31.4l-42.6,8.4L305.2,215.2z"/>
				</g>
			</g>
			<g>
				<g>
					<path d="M381.8,133.7l-5,1.5l0.4-16.7l21.3-6.3l-0.4,16.7l-4.8,1.4l6.4,45.1l0.1,0l8.4-49.5l-4.3,1.3l0.4-16.7l17-5l-0.4,16.7
						l-4.4,1.3l6.4,45.1l0.1,0l8.7-49.6l-4.9,1.4l0.4-16.7l19.1-5.7l-0.4,16.7l-5.2,1.5l-15.4,86.6l-8.6,2.5l-6.4-42.8l-0.1,0
						l-8.3,47.2l-8.7,2.6L381.8,133.7z"/>
				</g>
			</g>
			<g>
				<g>
					<path d="M453.3,176.5l5.5-2l1.7-65.3l-5.5,2l0.4-16.7L496.3,80l-0.8,31.3l-8.8,3.1l0.4-14.5l-14.5,5.1l-0.6,22.7l11.6-4.1
						l-0.4,16.7l-11.6,4.1l-0.7,25.9l14.5-5.1l0.4-14.7l8.8-3.1l-0.8,31.4l-40.9,14.6L453.3,176.5z"/>
				</g>
			</g>
			<g>
				<g>
					<path d="M505.5,156.9l7-2.5l1.7-65.3l-7,2.5l0.4-16.7l24.3-8.7c8.4-3,14.1-1.8,18.6,6.6c4.4,8.2,6,20.3,5.7,33.8
						c-0.7,25.6-8.7,51.8-23.5,57.1l-27.6,9.9L505.5,156.9z M529.2,148.4c9.2-3.3,13.9-17.5,14.4-37.1c0.5-21.2-4.1-31.2-13.1-28
						l-4.2,1.5l-1.7,65.3L529.2,148.4z"/>
				</g>
			</g>
			<g>
				<g>
					<path d="M567.6,136l7.3-1.7l1.7-65.3l-7.3,1.7l0.4-16.7l25.2-5.7c8.7-2,14.7,0,19.3,8.9c4.6,8.8,6.3,21.1,5.9,34.6
						c-0.7,25.6-9,50.9-24.3,54.4l-28.6,6.5L567.6,136z M592.2,130.4c9.6-2.2,14.4-15.8,14.9-35.5c0.5-21.2-4.2-31.8-13.6-29.7
						l-4.3,1l-1.7,65.3L592.2,130.4z"/>
				</g>
			</g>
			<g>
				<g>
					<path d="M630.9,122.4l7.4-1.2l1.7-65.3l-7.4,1.2l0.4-16.7l27.5-4.5l-0.4,16.7l-7.4,1.2l-1.7,65.3l7.4-1.2l-0.4,16.7l-27.5,4.5
						L630.9,122.4z"/>
				</g>
			</g>
			<g>
				<g>
					<path d="M668.7,116l6.6-0.7l1.7-65.3l-6.6,0.7l0.4-16.7l20.5-2.2l16.4,59.7l0.1,0l1.2-44.9l-6.4,0.7l0.4-16.7l22.1-2.4
						L724.7,45l-6.9,0.7l-2.1,82l-11,1.2l-19.1-70.3l-0.1,0l-1.4,55.8l6.1-0.7l-0.4,16.7l-21.5,2.3L668.7,116z"/>
				</g>
			</g>
			<g>
				<g>
					<path d="M767.1,75.6l23.1-0.5c0,39.7-16.7,51.5-28.1,51.7c-18.4,0.4-26.9-22.5-26.2-50.3c0.8-29.8,12.1-50.9,27.5-51.3
						c6.3-0.1,11.8,3.2,15.2,9.4l0.2-8.1l8.4-0.2l-0.9,35l-8.4,0.2c-0.8-5.8-2.5-10.6-4.8-13.8c-2.5-3.6-5.1-5-8.3-4.9
						c-8.4,0.2-14.5,13.1-15,31.8c-0.6,24.9,6.6,34.3,13.6,34.2c5.8-0.1,10-6,11.8-16.7l-8.7,0.2L767.1,75.6z"/>
				</g>
			</g>
			<g>
				<g>
					<path d="M884.4,86.9c-0.7,25.3-10,49.2-28.4,46c-18.3-3.2-26.4-29.8-25.7-55.4c0.7-26.3,10.4-49.3,28.3-46.2
						C876.7,34.5,885.1,60.7,884.4,86.9z M843.9,80.3c-0.5,19,4.6,33.2,12.6,34.6c6.7,1.2,13.7-7.8,14.3-30.5
						c0.5-20.3-5-33.7-12.6-35C851.8,48.3,844.5,56.5,843.9,80.3z"/>
				</g>
			</g>
			<g>
				<g>
					<path d="M895.6,124.4l6.6,2.5l1.7-65.3l-6.6-2.5l0.4-16.7l41.2,16l-0.8,30.4l-8.8-3.4l0.4-13.7l-13.8-5.4l-0.6,22.8l10,3.9
						l-0.4,16.7l-10-3.9l-0.7,25.7l7.1,2.7l-0.4,16.7l-25.6-9.9L895.6,124.4z"/>
				</g>
			</g>
		</g>
	</g>
</g>
</svg>
