<?xml version="1.0" encoding="utf-8"?>
<!-- Generator: Adobe Illustrator 26.0.1, SVG Export Plug-In . SVG Version: 6.00 Build 0)  -->
<svg version="1.1" id="Layer_2" xmlns="http://www.w3.org/2000/svg" xmlns:xlink="http://www.w3.org/1999/xlink" x="0px" y="0px"
	 viewBox="0 0 1008 103.5" xml:space="preserve">
<g>
	<g>
		<g>
			<path d="M690.7,66.2c17.3,11.9,44-4,67.5-13.1c22-8.5,53.8-11.9,71.4-0.9c1.8,1.1,8.8-6.4,26.3-3.4c29.8,5.1,66.8,27.7,98.3,6.5
				c23.3-15.7,2.1-40.2-11.1-32.6c-3.3,1.9-2.8,3.4-2,4.7c6.2,0,2.2,7.9-2.3,5c-6.1-4-4.3-13.6,6.1-15.6c19.4-3.8,34,21.8,17.8,38.2
				c-8.5,8.6-24.3,15.6-43.8,14.3c-34.5-2.2-62.7-23-84.4-13.1c10.3,12.9-2.8,18.5-9.6,12.8c-3-2.5-3.9-6.4-0.8-11
				c1.6-2.5,2.5-1.8,0-3c-31.7-15-77.2,8.3-95.9,15.7c-13.1,5.2-27.9,7.4-39.8,0c-6.2-3.8,0.6-2.7-15.7-0.1
				c-31.5,5-75.7-8.5-96.2-13.1c-63.8-14.5-73.5,29.6-60.3,29.2c5.1-0.1,4.9,6.5-2.9,4.2c-11.4-3.3-7.7-19.1,0.7-27.8
				c36.9-37.9,112,17.1,167,0.5c-13.7-23.3,8.9-35.4,22.2-24.1c7.1,6.1,5.3,16.2-5.7,22.9C695.3,63.9,693,65,690.7,66.2z
				 M686.2,62.2c27.1-9.7,13.8-25.3,1.2-20.8C679.5,44.3,681.1,55.1,686.2,62.2z M829.9,59.1c-0.7,0.8-1.3,1.4-1.8,2.1
				C823.8,67.5,839.6,68.9,829.9,59.1z"/>
			<path d="M926.5,80.7c-11.8-1.1-11.6-0.9-13.9-2c-1.9-1-3-2.8-1.5-4.3c2-2,2.6,0.8,7,0.9c8.8,0.2,17.1,1.4,29.2-3.7
				c3.4-1.4,5.1,2.5,2.5,4.4C947.9,77.4,936.8,81.1,926.5,80.7z"/>
			<path d="M711.5,60.2c-2.1,1.2-4.6-1.1-3.1-3.5c1-1.6,6.5-4.9,4.2-14.3c-0.5-2.1-2.9-3.4-3.4-3.8c-2.2-1.8,0-5.1,2.4-3.8
				C721.2,39.8,719.2,55.8,711.5,60.2z"/>
		</g>
		<g>
			<path d="M311.2,62.6c-11-6.7-12.8-16.9-5.7-22.9c13.3-11.3,35.9,0.8,22.2,24.1c55.1,16.6,130.1-38.4,167-0.5
				c8.5,8.7,12.2,24.5,0.7,27.8c-7.8,2.3-8.1-4.3-2.9-4.2c13.2,0.4,3.5-43.7-60.3-29.2c-20.5,4.6-64.6,18.1-96.2,13.1
				c-16.3-2.6-9.5-3.7-15.7,0.1c-11.9,7.4-26.7,5.2-39.8,0c-18.7-7.4-64.2-30.7-95.9-15.7c-2.5,1.2-1.6,0.5,0,3
				c3.1,4.6,2.2,8.5-0.8,11c-6.8,5.7-20,0.1-9.6-12.8c-21.7-10-49.9,10.9-84.4,13.1C70.3,70.6,54.5,63.6,46,55
				c-16.2-16.4-1.5-42,17.8-38.2c10.4,2,12.2,11.6,6.1,15.6c-4.5,3-8.5-5-2.3-5c0.9-1.3,1.3-2.8-2-4.7
				c-13.2-7.6-34.4,16.9-11.1,32.6c31.5,21.2,68.5-1.4,98.3-6.5c17.6-3,24.5,4.5,26.3,3.4c17.6-11,49.4-7.6,71.4,0.9
				c23.5,9,50.2,24.9,67.5,13.1C315.6,65,313.3,63.9,311.2,62.6z M321.2,41.4c-12.6-4.5-25.8,11.1,1.2,20.8
				C327.6,55.1,329.2,44.3,321.2,41.4z M180.5,61.3c-0.5-0.8-1.2-1.4-1.8-2.1C169.1,68.9,184.8,67.5,180.5,61.3z"/>
			<path d="M82.1,80.7c11.8-1.1,11.6-0.9,13.9-2c1.9-1,3-2.8,1.5-4.3c-2-2-2.6,0.8-7,0.9c-8.8,0.2-17.1,1.4-29.2-3.7
				c-3.4-1.4-5.1,2.5-2.5,4.4C60.7,77.4,71.8,81.1,82.1,80.7z"/>
			<path d="M297.1,60.2c2.1,1.2,4.6-1.1,3.1-3.5c-1-1.6-6.5-4.9-4.2-14.3c0.5-2.1,2.9-3.4,3.4-3.8c2.2-1.8,0-5.1-2.4-3.8
				C287.4,39.8,289.4,55.8,297.1,60.2z"/>
		</g>
	</g>
	<g>
		<path d="M504.1,34.6c3.5-5.5,8.4-9,15.6-10.3c11.5-2,10.9,19.2-12.5,31.4c-1.2,0.6-1.6,2.2-3.9,1.5c-5.1-1.6-14.1-9.2-17.5-19.2
			c-3.3-9.8,3.9-14.1,9.3-11.9C499,27.5,501.6,31,504.1,34.6z M521.2,29.3c-5.5,0.2-12.6,4.6-14.7,13c-0.8,3.1-4.6,3-5.1-0.2
			c-1.6-9.2-11.1-15.1-11.1-9.2c0,4.1,3.3,12,12.5,18.7c0.5,0.4,0.3,0.5,4.8-2.1C517.1,44,524,33.6,521.2,29.3z"/>
		<path d="M536.5,29.7c-0.2,3.5-1.8,9.1-5.1,7.4c-4.4-2.2,3.5-5.4-1.9-13.7c-0.7-1.1-1.6-2-3.1-2c-1.2,0-2.1-0.9-2.2-2.1
			C523.8,13.9,535.9,16.8,536.5,29.7z"/>
	</g>
</g>
</svg>
