<?xml version="1.0" encoding="UTF-8"?>
<svg id="Layer_1" xmlns="http://www.w3.org/2000/svg" version="1.1" viewBox="0 0 642.53 135.5">
  <!-- Generator: Adobe Illustrator 30.5.1, SVG Export Plug-In . SVG Version: 2.1.4 Build 3)  -->
  <defs>
    <style>
      .st0 {
        fill: #fff;
      }
    </style>
  </defs>
  <g>
    <path class="st0" d="M336.38,58.04h0s-31.14,0-31.14,0c-4.24,0-7.7,3.45-7.7,7.7v29.58c1.66.45,3.37.76,5.13.92v-30.5c0-1.41,1.15-2.56,2.57-2.56h31.03c18.53,0,33.6,15.07,33.6,33.6s-15.07,33.6-33.6,33.6c-14.72,0-27.25-9.52-31.78-22.71l-2.21-.12c-1.12-.09-2.23-.23-3.32-.4,4.54,16.34,19.54,28.37,37.31,28.37,21.36,0,38.73-17.38,38.73-38.73s-17.32-38.67-38.62-38.73Z"/>
    <path class="st0" d="M305.36,104.57h31.15c4.24,0,7.7-3.45,7.7-7.7v-29.58c-1.66-.45-3.37-.76-5.13-.92v30.5c0,1.41-1.15,2.56-2.56,2.56h-31.04c-18.53,0-33.6-15.07-33.6-33.6s15.07-33.6,33.6-33.6c14.72,0,27.25,9.52,31.78,22.71l2.21.12c1.12.09,2.23.23,3.32.4-4.2-15.1-17.34-26.51-33.33-28.16l11.66-15.45.14-.21c.79-1.37.64-2.55.38-3.3-.31-.89-1.13-2.11-3.28-2.97l-9.78-4.68c-1.98-.95-4.25-.95-6.24,0l-9.8,4.7c-1.68.72-2.8,1.78-3.24,3.07-.25.73-.38,1.88.37,3.18l11.8,15.65c-19.48,2.01-34.73,18.52-34.73,38.53,0,21.32,17.32,38.67,38.62,38.73h0ZM294.18,9.17l9.94-4.76c.85-.41,1.83-.41,2.69,0l9.85,4.72.15.06c.44.17.71.34.85.45l-11.15,14.77v-11.93c0-.57-.46-1.03-1.03-1.03s-1.03.46-1.03,1.03v11.99l-11.14-14.79c.14-.13.42-.32.87-.51Z"/>
    <path class="st0" d="M315.84,89.62l12.62-7.29c.79-.46.79-1.6,0-2.06l-12.62-7.29c-.79-.46-1.79.11-1.79,1.03v14.57c0,.92.99,1.49,1.79,1.03Z"/>
  </g>
  <g>
    <path class="st0" d="M1.89,103.13c-.59,0-1.05-.18-1.39-.54-.34-.36-.5-.85-.5-1.48v-41.14c0-.67.17-1.17.5-1.51s.8-.5,1.39-.5c.63,0,1.11.17,1.45.5.34.34.5.84.5,1.51v18.52h28.35v-18.52c0-.67.17-1.17.5-1.51s.82-.5,1.45-.5c.59,0,1.05.17,1.39.5.34.34.5.84.5,1.51v41.14c0,.63-.17,1.12-.5,1.48-.34.36-.8.54-1.39.54-.63,0-1.11-.18-1.45-.54-.34-.36-.5-.85-.5-1.48v-19.15H3.84v19.15c0,.63-.16,1.12-.47,1.48-.31.36-.81.54-1.48.54Z"/>
    <path class="st0" d="M66.72,103.13c-.59,0-1.05-.18-1.39-.54-.34-.36-.5-.85-.5-1.48v-41.14c0-.67.17-1.17.5-1.51s.8-.5,1.39-.5c.63,0,1.11.17,1.45.5.34.34.5.84.5,1.51v41.14c0,.63-.16,1.12-.47,1.48-.31.36-.81.54-1.48.54Z"/>
    <path class="st0" d="M110.38,103.13c-.63,0-1.11-.18-1.45-.54s-.5-.85-.5-1.48v-39.31h-15.06c-.59,0-1.05-.17-1.39-.5-.34-.34-.5-.76-.5-1.26,0-.55.17-.97.5-1.26.33-.29.8-.44,1.39-.44h34.08c.59,0,1.04.15,1.35.44.31.29.47.71.47,1.26s-.16.98-.47,1.29-.77.47-1.35.47h-15.12v39.31c0,.63-.16,1.12-.47,1.48-.31.36-.81.54-1.48.54Z"/>
    <path class="st0" d="M167.77,103.25c-4.24,0-7.88-.91-10.9-2.74s-5.34-4.44-6.96-7.84-2.42-7.46-2.42-12.16c0-3.53.45-6.69,1.35-9.48.9-2.79,2.23-5.17,3.97-7.12,1.74-1.95,3.88-3.45,6.43-4.5s5.39-1.58,8.54-1.58c2.77,0,5.35.4,7.75,1.2,2.39.8,4.45,1.97,6.17,3.53.42.38.69.78.82,1.2.13.42.14.81.03,1.17-.11.36-.31.65-.6.88-.29.23-.64.34-1.04.31-.4-.02-.83-.22-1.29-.6-1.6-1.39-3.37-2.41-5.32-3.09-1.95-.67-4.11-1.01-6.46-1.01-3.49,0-6.44.75-8.85,2.24-2.42,1.49-4.24,3.67-5.48,6.52-1.24,2.86-1.86,6.3-1.86,10.33s.62,7.54,1.86,10.4c1.24,2.86,3.07,5.03,5.48,6.52,2.42,1.49,5.37,2.24,8.85,2.24,2.31,0,4.45-.35,6.43-1.04,1.97-.69,3.78-1.73,5.42-3.12.46-.38.89-.57,1.29-.57s.73.12,1.01.35c.27.23.47.53.6.88.13.36.14.72.03,1.1-.11.38-.35.74-.72,1.07-1.81,1.64-3.9,2.87-6.27,3.69s-4.99,1.23-7.84,1.23Z"/>
    <path class="st0" d="M210.54,103.13c-.59,0-1.05-.18-1.39-.54-.34-.36-.5-.85-.5-1.48v-41.14c0-.67.17-1.17.5-1.51s.8-.5,1.39-.5c.63,0,1.11.17,1.45.5.34.34.5.84.5,1.51v18.52h28.35v-18.52c0-.67.17-1.17.5-1.51s.82-.5,1.45-.5c.59,0,1.05.17,1.39.5.34.34.5.84.5,1.51v41.14c0,.63-.17,1.12-.5,1.48-.34.36-.8.54-1.39.54-.63,0-1.11-.18-1.45-.54-.34-.36-.5-.85-.5-1.48v-19.15h-28.35v19.15c0,.63-.16,1.12-.47,1.48-.31.36-.81.54-1.48.54Z"/>
  </g>
  <g>
    <path class="st0" d="M412.83,101.81c-1.93,0-3.82-.15-5.67-.44-1.85-.29-3.59-.75-5.23-1.35-1.64-.61-3.11-1.35-4.41-2.24-.63-.46-1.06-.99-1.29-1.58-.23-.59-.29-1.17-.19-1.73.1-.57.35-1.06.72-1.48.38-.42.84-.68,1.39-.79.54-.1,1.15.07,1.83.54,1.89,1.22,3.88,2.11,5.98,2.68,2.1.57,4.39.85,6.87.85,3.57,0,6.21-.64,7.91-1.92,1.7-1.28,2.55-2.95,2.55-5.01,0-1.68-.61-3.01-1.83-4-1.22-.99-3.25-1.77-6.11-2.36l-6.74-1.39c-3.99-.84-6.96-2.23-8.91-4.16-1.95-1.93-2.93-4.54-2.93-7.81,0-1.97.41-3.78,1.23-5.42.82-1.64,1.96-3.06,3.43-4.25,1.47-1.2,3.23-2.11,5.29-2.74,2.06-.63,4.3-.95,6.74-.95,2.6,0,5.05.34,7.34,1.01,2.29.67,4.34,1.7,6.14,3.09.54.38.91.85,1.1,1.42.19.57.23,1.12.13,1.67-.11.55-.35,1.01-.72,1.39s-.86.6-1.45.66c-.59.06-1.24-.14-1.95-.6-1.64-1.09-3.31-1.88-5.01-2.36-1.7-.48-3.58-.72-5.64-.72s-3.85.32-5.39.95-2.71,1.51-3.53,2.65c-.82,1.13-1.23,2.48-1.23,4.03,0,1.76.57,3.17,1.7,4.22,1.13,1.05,3.02,1.85,5.67,2.39l6.68,1.39c4.2.88,7.33,2.25,9.39,4.1,2.06,1.85,3.09,4.31,3.09,7.37,0,1.97-.4,3.75-1.2,5.32s-1.93,2.93-3.4,4.06c-1.47,1.13-3.25,2.01-5.32,2.61s-4.42.91-7.02.91Z"/>
    <path class="st0" d="M451.64,101.69c-1.05,0-1.86-.29-2.43-.88-.57-.59-.85-1.41-.85-2.46v-36.04h-13.36c-.88,0-1.58-.24-2.08-.72-.5-.48-.76-1.17-.76-2.05s.25-1.55.76-2.02,1.2-.69,2.08-.69h33.2c.92,0,1.64.23,2.14.69s.76,1.13.76,2.02-.25,1.57-.76,2.05c-.5.48-1.22.72-2.14.72h-13.36v36.04c0,1.05-.26,1.87-.79,2.46-.53.59-1.33.88-2.42.88Z"/>
    <path class="st0" d="M479.3,101.69c-1.05,0-1.86-.29-2.43-.88-.57-.59-.85-1.41-.85-2.46v-38.18c0-1.09.29-1.92.88-2.49.59-.57,1.41-.85,2.46-.85h15.06c4.79,0,8.48,1.13,11.09,3.4,2.6,2.27,3.91,5.48,3.91,9.64,0,2.69-.59,5-1.76,6.93-1.18,1.93-2.89,3.4-5.13,4.41s-4.95,1.51-8.1,1.51l.57-.88h1.64c1.68,0,3.14.42,4.38,1.26,1.24.84,2.36,2.18,3.37,4.03l5.42,10.08c.42.76.62,1.48.6,2.17-.02.69-.27,1.25-.76,1.67-.48.42-1.17.63-2.05.63s-1.67-.2-2.24-.6c-.57-.4-1.08-1-1.54-1.8l-6.62-12.22c-.88-1.64-1.89-2.74-3.02-3.31-1.13-.57-2.62-.85-4.47-.85h-7.12v15.43c0,1.05-.27,1.87-.82,2.46-.55.59-1.37.88-2.46.88ZM482.57,78h10.77c3.19,0,5.61-.67,7.25-2.02,1.64-1.34,2.46-3.34,2.46-5.99s-.82-4.58-2.46-5.92c-1.64-1.34-4.05-2.02-7.25-2.02h-10.77v15.94Z"/>
    <path class="st0" d="M519.68,101.25c-1.13,0-2.01-.3-2.62-.91-.61-.61-.91-1.48-.91-2.62v-37.36c0-1.13.3-2.01.91-2.62.61-.61,1.48-.91,2.62-.91h23c.88,0,1.55.22,2.02.66.46.44.69,1.08.69,1.92,0,.88-.23,1.55-.69,2.02-.46.46-1.13.69-2.02.69h-20.22v13.92h18.84c.92,0,1.61.23,2.05.69.44.46.66,1.11.66,1.95,0,.88-.22,1.54-.66,1.98-.44.44-1.12.66-2.05.66h-18.84v14.62h20.22c.88,0,1.55.23,2.02.69.46.46.69,1.11.69,1.95,0,.88-.23,1.54-.69,1.99-.46.44-1.13.66-2.02.66h-23Z"/>
    <path class="st0" d="M553.38,101.69c-.84,0-1.51-.19-2.02-.57-.5-.38-.8-.88-.88-1.51s.04-1.34.38-2.14l17.07-38.3c.42-1.01.96-1.72,1.61-2.14s1.38-.63,2.17-.63c.76,0,1.46.21,2.11.63.65.42,1.19,1.13,1.61,2.14l17.07,38.3c.38.8.52,1.52.44,2.17-.08.65-.36,1.16-.82,1.51-.46.36-1.11.54-1.95.54-.92,0-1.66-.23-2.21-.69-.55-.46-1.03-1.18-1.45-2.14l-4.41-10.21,2.96,1.76h-26.84l2.9-1.76-4.35,10.21c-.42,1.01-.88,1.73-1.39,2.17-.5.44-1.18.66-2.02.66ZM571.59,64.08l-9.51,22.55-1.58-1.51h22.24l-1.45,1.51-9.58-22.55h-.13Z"/>
    <path class="st0" d="M601.89,101.69c-.97,0-1.71-.27-2.24-.82-.53-.55-.79-1.3-.79-2.27v-39.12c0-1.01.27-1.77.82-2.3.54-.52,1.28-.79,2.21-.79s1.56.16,2.05.47c.48.32.93.87,1.35,1.67l16.51,30.81h-1.95l16.44-30.81c.42-.8.86-1.35,1.32-1.67.46-.31,1.13-.47,2.02-.47s1.64.26,2.14.79c.5.53.76,1.29.76,2.3v39.12c0,.97-.24,1.72-.72,2.27-.48.54-1.21.82-2.17.82s-1.7-.27-2.21-.82c-.5-.55-.76-1.3-.76-2.27v-32.51h1.39l-14.62,27.03c-.34.63-.69,1.09-1.07,1.39-.38.29-.9.44-1.58.44s-1.22-.16-1.64-.47c-.42-.32-.8-.77-1.13-1.35l-14.74-27.09h1.51v32.57c0,.97-.24,1.72-.72,2.27-.48.54-1.21.82-2.17.82Z"/>
  </g>
</svg>