<?xml version="1.0" encoding="utf-8"?>
<!-- Generator: Adobe Illustrator 26.0.1, SVG Export Plug-In . SVG Version: 6.00 Build 0)  -->
<svg version="1.1" id="Isolation_Mode" xmlns="http://www.w3.org/2000/svg" xmlns:xlink="http://www.w3.org/1999/xlink" x="0px"
	 y="0px" viewBox="0 0 262.9 200" xml:space="preserve">
<g>
	<g>
		<g>
			<g>
				<path d="M43,39c-7.1,0.7-29.5-6-35.4-10.6c4.2,9.9,16.6,15.5,21.3,17.8c-6.3,0-20.8-7-23.3-9.3C11.4,51.3,26.2,61.4,41,61
					C40.2,52.9,42.5,47.6,43,39z"/>
			</g>
		</g>
		<g>
			<g>
				<g>
					<path d="M40.7,38.1c-0.2,0-0.3-0.2-0.6-0.1c-0.1-0.1,0.2-0.1-0.1-0.2c-0.2,0.1,0.1,0.3,0.5,0.4l0,0
						C40.6,38.2,40.6,38.1,40.7,38.1z"/>
				</g>
			</g>
			<g>
				<g>
					<path d="M40.6,38.2L40.6,38.2L40.6,38.2z"/>
				</g>
			</g>
			<g>
				<g>
					<path d="M31.4,36.3c0,0-0.1,0-0.2,0L31.4,36.3z"/>
				</g>
			</g>
			<g>
				<g>
					<path d="M15.2,41.4L15.2,41.4L15.2,41.4z"/>
				</g>
			</g>
			<g>
				<g>
					<path d="M41,38.1c-0.1,0-0.2,0-0.3,0C40.8,38.1,40.9,38.1,41,38.1z"/>
				</g>
			</g>
			<g>
				<g>
					<path d="M8.2,38L8.2,38C8.3,38,8.3,38,8.2,38z"/>
				</g>
			</g>
			<g>
				<g>
					<path d="M14.6,41.3L14.6,41.3C14.3,41.2,14.4,41.2,14.6,41.3z"/>
				</g>
			</g>
			<g>
				<g>
					<path d="M11.5,39.8l-0.2-0.1L11.5,39.8z"/>
				</g>
			</g>
			<g>
				<g>
					<path d="M7.9,38L7.9,38L7.9,38z"/>
				</g>
			</g>
			<g>
				<g>
					<polygon points="10.3,31.4 10.3,31.4 10.4,31.6 					"/>
				</g>
			</g>
			<g>
				<g>
					<path d="M40.3,49.7c-0.1,1.3-0.3,2.9-0.5,4.1c-0.1,1.2-0.2,2.5-0.2,3.8c-0.1,0.6,0,1.3,0,1.9l0,1l0,0.5l0,0.1l0,0.1l0,0l0,0
						c-0.3,0.3,2.4-2.7,1.3-1.4h0l0,0l-0.2,0c-2.4-0.1-4.7-0.3-7.1-0.8c0.2,0.1-0.1,0.2-0.3,0.2l0-0.1l-0.4,0.1
						c-0.4-0.1-0.2-0.2,0.1-0.2c-1.9-0.5-3.5-0.9-5.2-1.6c-0.2,0.1-0.9-0.4-1-0.2c-0.1-0.1,0,0,0.1-0.1c-1.2-0.4-1.3-0.4-2.3-1.2
						c-4.4-2.5-8.3-5.5-11.6-9.3c-1.6-1.9-3.2-3.9-4.4-6.1c-0.7-1.1-1.2-2.2-1.8-3.4l-0.2-0.4l0-0.1l0,0l0,0l0,0
						c1.6-1.1-2.2,1.5-1.8,1.3l0,0l0.1,0.1l0.2,0.2c0.3,0.2,0.6,0.4,0.9,0.6l1.8,1c0.9,0.1,1.8,0.8,2.8,1l-0.1,0.1
						c0.8,0.2,0.9,0.5,1.8,1.1c0.1-0.1,0.4,0.1,0.3-0.1c0.4,0,0.5,0.5,1,0.7c0,0.1,0-0.1,0.1,0c1.3,0.3-0.3,0,1.2,0.9
						c2.2,0.9,4.6,1.6,6.8,2.4c-0.1,0-0.2-0.2,0.1-0.1c0.1,0.4,0.8,0.2,1.1,0.4c0,0.1-0.2,0-0.4,0c1,0.4,1.9,0.5,2.9,0.8
						c1,0.1,2.1,0.5,2.8,0.4c-0.1,0.1,0,0.1,0.2,0.1l0.3,0l0.1,0l0,0l0,0l0,0l0,0c-0.4,1.9,0.6-2.6,0.5-2.1l0,0l0,0l0,0l0,0
						l-0.1-0.1c-0.8,0-1.6-0.9-2.5-1.1l0.1,0c-2.3-1.1-4.7-2.5-6.9-3.8c-1.3-0.7-2.4-2-3.8-2.9c-0.3-0.1-0.1,0.1-0.3-0.1
						c-0.3-0.3,0.1-0.1,0-0.2c-0.7-0.4-1.3-1.3-2-1.9c-0.1,0-0.3-0.2-0.3-0.1c-0.7-0.9-1.7-1.9-2.3-2.8c0,0.5-0.5-0.4-0.9-0.7
						c-0.1-0.2,0-0.3,0-0.2c-0.4-0.7-0.7-1.1-1-2C9,29,8.7,29,8.5,28.5l-0.1-0.3l0,0l0,0c0.3-0.2-2.7,2.1-1.4,1.1h0l0,0l0,0l0,0l0,0
						l0,0l0.1,0.1l0.2,0.1C7.6,29.6,8,29.8,8.2,30c0-0.2,0.7,0,1.1,0.4L9,30.5c1.7,0.8,3.9,2.1,6,2.6l0.1,0.2c2.1,0.7,4,1.5,6.1,1.9
						c0.5,0.3,1.4,0.6,1.9,0.7c0.8,0.1,1,0.2,1.6,0.1c0.3,0.1,0.4,0.2,0.5,0.3c0.9,0.3,1.7,0.8,2.5,0.7l0,0.1
						c0.8,0.1,1.9,0.2,2.7,0.5c0.3-0.1,1.1,0.1,0.8-0.1c0.3,0,0.2,0.3,0.5,0.2L31.4,38c1.9,0.5,3.5,0.7,5.3,0.9
						c0.5,0.3,1.8,0.2,2.8,0.5c0.1,0,1.2,0,1.4,0c0.5-0.1,0.2-0.5,0.2-0.7c-0.4-0.1,0.1-0.2-0.4-0.2c0.1-0.1,0-0.2-0.1-0.3
						c-0.1,0.1-1-0.1-0.6,0.2c-0.8-0.1-1.7-0.3-2.5-0.3c0.3,0,0.4-0.1,0.2-0.2c-0.4,0.1-1.1,0.1-1.8-0.1c0,0.2,0.2,0.2,0.1,0.3
						c-0.1,0-0.3,0.1-0.5,0c-0.1-0.2,0-0.4-0.6-0.6c0.2-0.2,1.1,0.2,0.8-0.1c0.3-0.2,1.4,0,1.7,0.2c0.6-0.1-0.4-0.1-0.3-0.3
						c-0.5-0.1-0.8,0-1.5-0.1c0,0.1,0.2,0.2-0.1,0.2c-0.7,0.1-0.8-0.3-1-0.4l0.4,0c-0.4-0.2-0.6-0.1-1.1-0.2c-0.1-0.3,0.8,0.1,1,0
						l-0.3-0.3c-0.7-0.2-0.3,0.2-1,0l0.1-0.1l-0.5,0c0,0.1,0,0.3,0.5,0.4c-0.3,0.2-0.4,0-1-0.1c-0.2,0.1,0.3,0,0.3,0.2
						c0,0.2-0.4,0.1-0.7,0c-0.5-0.1-0.2-0.2-0.4-0.4c0.1,0,0.5,0.1,0.5,0.2c0.7,0-0.2-0.4,0.3-0.4c-0.5-0.2-0.5,0-0.8,0
						c0.2,0.1-0.1,0.1,0,0.2c-1,0.2-0.5-0.4-1.3-0.6c0.1,0.3-1.2,0.1-0.7,0.6c-0.2,0-0.5,0-0.7-0.1c0.3-0.1-0.3-0.2,0.1-0.3L28.5,36
						l0.5-0.1c-0.3-0.2-0.8-0.5-1-0.6c-0.5,0,0.1,0.2-0.4,0.1c0.2,0-0.1-0.2-0.3-0.3c0.4,0.2-0.1,0.3-0.4,0.2
						c-0.4-0.1-0.8-0.4-0.7-0.4l0.5,0c-0.4,0-0.1-0.1-0.5-0.1c-0.1,0.1-0.4,0.2-0.5,0.3c-0.3,0-0.5-0.2-0.6-0.2l0.5,0
						c-0.6-0.1,0-0.3-0.7-0.4l-0.2,0.1c-0.1-0.1-0.2-0.1,0-0.2c-0.1,0.1-0.5-0.1-0.6-0.1l0-0.1c-0.3,0-0.7,0.1-0.9-0.2
						c0.2,0.3,0.3,0.1,0.7,0.3c0.2,0.3-0.5,0-0.6,0c0.1-0.2-0.6-0.2-0.9-0.3l-0.4-0.3l-0.2,0.1c0-0.4-0.6-0.1-0.9-0.3
						c0.2,0,0.2-0.2,0-0.3c0.2,0.3-0.6,0.1-0.6,0.3c-0.6-0.3,0.2-0.2,0.1-0.5c-0.4,0.1-0.6-0.3-0.9-0.2c0.4,0.2-0.1,0.1-0.2,0.2
						c-0.5-0.2,0.1-0.1-0.2-0.3c-0.2-0.1-0.6,0-0.3,0.2c-0.3-0.2-0.7-0.1-1.1-0.4c-0.1-0.2,0.7,0.2,0.5,0c-0.8-0.3-0.5,0.2-1.2,0
						c0.3,0.2-0.1,0.3-0.5,0.3c-0.8-0.4,0.4,0,0.1-0.3l-0.3-0.1c-0.3-0.4,1.1-0.1,0.7-0.4l-0.4,0c0.1,0,0.3-0.1,0.1-0.3
						c-0.2,0.1-0.8-0.3-0.9-0.2c-0.1,0.1,0.3,0.1,0.2,0.2c-0.4-0.1-0.6,0.1-1.1-0.2c0.3,0,0-0.2,0.1-0.3c-0.2-0.2-0.2,0.1-0.5-0.1
						l0.1-0.1c-1.4-0.6-3.1-1.4-4.5-1.7c-0.1-0.3-0.6-0.5-1.1-1c0.2,0.2-0.1,0.1-0.2,0.1l-0.2-0.3c-0.1-0.2-0.4-0.3-0.6-0.4l0,0l0,0
						h0c0.3-0.3-2.9,2.2-1.5,1.2v0l0,0l0,0l0,0l0,0L6.8,29l0.1,0.2l0.2,0.3l-0.1,0.2c0.1,0.4,0.3,0.3,0.4,0.5l0,0.3l0.1,0
						c0.3,0.3,0.5,0.8,0.3,0.9c0.1,0.1,0.2,0.2,0.2,0c0.1,0.4,0.6,1.5,1.2,2c-0.2-0.3-0.1-0.3,0-0.4c0.2,0,0.1,0.2,0.4,0.3
						c-0.1,0.1,0.1,0.4-0.2,0.1c0.4,0.9,1.4,2,2.3,2.9c0.2,0.2,0.2,0.1,0.3,0.1c0.4,0.7,1.3,1.2,1.8,1.9c-0.1-0.2,0.3-0.2,0.6,0.1
						c0.5,0.2,0,0.3,0.3,0.7c0.2,0.1,0.6,0.3,0.7,0.4l0,0c0.3,0.1,0.7,0.3,0.9,0.6l0,0c0.2,0.2,0.4,0.5,0.6,0.6
						c0.2-0.1,0.7,0.4,0.9,0.4c0,0,0,0,0,0.1l0.1-0.1l0.4,0.4c-0.1,0-0.2,0-0.4,0c0.5,0.4,0.2,0,0.6,0.1c0.4,0.1,0.3,0.2,0.5,0.4
						c-0.2,0-0.2-0.2-0.3-0.2c-0.3,0,0.2,0.2,0.2,0.3c0.1,0.1,0.2-0.1,0.4,0.1c0.2,0.2,0.8,0.5,0.6,0.6c0.2,0.1,0.5,0.2,0.6,0.2
						c-0.2-0.1-0.5-0.4-0.5-0.5c0.2,0.1,0.5,0.3,0.5,0.4l-0.2-0.1c0.1,0.1,0.6,0.4,0.4,0.1l0.3,0.4c0.2,0,0.6,0.2,0.9,0.3
						c-0.1,0.1-0.4,0.2,0.1,0.5l0.6,0.1c0.3,0.1,0.3,0.2,0.2,0.3c0.8,0.6,1.1,0.1,1.7,0.6c-0.4,0-0.1,0.2,0.1,0.4c0,0,0.1-0.1,0.2,0
						c0-0.1-0.2,0-0.4-0.2c0-0.1,0.3,0.1,0.5,0.1c0.4,0.7,2,1.1,2.9,1.8c0-0.1,0.1-0.1,0.3,0l0.1,0.1l0,0l0,0l0,0
						c-0.1,0.3,0.6-2.6,0.3-1.4l0,0h0l0,0l0,0l0,0l-0.1,0l-0.2,0c0.1-0.2-0.6,0-0.9-0.2l0.1,0.2c-0.6-0.2-1.1,0.2-1.5-0.1
						c-0.4-0.1,0.2-0.1,0.3-0.2c-0.4-0.3-1.4-0.1-1.7-0.4c-0.1,0.1,0,0.3-0.4,0.2c-0.3-0.2-1-0.5-0.9-0.5c-0.3,0-0.4,0-0.7-0.2
						c0-0.1,0.2,0,0.3,0c-0.5-0.2-0.9-0.2-1.4-0.3c-0.2-0.2-1.1-0.5-1.6-0.8c-0.4,0.1-0.9-0.4-1-0.2c0,0,0-0.1-0.1-0.1
						c-0.2,0-0.5,0.1-0.7,0l0.2-0.1c0.1-0.2-0.7-0.3-0.8-0.5c0.2,0.2-0.3-0.1-0.4,0l-0.3-0.1c-0.5-0.2-0.1,0.1-0.7-0.2
						c-0.3-0.1,0-0.3,0.1-0.2c-0.3-0.2-0.6-0.3-0.9-0.4c0.1,0,0.2,0.1,0,0.1l-0.1-0.1l-0.3-0.1l-0.5-0.2l-0.2-0.1
						c-0.2-0.1-0.3-0.1-0.1,0l0.1,0l0.2,0.1l0.4,0.1L15,41.3l0.1-0.1c-0.2-0.1-0.9-0.2-0.9-0.1c-0.8-0.5-2.1-1-2.7-1.2l-0.2-0.1
						l0.2,0.1c0.1,0,0.2,0,0,0c-0.3-0.1-0.7-0.1-0.6-0.3c-0.3-0.1-0.2-0.2-0.6-0.4c0,0-0.1,0.1,0,0.1c-0.6-0.6-1.6-0.7-2.4-1.3l0,0
						l0,0l0.3,0c-0.7-0.3-1.2-0.6-1.9-0.8c0.1,0,0.1-0.1,0.3,0L6,36.7c-0.4,0.2,0.5-0.7-0.9,0.4l0.2,0.2c-0.1-0.3-0.1,0-0.2-0.2
						c1.3-0.8,0.7-0.6,0.2,0c0.1,0.1,0.2,0.3,0.3,0.5l0,0c0.2,0.5,0.3,0.4,0.5,0.9c0,0.3-0.1-0.2-0.2-0.1c-0.2,0.2,0.3,1.1,0.4,1.2
						c0.1,0.1,0.2,0.2,0.3,0.2c0.2,0.3,0,0.2,0.1,0.5l1,0.8c-0.2-0.2,0,0.4-0.3,0.1c0.4,0.7,0.9,1,1.3,1.3c0.1,0.2,0.6,0.8,0.8,1
						c0,0.2-0.1-0.2-0.2-0.2l0.1,0.4c-0.3-0.4-0.1,0.2-0.4,0c0.3,0.3,0.8,1.2,1.2,1.8c-0.1-0.5,0.6,0.6,0.8,0.4
						c0.5,0.6,0.1,0.4,0.2,0.7c0.6,0.6,1,1.2,1.5,1.7l-0.1,0c0.5,0.5,1.2,1.3,1.8,1.6c-0.1,0,0,0.1-0.2,0c0.5,0.6,0.3-0.1,0.8,0.5
						l-0.2,0c0.4,0.3,0.6,0.8,1.2,1c0,0.1-0.1,0-0.2,0c0.4,0.3,0.9,0.7,1.3,0.9c0,0.1-0.1,0.1-0.3,0c0.4,0.4,0.6,0.2,0.9,0.6
						c0.1,0.1,0.3,0.3,0.2,0.3c0.3,0.1,0.8,0.5,1.1,0.6c0,0.1,0.1,0.2,0.3,0.5c2.2,1.5,4.5,2.9,7.1,3.8c0.3,0.4-0.6-0.1-0.4,0.2
						c0.1-0.2,0.4,0.1,1.2,0.4l0,0c0.3,0.1,0.5,0.3,0.8,0.3l0-0.1c0.4,0,0.7,0.5,1,0.4l0.2,0.2c0.4-0.1,0.6,0.3,1.1,0.2l-0.1,0
						c0.6,0.3,1.4,0.1,1.5,0.4c0.5,0.1,1.2,0.2,1.3,0c0.1,0.1,0,0.2-0.1,0.2c2,0.3,4.3,0.7,6.1,0.5c0.1,0,0,0.1-0.1,0.1
						c0.6-0.1,1.1,0,1.7,0c0.3-0.1,0.1-0.9-0.1-1.2l-0.2-0.3c0.1-0.3,0.2-0.3,0.2-0.5c-0.1-0.2-0.1-1-0.2-1.2c0.1-0.1,0.1,0,0.1,0
						c0-0.5-0.2-1.1-0.1-1.6l0.1,0.2c0.4-2.6,1.1-5.9,1.1-8c0-0.6,0.3-0.2,0.3-0.5c0-2.2,1-4.8,0.6-6.8c0-1.6-1.2,1.2-1.2,1.2
						C41.1,46,41.2,46,40.3,49.7z"/>
				</g>
			</g>
			<g>
				<g>
					<polygon points="15.3,41.5 15.3,41.5 15.2,41.4 14.8,41.4 					"/>
				</g>
			</g>
			<g>
				<g>
					<polygon points="15.3,41.5 15.6,41.6 15.3,41.5 					"/>
				</g>
			</g>
			<g>
				<g>
					<polygon points="25.5,46.8 25.5,46.8 25.2,46.8 					"/>
				</g>
			</g>
			<g>
				<g>
					<polygon points="15.6,41.7 15.6,41.6 15.6,41.6 					"/>
				</g>
			</g>
			<g>
				<g>
					<path d="M41.3,38.2l-0.2,0l0,0.1C41.2,38.3,41.2,38.2,41.3,38.2z"/>
				</g>
			</g>
			<g>
				<g>
					<path d="M41.2,38.3L41.2,38.3l0-0.1l-0.2,0C41,38.2,41.1,38.3,41.2,38.3z"/>
				</g>
			</g>
			<g>
				<g>
					<path d="M38.3,38c0.1-0.1,0.7-0.1,1-0.1L38.3,38z"/>
				</g>
			</g>
			<g>
				<g>
					<path d="M35.7,37.2c-0.2-0.1-0.1-0.1,0.2-0.1C35.8,37.1,35.7,37.1,35.7,37.2z"/>
				</g>
			</g>
			<g>
				<g>
					<path d="M35.4,37.3c-0.2,0-0.3-0.1-0.4-0.2C35,37.2,35.5,37.2,35.4,37.3z"/>
				</g>
			</g>
			<g>
				<g>
					<path d="M29.7,35.8c-0.1,0-0.5,0-0.6-0.2C29.3,35.7,29.9,35.7,29.7,35.8z"/>
				</g>
			</g>
			<g>
				<g>
					<path d="M27,35.2l-0.2-0.1C26.6,35,26.8,35,27,35L27,35.2z"/>
				</g>
			</g>
			<g>
				<g>
					<polygon points="27.2,45.3 27.5,45.3 27.4,45.4 					"/>
				</g>
			</g>
			<g>
				<g>
					<path d="M7,37.1c-0.3-0.1-0.1-0.2-0.1-0.2C7,37,6.7,36.9,7,37.1z"/>
				</g>
			</g>
			<g>
				<g>
					<polygon points="10.7,46.3 10.7,46.2 10.8,46.1 					"/>
				</g>
			</g>
		</g>
	</g>
	<g>
		<g>
			<g>
				<g>
					<path d="M233,173.3c-0.8-0.3-1.5-1-2.6-0.8c-0.5-0.3,0.9-0.4-0.3-0.8c-1.2,0.2,0.3,1.3,2.3,2c0.1,0.1,0.1,0.1,0.1,0.2
						C232.4,173.6,232.5,173.4,233,173.3z"/>
				</g>
			</g>
			<g>
				<g>
					<path d="M232.5,173.8l0.1,0.2C232.6,174,232.5,173.9,232.5,173.8z"/>
				</g>
			</g>
			<g>
				<g>
					<path d="M191.4,149.8c-0.2-0.2-0.3-0.3-0.8-0.6C190.9,149.4,191.2,149.6,191.4,149.8z"/>
				</g>
			</g>
			<g>
				<g>
					<path d="M111.8,22l0.3,0.3C112.1,22.2,112,22.1,111.8,22z"/>
				</g>
			</g>
			<g>
				<g>
					<path d="M234.4,173.2c-0.7,0-1.1,0.1-1.4,0.1C233.4,173.4,233.8,173.4,234.4,173.2z"/>
				</g>
			</g>
			<g>
				<g>
					<path d="M72.1,7.8l0.5,0C72.6,7.6,72.4,7.7,72.1,7.8z"/>
				</g>
			</g>
			<g>
				<g>
					<path d="M108.9,20.2c-0.1-0.1-0.2-0.2-0.3-0.3C107.6,19.5,108,19.7,108.9,20.2z"/>
				</g>
			</g>
			<g>
				<g>
					<path d="M92.7,11.4c-0.4-0.1-0.7-0.1-0.9-0.2C92.2,11.3,92.5,11.4,92.7,11.4z"/>
				</g>
			</g>
			<g>
				<g>
					<path d="M70.8,8.4l-0.3,0L70.8,8.4z"/>
				</g>
			</g>
			<g>
				<g>
					<path d="M245.6,52.7l0.1,0.2c0.1-0.5,0.2-0.9,0.3-1.5L245.6,52.7z"/>
				</g>
			</g>
			<g>
				<g>
					<path d="M189.2,187.5c-6.2,1.2-14.5,2-20.3,1.5c-24.7-0.2-48.3-9.5-70.9-20.6c1,0.9-0.4,0.6-1.6,0.1l-0.2-0.4l-2-0.5
						c-1.6-0.9-0.6-1.1,0.8-0.4c-8.5-5-15.8-10.3-22.8-17c-1,0.1-3.7-3.5-4.5-3.1c-0.2-0.4,0.1-0.2,0.4-0.1c-5-4.6-5.4-5-8.6-10.3
						c-15.9-20.5-27.9-44.5-26.8-69.6c0.6-24.2,15.4-52.5,41.9-52.3c3.9-1.3,9.3-0.1,14.1,0.5l-0.4,0.3c4.1,0.7,4.8,1.8,9.2,4.5
						c0.3-0.4,1.8,0.8,1.5-0.2c2,0.3,2.2,2.6,4.6,3.7c-0.1,0.3,0.2-0.4,0.5,0.1c5.8,3.3-1.1-0.5,4.9,5.3c8,7.2,13.2,19.3,16.7,30.4
						c-0.3-0.7,0.2-1.2,0.6-0.1c-0.8,1.5,1.6,3.7,1.9,5.8c-0.3-0.1-0.7-1-1-1.5c0.6,2.6,1.5,5,2.4,7.3l1.2,3.5l0.3,0.9l0.1,0.4
						l0,0.1l0,0c-0.7-0.6,5.9,4.8,3.1,2.5l0,0l0,0l0,0l0.1,0l0.2,0l2,0.3c5.2,0,11,0.9,14.4,0.1c-0.8,0.5,2.3,0.3,3.4,0.4
						c3.5-1.7,9.8-0.4,14.2-2.1l-0.1,0.3c13.3-2.2,27.8-5.5,40.8-11.1c7.3-3,16.1-5.5,23.5-10.5c1.3-1,0.1-0.6,1.1-1.4
						c1.9-1.2,0.2,0.4,1,0.1c3.4-2.7,8.6-5.3,12.9-8.8c0.4-0.5,1.5-1.6,0.9-1.5c1.3-0.8,2.6-1.9,3.9-3l2-1.8l0.5-0.5l0.1-0.1l0,0
						l0,0c-3.1-1.5,7,3.5-7-3.5l0,0l0,0l0,0.1l0,0.3l-0.2,1.3c-0.4,3.4-0.7,6.8-1.7,9.6c1.7-1.7-0.1,3.5-0.3,5.6
						c-0.3,1.1-0.7,1.1-0.8,0.7c-0.8,4.3-1.7,6.5-3.6,11.3c-0.7,2.3-0.4,3.1-1.6,5.8c-1.4,1.4-2.4,5.5-4.1,7.9
						c0.9-0.3,0,3.3-1.8,5.5l-0.5-1.3c-3.7,8.3-12.6,17.9-19.7,25.7l-1,0c-7.8,7.7-17.4,12.5-26.8,17.2c-2.8,0.7-7.1,1.8-9.9,2.3
						c-3.6,1.5-5,1.4-7.4,2.7c-1.4,0.3-2.4-0.1-2.9-0.2l-0.1,0l0,0l0,0l0,0c0.3-0.8-2.9,7.3-1.5,3.9l0,0l0,0l0.2,0.2l0.3,0.4
						l0.6,0.7l1.2,1.4c0.8,1,1.5,1.9,2.3,2.8c1.6,1.7,3.1,3.3,4.9,4.4l-0.3,0.5c3.2,2.4,7.9,5.8,10.9,9.1c1.3,0.4,4.8,3.1,3.7,1.4
						c1.4,1,0.3,1.4,2.1,2.1l-1.8-0.4c7.8,6.4,15.1,10.9,23.9,15.1c2.1,2.1,8.4,4.1,13.6,6.1c0.6,0.3,6.3,1.4,7.2,1.1
						c2.8-0.2,1.3-1.9,1.4-2.6c-2-0.3,0.4-0.9-2.2-0.8c0.4-0.3,0-0.7-0.2-1.1c-0.4,0.4-4.9-1.2-3,0.2c-3.9-1.2-8.1-3-12.1-4.6
						c1.3,0.6,1.9,0.1,1-0.6c-2-0.3-5.4-1.6-8.5-3.5c-0.3,0.6,0.8,1.2,0.1,1.5c-0.5-0.2-1.5-0.4-2.2-0.9c-0.1-0.9,0.6-1.7-2.2-3.4
						c1.3-0.4,4.7,3,4,1.3c1.7,0,6.8,2.7,7.7,3.7c2.9,0.4-2-1.1-1.1-1.6c-2.3-1.1-3.6-1.3-7.1-3.2c-0.3,0.4,0.9,1.1-0.9,0.5
						c-3.6-1.1-3.5-3-4.2-3.5c0.5,0.2,1.1,0.6,1.6,0.8c-1.8-1.6-2.9-1.5-4.9-3c0.1-1.4,3.4,2.2,4.6,2l-1-1.7
						c-3.1-2.2-1.4,0.2-4.5-2.3l0.6-0.1l-2.2-1.2c-0.3,0.3-0.3,1.2,1.5,2.4c-1.8,0.1-1.8-1-4.6-2.9c-1.3-0.1,1.2,0.8,0.8,1.4
						c-0.1,0.7-2-0.7-3.4-1.7c-2.2-1.7-0.7-1.5-1.3-2.5c0.5,0.3,2.2,1.5,1.8,1.7c3.2,1.6-0.3-2,1.8-0.9c-1.9-2-2.3-1.2-3.6-2
						c0.6,0.6-0.6,0.3-0.3,0.9c-4.7-1.6-1.5-2.8-5-5.5c0,1.5-5.5-2.7-3.9,0.4c-1-0.6-2.1-1.3-2.8-2.2c1.4,0.2-1-1.8,1-0.9l-1.2-1.1
						l2.4,1c-0.9-1.6-2.7-4-3.1-5c-1.9-1.4,0,1-2-0.7c0.9,0.4,0-1-0.8-1.9c1.5,1.9-0.8,0.8-2-0.1c-1.6-1.7-2.4-3.6-2-3.5l2,1.2
						c-1.6-0.9-0.3-0.8-1.7-1.9c-0.7-0.1-1.9-0.4-2.7-0.5l-0.1-0.1l0,0l0,0l0,0l0,0c0.5-1.3-4.5,11.5-2.4,6.1h0l0,0l0.1,0l0.3-0.1
						l0.5-0.1l0.9,0c0.6,0,1,0.1,1.3,0l-2.5,0.8c3.3-0.6,0.9,1.1,4.3,0.3l0.8-0.7c0.7,0,1.1,0.2,0.5,0.5c0.5-0.5,2.5-0.7,3.3-1.1
						l0.3,0.3c1.4-0.6,2.9-1.9,4.8-1.5c-1.6-0.6-1.7,0.4-4.3,0.6c-1.6-0.3,2.2-1.2,2.8-1.4c0.1,1,3.7-0.7,5.3-1.4
						c1.1,0,2-0.1,2.6-0.1l0.4-0.9c1.1,1.1,3.2-1.4,5.1-1.9c-0.8,0.8-0.4,1.2,0.9,0.8c-2.1-0.2,2.3-2.4,1.5-2.7
						c3.4-1.1-0.2,1.5,1,1.7c1.3-1.3,3.8-1.3,4.4-2.8c-2.4,1,0.1-0.8,0.3-1.4c2.8-1.5-0.3,0.6,1.9-0.2c1.1-0.8,2.2-2.3,0.3-1.5
						c1.8-0.7,2.9-2.7,5-3.4c1.1,0-3.1,2.4-1.8,2.1c3.7-2.4,1-2.5,4.2-5c-1.6,0.7-0.8-1.1,0.4-2.6c3.6-2.6-1.3,1.5,0.5,1.1l1.3-1.2
						c2.6-0.7-3,4.8-0.7,4l1.3-1.5c-0.1,0.5-0.3,1.4,0.5,1.1c-0.1-0.9,3.5-3.1,3.7-3.5c-0.1-0.7-1.1,1.2-1.2,0.6
						c1.5-1.5,1.6-2.8,4.1-4.8c-1,1.5,1.1,0.2,0.8,0.9c1.3-0.9-0.2-0.9,1.7-2.2l0.1,0.4c6.1-5.9,12.7-14.3,14.8-21.4
						c1.2-0.8,2.8-3,5-6.6c-1,1.5-0.6-0.2-0.2-1.2l1.6-1.5c1.6-2,2-5.3,2.5-7.5c0.3-0.3,0.5-0.4,0.7-0.4c1.3-1.8,0.5-2.2,0.6-3.1
						l1-1.2l-0.4-0.5c0.4-2.2,1.4-4.8,2.1-4.3c0.1-0.9,0.2-1.7-0.4-0.7c1.3-1.9,2.6-7.7,3.2-11.5c-0.6,1.7-0.8,1.5-1.4,1.6
						c-0.7-0.7,0.4-0.8,0.2-2.4c0.3,0,1.1-1.6,0.9,0.3c1.2-2.4,1.6-5.5,2.1-8.7l0.3-2.5l0.2-1.2l0-0.1l0,0l0,0
						c-12.4-6.1-3.4-1.7-6.2-3.1l0,0l0,0l-0.1,0.1l-0.2,0.2l-0.4,0.4c-1.1,1.1-2.3,2.1-3.5,3.1c-0.8,0.9-0.5,0.8-0.8,1.4
						c-3.6,1.7-6.7,5.4-10.6,7.3c1-0.2,0.4,1.4-1.5,2.7c-1.8,2-1.4-0.3-3.6,0.5c-0.8,0.9-2.7,2-3.5,2.4l0-0.1
						c-1.1,1-2.9,2.3-4.6,2.7l0.2-0.2c-1.3,0.5-2.9,0.8-4.2,1.4c-0.3,0.9-3.7,2-4.2,2.8c-0.2,0,0-0.2-0.4-0.1l0.1,0.6l-2.8,0.8
						c0.5-0.4,0.5-0.7,1.2-1.2c-3,0.8-0.8,0.9-2.1,1.8c-1.8,1.2-1.9,0.6-3,0.7c0.7-0.6,1.5-0.4,2-0.7c1-0.9-1.3,0.3-1.4,0
						c-0.4,0.1-0.4,0.9-1.9,1.3c-1.3,0.4-4.3,1.6-4.1,0.9c-1,0.7-2.3,1.1-3.1,1.6c1.1-0.2,3.1-0.7,3.4-0.4c-0.9,0.4-2.8,1.2-3.2,1
						l0.7-0.4c-0.7,0.4-3.6,1-2,1.2l-2.3-0.2c-0.6,0.7-2.6,1.3-4.3,1.9c-0.2-0.6,0.9-1.6-2.3-1l-2.5,1.3c-1.4,0.4-1.8,0.4-1.7-0.1
						c-4.9,0.8-4.6,2.8-8.6,3.1c1.5-1.1,0.1-0.9-1.7-0.7c0,0.1-0.2,0.4-0.9,0.6c0.6,0.2,0.9-0.7,2.3-0.4c0.5,0.4-1.5,0.6-2.3,0.9
						c-3.7-1-11.5,1.5-17.2,1.1c0.5,0.9-2.5,0.5-3.6,0.9c0.3-1-3.1,0.3-4.7-0.3l0.9,0.9c-3.4-0.4-5.6,1.4-7.7,0.3
						c-1.9-0.4,0.7-0.6,1.5-0.8c-1.3-0.5-3-0.5-4.7-0.4l-1.2,0l-0.3,0l-0.1,0l0,0c-0.5-0.4,4.3,3.5,2.2,1.8l0,0l0,0l0,0l0,0
						l-0.1-0.1l-0.2-0.6c-0.3-0.7-0.4-1.4-0.3-2c-0.4-0.1-0.8,0.9-1.9-1.2c-0.2-1.9-1-5.7-0.7-5.4c-0.7-1.4-1.1-1.7-1.4-3.5
						c0.3,0.1,0.6,0.8,0.8,1.2c-0.7-2.7-1.8-4.6-2.9-6.7c0.2-1.6-1.8-6.1-2.7-9.1c-1.5-1.3-1.7-4.9-2.9-4.7c0.1,0,0.1-0.4,0.1-0.6
						c-0.8-0.9-1.9-1.5-2.6-2.8l0.9,0.1c1-0.1-1.9-3.9-1.7-4.5c0.1,1.5-0.9-1.5-1.5-1.3l-1.2-1.4c-1.9-2.3-0.5-0.1-2.7-2.9
						c-1.4-1.5,0.2-1.1,0.6-0.5c-0.8-1.6-2.3-2.8-3.7-3.9c0.5,0.5,0.7,0.7,0.1,0.4c0-0.1-0.1-0.3-0.3-0.5c-0.5-0.3-1.1-0.7-1.5-1.1
						l-2.1-1.5c-0.4-0.2-0.8-0.5-1-0.7c-0.8-0.6-1.3-0.8-0.3-0.3c0,0.1,0.2,0.2,0.3,0.3c0.3,0.2,0.6,0.4,1,0.7
						c0.7,0.4,1.5,0.8,1.9,1.1c-0.5-0.4-0.9-0.8-1.1-1.1l0.8-0.2c-0.9-0.9-4.1-2.4-4.2-2c-3.6-3.5-11.3-6.5-14.4-7.3
						c-0.2,0-0.6-0.1-0.9-0.2c0.2,0,0.6,0.1,0.9,0.2c0.7,0.1,0.8,0,0.1-0.1c-1.7-0.4-3.6-0.5-3.7-0.9c-1.6-0.2-1.3-0.9-3.8-1.5
						c0-0.1-0.5,0.5,0.2,0.6c-4-1.9-9.7-0.9-14.8-1.1l-0.3,0l0.3,0c0.4-0.1,1-0.4,1.4-0.6c-3.9,0.5-7.7,1.5-10.8,3.3
						c0.3-0.4,0.1-0.6,1-1c-2.7,0.6-5.5,2.3-6.4,3.3c1.8-0.5,0-0.3,1.1-0.8c2-0.3-1,1.5-2.5,2.3l-0.1-0.1c-2.2,1.5-2.2,1.7-4.4,3.2
						c-1.4,0.7,1-1,0.3-0.9c-1-0.4-5.2,3.4-5.6,3.8c-0.3,0.6-0.8,1.4-0.5,1.5c-1.2,1.7-1.1,0.3-2,1.4c-1,1.8-1.6,3.9-2.3,5.9
						c0.7-1.2-1.7,1-0.9-0.9c-2.5,3.5-2.4,6.4-3.2,8.9c-0.7,1.1-2.1,4.9-2.5,6.3c-0.7,0.5,0.4-1.1,0.2-1.5c-0.5,0.6-0.9,1.2-1.3,1.8
						c0.9-2.7-1,0-0.8-1.6c-0.6,2.2-2.6,7.3-3.5,10.7c1.6-2.1-0.4,4.6,0.6,4.7c-0.3,4-1,1.9-1.4,3.3c-0.1,4.2-0.5,8.1-0.3,11.9
						c0,0-0.1,0.1-0.2-0.1c0.5,3.5,0.7,9.1,2.3,12.4c-0.2-0.1-0.3,0.2-0.7-0.6c0.4,3.7,1.3,0.5,1.6,4.8l-0.7-0.9
						c1.1,2.5,0.8,5.2,2.4,7.9c-0.2,0.2-0.5-0.4-0.8-0.8c0.9,2.6,2,5.6,3.4,7.6c-0.1,0.5-0.6,0.2-1.1-0.7c0.6,2.7,1.9,2.5,2.6,4.9
						c0.2,0.7,0.5,2.1,0.2,1.7c0.9,1,2.5,4.4,3.3,5.6c-0.1,0.5,0.2,1.4,0.7,3c6.6,12.2,15.2,23.7,25.5,32.8c0.9,2.3-2.7-1.9-2.1-0.4
						c0.5-0.6,1.8,1.5,5,4.2l0,0.2c1.4,1.1,1.8,2.1,3.4,3.2l0.1-0.2c1.9,0.9,2.8,3.8,4.3,3.6l0.9,1.4c2.2,0.5,2.3,2.3,4.8,3.1
						l-0.3,0c2.5,2.4,6.3,3.1,7,4.4c2.5,1.4,5.4,2.9,6.3,2.4c0.4,0.5-0.1,0.7-0.6,0.8c9.6,4.6,20.3,9.8,29.7,11.8
						c0.4,0.3-0.2,0.2-0.5,0.3c5.8,1.1,11.3,4.6,15.9,3.8l1.7-0.3c1.3,0.6,1.1,1,2.1,1.5c1.2-0.1,5.3,0.8,6.1,0.3
						c0.6,0.4-0.3,0.3-0.3,0.5c2.7,0.6,5.8,0.1,8.4,0.5l-0.8,0.2c13.1,2.9,31,2.7,41.5-1.4c2.9-0.9,1.5,0.6,2.8,0.2
						c10.8-3.7,24.4-6.7,32.8-13.2c7-4-7.9-1-7.9-1.1C207.9,184.2,207.8,185.1,189.2,187.5z"/>
				</g>
			</g>
			<g>
				<g>
					<path d="M112,22.4c0.1,0,0.1-0.1,0.1-0.1l-0.3-0.3c-0.5-0.3-1.2-0.7-1.9-1.1L112,22.4z"/>
				</g>
			</g>
			<g>
				<g>
					<path d="M112,22.4c0.6,0.4,1.1,0.8,1.5,1.1c-0.3-0.3-0.8-0.8-1.4-1.2C112.1,22.4,112.1,22.4,112,22.4z"/>
				</g>
			</g>
			<g>
				<g>
					<path d="M137.1,78.8L137.1,78.8l-1.4,0C136.2,78.9,136.5,78.9,137.1,78.8z"/>
				</g>
			</g>
			<g>
				<g>
					<polygon points="113.7,23.7 113.5,23.5 113.5,23.6 					"/>
				</g>
			</g>
			<g>
				<g>
					<path d="M235.9,173.9c-0.3-0.1-0.5-0.1-0.8-0.1l0,0.4C235.3,174.1,235.3,173.9,235.9,173.9z"/>
				</g>
			</g>
			<g>
				<g>
					<path d="M235,174.2L235,174.2l0.1-0.4c-0.3,0-0.6,0.1-1,0.1C234.3,174,234.9,174.3,235,174.2z"/>
				</g>
			</g>
			<g>
				<g>
					<path d="M221.2,170.1c0.4-0.2,3.4,0.6,5.1,1.2C224.6,170.9,222.9,170.6,221.2,170.1z"/>
				</g>
			</g>
			<g>
				<g>
					<path d="M209.6,162.4c-0.9-0.9-0.5-0.9,0.9,0C210.5,162.6,210,162.4,209.6,162.4z"/>
				</g>
			</g>
			<g>
				<g>
					<path d="M208.4,162.6c-1-0.6-1.4-1.1-1.7-1.6C206.5,161.3,209,162.3,208.4,162.6z"/>
				</g>
			</g>
			<g>
				<g>
					<path d="M184.8,143.4c-0.6-0.4-1.9-1.3-2.1-2.1C183,142.1,185.6,143.4,184.8,143.4z"/>
				</g>
			</g>
			<g>
				<g>
					<path d="M174.2,134c-0.3-0.4-0.4-0.5-0.8-0.9c-0.4-0.7,0.4-0.3,0.9,0.2L174.2,134z"/>
				</g>
			</g>
			<g>
				<g>
					<polygon points="144.7,72.2 146.2,72 146,72.4 					"/>
				</g>
			</g>
			<g>
				<g>
					<path d="M63.6,9c-1.5,0.7-1.2,0-1.5,0C63.6,8.5,61.7,9.6,63.6,9z"/>
				</g>
			</g>
			<g>
				<g>
					<polygon points="27.3,58.4 27.4,57.9 28.1,58.2 					"/>
				</g>
			</g>
		</g>
	</g>
	<g>
		<g>
			<g>
				<path d="M51,49.3c0,5.6,4.5,10.1,10.1,10.1c5.6,0,10.1-4.5,10.1-10.1c0-5.6-4.5-10.1-10.1-10.1C55.5,39.2,51,43.7,51,49.3z"/>
			</g>
		</g>
		<g>
			<g>
				<g>
					<path d="M50.1,49.5c0,0.1-0.1,0.2,0,0.3c-0.1,0.1-0.2-0.1-0.2,0.1c0.1,0.1,0.3-0.1,0.3-0.3l0,0L50.1,49.5z"/>
				</g>
			</g>
			<g>
				<g>
					<path d="M50.2,49.6L50.2,49.6L50.2,49.6z"/>
				</g>
			</g>
			<g>
				<g>
					<path d="M50.8,53.8L50.8,53.8L50.8,53.8z"/>
				</g>
			</g>
			<g>
				<g>
					<path d="M71.8,48.8L71.8,48.8L71.8,48.8z"/>
				</g>
			</g>
			<g>
				<g>
					<path d="M50,49.4l0.1,0.1C50.1,49.5,50.1,49.5,50,49.4z"/>
				</g>
			</g>
			<g>
				<g>
					<path d="M71.2,45.5L71.2,45.5C71.2,45.5,71.2,45.5,71.2,45.5z"/>
				</g>
			</g>
			<g>
				<g>
					<path d="M71.7,48.6L71.7,48.6C71.7,48.5,71.7,48.5,71.7,48.6z"/>
				</g>
			</g>
			<g>
				<g>
					<path d="M71.6,47.1L71.6,47.1L71.6,47.1z"/>
				</g>
			</g>
			<g>
				<g>
					<path d="M71,45.4L71,45.4L71,45.4z"/>
				</g>
			</g>
			<g>
				<g>
					<polygon points="61.4,58.3 61.4,58.4 61.5,58.3 					"/>
				</g>
			</g>
			<g>
				<g>
					<path d="M52.8,46c0.1-0.4,0.4-1,0.6-1.3c0.9-1.5,2.5-2.5,4-3.3c-0.1,0-0.1-0.2,0-0.2l0,0l0.1-0.2c0.1-0.1,0.1,0.1,0,0.2
						c0.7-0.2,1.3-0.5,1.9-0.6c0-0.2,0.4,0,0.4-0.3c0,0,0,0,0,0.1c0.5-0.2,0.5-0.2,1,0c1.8,0.2,3.6,0.5,5.1,1.6
						c1.5,1,2.8,2.4,3.5,4.2c0.4,0.2,0.4,0.6,0.8,0.9l-0.1,0c0.2,0.3,0,0.4,0,0.8c0.1,0,0,0.1,0.2,0.1c0.2,0.1-0.2,0.3-0.1,0.5
						c-0.1,0,0.1,0,0.1,0c0.3,0.5-0.1-0.1-0.2,0.5c0,0.8,0.2,1.8-0.2,2.6c0-0.1,0.2,0,0.1,0c-0.3,0,0,0.3-0.2,0.4L69.8,52
						c-0.3,0.3-0.1,0.7-0.4,1c-0.1,0.4-0.5,0.6-0.4,0.9c-0.1-0.1-0.2,0.1-0.2,0.1c0.2,0.4-0.5,0.5-0.5,0.9l0,0
						c-0.5,0.8-1.4,1.3-2,2.1c-0.5,0.3-1.2,0.3-1.6,0.7c-0.1,0.1,0,0.1,0,0.2c-0.1,0,0-0.1-0.1-0.1c-0.2,0.2-0.7,0.2-1,0.3
						c0,0.1-0.1,0.1-0.1,0.2c-0.4-0.1-1,0.2-1.4,0.1c0.2,0.3-0.2,0.2-0.4,0.3c-0.1,0-0.1-0.1-0.1-0.2c-0.3,0.1-0.5,0.1-0.9-0.1
						c-0.2,0-0.2,0.2-0.4,0.1c-0.1-0.2-0.4-0.1-0.6-0.2c0,0.2-0.3,0.3-0.5,0.2l0.1-0.2c-0.7-0.1-1.5-0.5-2.3-0.7l0-0.2
						c-0.8-0.2-1.3-0.9-2.1-1.1c-0.1-0.2-0.3-0.5-0.4-0.6c-0.3-0.1-0.3-0.2-0.6-0.2c-0.1-0.1,0-0.2,0-0.3c-0.2-0.3-0.2-0.7-0.6-0.8
						l0.1-0.1c-0.2-0.2-0.6-0.5-0.6-0.8c-0.2,0-0.4-0.3-0.4-0.1c-0.1-0.1,0.2-0.2,0-0.2l0.2,0c-0.2-0.7-0.5-1.3-0.7-2
						c0.2-0.2-0.1-0.7,0-1.1c0,0-0.1-0.5-0.2-0.5c-0.1-0.2-0.5-0.1-0.7-0.1c0,0.2-0.3,0-0.1,0.2l-0.3,0c0.1,0,0,0.5,0.2,0.2
						c0,0.3,0,0.7,0.1,1.1c0-0.1-0.2-0.1-0.3,0c0.2,0.1,0.2,0.4,0.3,0.7c0.2,0,0.1-0.1,0.3-0.1l0.1,0.2c-0.2,0.1-0.4,0.1-0.3,0.4
						c-0.3,0-0.1-0.5-0.3-0.3c-0.3-0.1-0.4-0.6-0.2-0.7c-0.3-0.2,0,0.2-0.2,0.2c0,0.2,0.2,0.3,0.3,0.7c0.1,0,0.1-0.1,0.2,0
						c0.3,0.2,0,0.4,0,0.5l-0.1-0.1c0,0.2,0.2,0.3,0.2,0.5c-0.3,0.2-0.1-0.3-0.3-0.4l-0.2,0.2c0.1,0.4,0.3,0,0.3,0.4l-0.1,0l0.1,0.2
						c0.1,0,0.3-0.1,0.2-0.3c0.3,0,0.1,0.2,0.2,0.4c0.2,0-0.1-0.1,0.1-0.2c0.1-0.1,0.2,0.1,0.3,0.2c0.1,0.2-0.1,0.2-0.2,0.3
						c-0.1,0-0.1-0.2,0-0.2c-0.3-0.2-0.3,0.3-0.5,0.1c0,0.3,0.2,0.2,0.3,0.3c0-0.1,0.2,0,0.2-0.1c0.6,0.2-0.2,0.4,0.1,0.7
						c0.2-0.2,0.6,0.3,0.7-0.1c0.1,0.1,0.2,0.1,0.2,0.2c-0.2,0-0.1,0.2-0.3,0.2l0.1,0.1l-0.3-0.1c0,0.2,0,0.5-0.1,0.6
						c0.2,0.1,0.1-0.2,0.3,0c-0.1,0-0.1,0.2-0.1,0.3c0-0.2,0.2-0.1,0.3-0.1c0.1,0.2,0.1,0.4,0,0.4l-0.3-0.1c0.2,0,0,0.1,0.1,0.2
						l0.5-0.1c0.1,0.1,0.1,0.2,0.1,0.3l-0.2-0.1c0.2,0.2-0.2,0.2,0,0.4l0.2,0c0,0.1,0,0.1-0.1,0.1c0.1,0,0.2,0.1,0.3,0.1l-0.1,0.1
						c0.1,0.1,0.4,0,0.3,0.3c0.1-0.3-0.1-0.1-0.1-0.3c0.1-0.2,0.3,0,0.3,0.1c-0.2,0.2,0.2,0.3,0.3,0.3l0,0.3l0.2-0.1
						c-0.2,0.3,0.3,0.1,0.3,0.3c-0.1,0-0.2,0.1-0.1,0.2c0-0.3,0.4-0.1,0.5-0.2c0.2,0.3-0.3,0.2-0.3,0.4c0.2-0.1,0.2,0.3,0.4,0.2
						c-0.1-0.2,0.1-0.1,0.2-0.2c0.2,0.2-0.1,0.1,0,0.3c0.1,0,0.3,0,0.2-0.2c0.1,0.1,0.3,0.1,0.4,0.3c0,0.2-0.3-0.1-0.3,0
						c0.3,0.2,0.4-0.2,0.7-0.1c-0.1-0.1,0.2-0.3,0.4-0.3c0.3,0.2-0.2,0-0.2,0.2l0.1,0c0,0.3-0.6,0.2-0.5,0.5l0.2,0
						c-0.1,0-0.2,0.1-0.2,0.2c0.1-0.1,0.4,0.1,0.4,0.1c0.1-0.1-0.1,0-0.1-0.1c0.2,0,0.4-0.2,0.5,0.1c-0.2,0,0,0.2-0.1,0.3
						c0.1,0.1,0.1-0.2,0.2,0l-0.1,0.1c0.6,0.4,1.5,0.5,2.2,0.4c0.1,0.2,0.3,0.3,0.6,0.4c-0.1-0.1,0-0.2,0.1-0.2l0.1,0.2
						c0.2,0.1,0.5,0,0.7-0.1l0,0.1c0.2,0.1,0.2-0.1,0.3-0.1l0.1,0.1l0-0.1c0.2-0.1,0.4,0,0.4,0.2c0.1,0,0.1-0.1,0.1-0.1
						c0.2,0.2,0.7,0.1,1,0c-0.2,0-0.1-0.1-0.2-0.2c0-0.2,0.1,0,0.2-0.1c0,0.1,0.2,0.2,0,0.2c0.5,0.2,1,0,1.6-0.1
						c0.1-0.1,0.1-0.1,0.1-0.2c0.4,0.1,0.7-0.2,1.1-0.2c-0.1-0.1-0.1-0.3,0.1-0.4c0.1-0.2,0.2,0.2,0.4,0.3c0.1-0.1,0.2-0.2,0.3-0.2
						l0,0c0.1-0.1,0.2-0.3,0.4-0.3l0,0c0.1,0,0.3,0,0.4-0.1c0-0.2,0.3-0.2,0.3-0.4l0.1,0l-0.1-0.1l0.3,0l0,0.2c0.3,0,0-0.2,0.1-0.3
						c0.1-0.2,0.2,0,0.3,0c0,0.1-0.1,0-0.2,0.1c0,0.1,0.1,0,0.2,0.1c0,0,0-0.2,0.1-0.2c0.1-0.1,0.3-0.3,0.4-0.1l0.1-0.3
						c-0.1,0-0.2,0.1-0.3,0c0.1-0.1,0.2-0.2,0.2-0.2l0,0.1c0-0.1,0.2-0.2,0.1-0.2l0.3,0c0-0.1,0.1-0.2,0.2-0.4
						c0.1,0.1,0.1,0.3,0.4,0.2l0.1-0.3c0.1-0.1,0.1-0.1,0.2,0c0.4-0.2,0-0.6,0.3-0.8c0.1,0.2,0.1,0.2,0.3,0.1c0,0-0.1-0.1,0-0.1
						c-0.1,0,0,0.2-0.1,0.2c-0.1-0.1,0-0.2,0-0.2c0.5,0,0.7-0.7,1.1-1c-0.2-0.1,0-0.2,0-0.4c0.2,0.1,0.1-0.3,0.3-0.3l-0.2-0.1
						c0.3-0.2-0.1-0.6,0.2-0.6c0.1-0.1,0.1,0.1,0.1,0.2c0.3-0.1,0.1-0.6,0.4-0.7c-0.1-0.1-0.2,0-0.3-0.3c0.1-0.1,0.4-0.4,0.4-0.3
						c0-0.1-0.1-0.2,0.1-0.3l0.1,0.1c0.1-0.2,0.1-0.4,0.1-0.6c0.2-0.1,0.3-0.5,0.4-0.7c-0.2-0.2,0.1-0.4-0.2-0.5l0.1,0
						c-0.1-0.1-0.2-0.2-0.2-0.3l0.2,0.1c0.2,0.1,0.1-0.3,0.2-0.4c-0.2,0.1,0-0.1-0.1-0.2l0-0.1c0-0.2-0.1,0-0.1-0.3
						c0-0.2,0.2-0.1,0.2,0c0.1-0.1,0.1-0.3,0-0.4c0,0.1,0,0.1-0.1,0l0,0l0-0.2l-0.1-0.2l0-0.1c0-0.1,0-0.1,0,0l0,0l0,0.1l0.1,0.2
						l0-0.1l0.2,0c0-0.1-0.2-0.4-0.3-0.4c0.1-0.4-0.1-1-0.2-1.3l0-0.1l0,0.1c0,0,0.1,0,0,0c-0.1-0.1-0.2-0.2-0.1-0.3
						c-0.1-0.1,0.1-0.1,0-0.3c0,0-0.2,0-0.1,0.1c0.1-0.4-0.4-0.7-0.3-1.1l0,0l0,0l0.2,0.1c-0.1-0.3-0.3-0.5-0.6-0.7
						c0.1,0,0.1,0,0.2,0c-0.1-0.2-0.3-0.4-0.4-0.4c0,0.2,0.1,0,0.1,0.1c0,0.2-0.3,0-0.3-0.1l0,0c-0.1-0.2-0.2-0.1-0.3-0.3
						c0-0.2,0.1,0.1,0.1,0c0.2-0.2-0.1-0.5-0.1-0.6c-0.1,0-0.1-0.1-0.2,0c-0.2-0.1,0.1-0.1,0-0.2L69,43.1c0.1,0.1,0.1-0.2,0.3-0.2
						c-0.2-0.2-0.6-0.2-0.8-0.3c0-0.1-0.3-0.3-0.4-0.4c0.1-0.1,0.1,0.1,0.1,0l0-0.2c0.2,0.1,0.1-0.2,0.3-0.2
						c-0.2-0.1-0.5-0.4-0.6-0.6c0,0.3-0.4-0.1-0.5,0.1c-0.3-0.2,0-0.3-0.1-0.4c-0.3-0.1-0.5-0.4-0.8-0.5l0,0c-0.3-0.1-0.6-0.3-1-0.3
						c0,0,0-0.1,0.1-0.1c-0.2-0.2-0.2,0.3-0.4,0l0.1-0.1c-0.2,0-0.3-0.3-0.6-0.2l0.1-0.1c-0.2,0-0.5-0.1-0.7,0c0-0.1,0-0.1,0.1-0.2
						c-0.2-0.2-0.3,0.1-0.5,0c-0.1,0-0.1-0.2-0.1-0.2c-0.1,0.1-0.4,0-0.5,0c0-0.1-0.1-0.1-0.2-0.2c-1.1-0.1-2.2-0.3-3.3,0.1
						c-0.2-0.2,0.2-0.2,0.1-0.3c0,0.2-0.2,0.1-0.5,0.2l0,0c-0.1,0.1-0.2-0.1-0.4,0l0,0.1c-0.1,0.2-0.4-0.2-0.4,0.1l-0.2-0.1
						c-0.1,0.3-0.3,0-0.4,0.3l0,0c-0.3,0-0.4,0.4-0.6,0.3c-0.2,0.1-0.4,0.2-0.4,0.4c-0.1,0-0.1-0.2-0.1-0.2c-0.7,0.5-1.6,0.8-2,1.6
						l0-0.1c-0.2,0.5-0.9,0.4-0.8,1l0.1,0.2c-0.1,0-0.2-0.1-0.3,0c0,0.1-0.2,0.3-0.2,0.5c-0.1,0-0.1-0.1-0.1-0.1
						c-0.2,0.1-0.1,0.5-0.3,0.6l0-0.1c-0.8,0.6-1.8,1.8-1.6,2.8c0,0.2-0.2,0-0.3,0.1c0,0.9-0.5,1.9-0.2,2.8c0.1,0.6,1.2-0.5,1.1-0.4
						C52.3,47.3,52.2,47.2,52.8,46z"/>
				</g>
			</g>
			<g>
				<g>
					<polygon points="71.8,48.9 71.8,48.9 71.8,48.8 71.7,48.7 					"/>
				</g>
			</g>
			<g>
				<g>
					<polygon points="71.8,48.9 71.8,49 71.8,48.9 					"/>
				</g>
			</g>
			<g>
				<g>
					<polygon points="69.4,53 69.4,53 69.4,52.9 					"/>
				</g>
			</g>
			<g>
				<g>
					<polygon points="71.8,49 71.8,49 71.8,49 					"/>
				</g>
			</g>
			<g>
				<g>
					<polygon points="50.1,49.3 50.1,49.3 50.2,49.3 					"/>
				</g>
			</g>
			<g>
				<g>
					<path d="M50.2,49.3L50.2,49.3l-0.1,0L50.2,49.3C50.2,49.4,50.3,49.3,50.2,49.3z"/>
				</g>
			</g>
			<g>
				<g>
					<path d="M50.3,50.6c-0.1,0-0.2-0.3-0.2-0.4L50.3,50.6z"/>
				</g>
			</g>
			<g>
				<g>
					<path d="M50.1,51.9c0,0.1-0.1,0.1-0.1,0L50.1,51.9z"/>
				</g>
			</g>
			<g>
				<g>
					<path d="M50.4,52c0,0.1,0,0.2,0,0.2C50.4,52.2,50.2,52,50.4,52z"/>
				</g>
			</g>
			<g>
				<g>
					<path d="M51.1,54.6c0,0.1,0.2,0.1,0.1,0.2C51.3,54.7,51,54.6,51.1,54.6z"/>
				</g>
			</g>
			<g>
				<g>
					<path d="M51.9,55.6L51.9,55.6C51.9,55.8,51.8,55.8,51.9,55.6L51.9,55.6z"/>
				</g>
			</g>
			<g>
				<g>
					<polygon points="70.7,54.2 70.6,54.4 70.6,54.3 					"/>
				</g>
			</g>
			<g>
				<g>
					<path d="M71,44.8c-0.1-0.1,0-0.1,0-0.1C71.1,44.8,70.9,44.7,71,44.8z"/>
				</g>
			</g>
			<g>
				<g>
					<polygon points="67.4,41.1 67.5,41.2 67.3,41.3 					"/>
				</g>
			</g>
		</g>
	</g>
</g>
</svg>
