<svg version="1.1" id="Layer_1" xmlns="http://www.w3.org/2000/svg" xmlns:xlink="http://www.w3.org/1999/xlink" x="0px" y="0px"
	 viewBox="0 0 318.3 69.4" style="enable-background:new 0 0 318.3 69.4;" xml:space="preserve">
<path class="st0" d="M315,48.5C298,65.2,271.6,66.2,251.1,60c-6.8-2.1-19.8-9.6-17.3-19.7c1.5-6.3,9.4-7.7,7.4,0.4
	c-2.5,10.4-24.8,17.5-33.8,18.9c-14.4,2.1-32.5-2.1-33.6-19.7c-0.7-12.1,8.5-22.3,20.3-23.5c9.2-0.9,16.9,5.2,16.1,14.6
	c-0.8,10.3-10.3,18.7-18.8,22.5c-38.1,16.8-79.5-18.8-87.8-25.3C84,13,64.2,1.7,38.5,1.7c-36.3,0-48.8,42-22.2,55.7
	c20.7,10.7,45.4-12,29-30c-6.8-7.5-24.1-3.6-20.7,9.7c3,11.9,18.1,7,16.6,0.3l0,0C40.4,44.9,27,46,25.3,35.9
	c-1.4-8.3,13.4-14.8,20.4-6c12.2,15.3-10.9,36.5-30.5,24.8C-5.8,42.2,2.5,7.1,35,8.1c19.1,0.6,41.6,9.4,65,27.6
	c25.5,19.8,61.2,34.2,92.2,18.8c29.9-14.9,20.5-43.4,0.5-39.8c-21.2,3.8-23.9,24.1-17.3,35.5c12.8,22.2,63.1,9,67-9.7
	c1.8-8.7-7.6-9.8-10.4,1.4c-3.1,12.6,7.4,20,21.5,24C274.8,72.1,306,62,315,48.5C314.1,48.3,315,48.5,315,48.5z"/>
</svg>
