<?xml version="1.0" encoding="utf-8"?>
<!-- Generator: Adobe Illustrator 26.0.1, SVG Export Plug-In . SVG Version: 6.00 Build 0)  -->
<svg version="1.1" id="Layer_1" xmlns="http://www.w3.org/2000/svg" xmlns:xlink="http://www.w3.org/1999/xlink" x="0px" y="0px"
	 viewBox="0 0 359.6 330.7" style="enable-background:new 0 0 359.6 330.7;" xml:space="preserve">
<path class="st0" d="M330.2,48.2c-8.5-0.8-20.4-2.7-22.9-12.3c-0.3-1.3-0.5-2.6-0.4-3.8c12.8,6.8-5,16.8-25.2,16.5
	c-14-0.2-43.1-11.2-55.7-5.5c-14.9,6.7-3.4,14.8,7,9c21.7-12-23.1-46.4-65.9-29.1c-32,12.9-48.8,46.9-26.6,67.4
	c13.3,12.4,29.8,5,32.5-10.9c7.2-42.9-47.7-80.7-101.2-69.8c-33,6.8-61.9,33.3-56.2,73.3c5.3,37.5,36.1,46.1,59.3,40.6
	c54.2-13,39.7-90.5-9.7-78.7C28.9,53.5,41,109.2,73.4,100C95.7,93.7,84,62.7,56,63.4C-0.2,64.9-3.3,131,15.6,161.7
	c6.1,9.9,21.9,23,35.1,23.7c14.7,0.9,19.2-14.5,12.5-20.9c-22-21-54.5,21.2-46.3,56.7c5.4,23.6,30.7,23.6,24.1,14.9
	c-7.1-9.3-15.1,16.4-7.9,36.7c6.1,17.1,21.4,41.4-5.5,53.7c11.5-16,7.9-29.6,2-54.5c-6.5-27.7,4.8-48,13.3-35.8
	c4.5,6.5-18.5,16.5-27.4-14C4.9,185.7,38.9,141,63.6,162.5c13.4,11.6,5,30.7-12.8,30.6c-12.2-0.1-27.7-7.4-39-28.2
	C-3.5,136.6-3.4,60.2,58.3,61.8C83,62.5,99,91.9,75.6,100.7c-32.1,12.1-52.3-46.2-12.5-57.2c51.2-14.2,69,67.9,13.7,81
	C31,135.4,9.1,99.5,6.9,83C3.2,55.8,14.6,15.2,68.6,5.2c75-13.9,111.8,48,107.2,71.8c-4.2,21.7-24.1,26.9-35.5,16
	c-25.4-24.3-12.5-62.1,14.9-75.1c42.2-20.1,103,16.7,79.6,35.1c-11.8,9.2-26.3-5.3-8.5-11.5c18.8-6.5,36.2,5.4,55.5,5.2
	c34.5-0.3,26-15.3,26.1-13c0.2,9.2,11.7,12.4,19.8,12.8c13,0.7,27.9-3.3,25.3-12.9C359.9,43.7,340.5,49.2,330.2,48.2z"/>
</svg>
