<?xml version="1.0" encoding="utf-8"?>
<!-- Generator: Adobe Illustrator 26.0.1, SVG Export Plug-In . SVG Version: 6.00 Build 0)  -->
<svg version="1.1" id="Layer_1" xmlns="http://www.w3.org/2000/svg" xmlns:xlink="http://www.w3.org/1999/xlink" x="0px" y="0px"
	 viewBox="0 0 224 294" style="enable-background:new 0 0 224 294;" xml:space="preserve">
<g>
	<path class="st0" d="M197,118.3c-6.8-0.9-18.1,3.1-22.7,12.6c0.9,0.8,0.7,0.3,0.6,0.5c4.3-6.7,12.4-12.8,21-11.1
		c31.7,6.2,26,45.5,2.4,45.6c-16.5,0.1-20.4-15.5-15.4-23c6.1-9.3,19.2-8,23.3,0.6c-2.6-9-18.6-10.4-24.2-0.6
		c-7.1,12.6,4.9,25.2,17.1,24C226.4,164.2,226.9,122.4,197,118.3z"/>
	<path class="st0" d="M10.4,261.4c11.8-22.4,51.1-37.2,71.6-48c30.2-16,23-48,1.7-45.4c-18.5,2.3-15.1,27.8-0.1,25.9
		c-13.8,4.3-23.7-23,0-27.2c20.8-3.7,33.2,29.7,3.8,47.2c-25.1,15-58.3,22.8-74,49.6"/>
	<path class="st0" d="M158,80.1c-0.3-0.9,1.3-2.1,1.4-3.2c0.3-3.1-1.1-3.8-1.2-4.1c-0.1-0.2,1.5-4,1.2-5.4c-0.8-3.3-2.9-3.9-5.2-5.9
		c-1.3-1.1-4.7-3-4.7-7.1c-0.6,0.9-0.9,2.9-0.8,4.4c-0.4-0.8-0.8-1.7-1.1-2.3c-0.3,0.4-0.2,1-0.5,1.4c-0.5-1-1-2.1-1.4-3.2
		c-0.3-0.9-0.5-3-1.2-3.6c-0.4,1,0.1,2.6-0.1,3.7c-0.5-1.1-0.8-2.2-1.7-3.2c-1.1-1.1-2.5-1.9-3.8-2.7c1.3,1.8,2.8,3.4,3.9,5.4
		c0.6,1,3.3,4.8,3.1,6c-0.6-0.9-2.4-3.1-3.6-2.4c2.7,2.6,2.6,4.9,2.7,6.8c0.1,2-0.8,4.6-0.1,6.5c0.9,2.4,3.8,3.5,5.2,3.9
		c1.1,0.3-0.1,1.5,1.7,3.2c1.6,1.5,2.9,1.7,3.9,2.5c0.4,0.4,0.6,1,0.8,1.5c0.6,1,2,5.7,2.5,6.9l1.2-1.2
		C160.4,87.5,158.5,81.6,158,80.1z"/>
	<path class="st0" d="M195.7,7.9c-0.2,2.4-3.5,4-4.3,6c0.4,0,1.8,0.4,2.1,0.2c-0.9,0.4-2,0.6-2.5,1.5c-0.5,0.8-0.5,1.7-0.6,2.6
		c0,0.4,0,1.7-0.3,1.9c0.9-0.6,1.6-1.3,2.7-1.3c-1,0.2-1.4,1.4-1.8,2.2c-0.6,1.3-1,2.5-1.5,3.8c-0.6,1.4-1.8,2.4-3.2,3.1
		c-0.8,0.4-1.3,0.4-1.8,1.1c-0.4,0.5-0.8,1-1.3,1.4c-1,0.9-1.8,0.6-3.1,0.3c-0.7,1.1-15.5,17.5-17.2,45.6l0,0
		c-2-21.4,14.6-45.1,14.6-46.6c0-0.9-1.1-2.5-0.1-4.5c0.5-0.9,1-1,1-2c0-1.1,0.2-2.2,0.6-3.2c0.8-1.7,2.7-2.8,4.1-4
		c1.4-1.2,2.8-1.7,3.8-4.1c0,3-1.3,3.3-1.8,4.3c1.1-0.1,2-0.9,2.9-1.5c0.7-0.5,1.7-0.9,2.4-1.5c0.4-0.4,0.5-0.8,0.8-1.3
		c0.5-1.1,0.6-1.9,0.9-3c0.3,0.8,0.3,1.8,0.5,2.6C193.5,10.1,195.3,9.3,195.7,7.9z"/>
	<g>
		<path class="st0" d="M168.9,75.6c-0.7,1.7-2.8,5.6-4.9,5.2c-0.8-4.5,0.8-10,6.1-13.5c0.7-0.5,2.8-1.3,4.3-1.3
			C172.4,66.5,169.3,74.6,168.9,75.6z"/>
	</g>
	<g>
		<path class="st0" d="M158.8,100.1c0.4,2.1-0.2,4.1-0.3,6.2c2.3,0,2.2-2.9,2.9-4.4c0.2-0.3,2.9,5.7,3.1,6.2c1,2.7,1.9,5.3,2.8,8
			c1.9-5,8.5-6.6,11-10.9c-0.7,2.4-2.2,6,0.3,8c0.6-3,1.6-6,2.9-8.8c1.1-2.5,1.6-5.1,5.9-6.5c-0.4,0.4-2,2-2.2,2.4
			c-0.7,1.3-1,2.6-1.3,3.9c-0.7,2.8,0,5.6-1.4,8.2c-1.4,2.6-6.2,5.9-9.4,5.4c-1.3,2.2-3.3,4.6-6.1,4.6c-0.3,0-0.5,0-0.8-0.1
			c-0.2,0.8-2.4-0.7-2.4-0.9c-0.8-0.5-1.5-1.1-2-1.7c-0.7-0.9-0.8-1.9-0.8-2.8c-0.1-0.9-0.1-1.8-0.6-2.6c-0.4-0.6-2-1.2-2.6-1.8
			c-3-3.3-2-8.2-1.7-12.3c0.2-2.1,0.3-4.3-0.8-6.1C156.4,93.9,158.6,99,158.8,100.1z"/>
		<path class="st0" d="M177.8,86.2c0.4,0.4,1.1,1.1,1.1,1.8c0,0.5-0.1,0.4-0.6,0.5c-0.6,0-1.2,0-1.8,0c-2.9,0-6.1,0.6-8.1,2.8
			c-1.6,1.7-2.2,4.1-2.9,6.3c1.2-1.5,2.3-3.1,3.9-4c1.7-0.9,3.7-0.6,5.5-0.6c1.9-0.1,3.5-0.9,5.1-2c-0.5,0.7,0,2.7,0,3.5
			c-0.1,1.4-0.7,6.6-1.3,7.7c-0.4,0.6-2.7,2.1-3.2,2.7c-1.2,1.4-7.1,5.1-7.5,6.3c-1.1-3.5-2.7-7.7-4.7-10.9
			c-3.2-2.3-0.2-6.3,1.4-8.8c0.2-0.3,0.3-0.5,0.5-0.8c2-3.2,4.6-6.5,8.6-6.6C175.4,84,176.8,85,177.8,86.2z"/>
		<path class="st0" d="M181.6,100.7l0-0.5c0.4-0.6,0.5-1.7,0.5-2.4c0.1-1.4,0.1-2.9,0-4.5c-0.1-1-0.3-2.1-0.1-3.4
			c0-0.5,0.4-1.3,0.3-1.7c0.6,0.5,0.8,1.5,1.1,2.1c0.8,1.6,1.1,3.1,1,4.7C184.3,97.4,183.2,99.3,181.6,100.7z"/>
		<path class="st0" d="M167.3,85.3c-0.9,0.8-1.6,1.9-2.5,2.9s-1.6,2.1-2.4,3.3c-0.4,0.8-1.2,2.1-1,3.3l-0.9-0.8l-0.1,0.1
			c-0.1-1.9,0.6-3.8,1.5-5.4c0.6-1.1,1.4-2.2,2.4-3.1c0.9-0.8,2.4-2.5,3.7-1.9C169.2,84,167.7,84.9,167.3,85.3z"/>
		<path class="st0" d="M173.1,91.5c-0.6,0.2-1.2,0.3-1.8,0.5l0.5-0.2c0.4-1,2.4-1.6,3.1-1.1C176,91.5,173.5,91.4,173.1,91.5z"/>
	</g>
	<path class="st0" d="M135.5,186.9c-11.6,18.3-28.5,32.6-70.2,50.5c-20.4,8.7-42.9,17.1-52.4,48.6c4.9-9.9,9.5-31.4,52.3-47
		c35.9-13.1,63.9-29.7,78-57.3C141,183.8,138.4,185.6,135.5,186.9z"/>
	<g>
		<path class="st0" d="M166.6,161.2c-2.3,0.5-4.2,1.5-6.5,2.4c-2.8,1.1-6.8,0.2-9.6-0.3c-3.7-0.7-8.2-0.2-11.6,1.2
			c-1.8,0.6-4.3,1.6-3.6,3.9c1.4,5,7.2,6.4,11.6,7.2c6,1.1,11.1-1.4,15.3-5.7c2.6-2.6,4.2-6.9,7.3-8.9
			C168.4,160.9,167.4,161,166.6,161.2z"/>
		<path class="st0" d="M121.1,143.8c0.7,1.7,1.1,3.6,1.2,5.3c0.1,3.2-0.3,6.8,0.7,9.9c0.4,1.4,1.5,3.8,2.9,4.4
			c-0.2-1.8-1-3.4-0.9-5.3c0.1-2.2,0.8-4.3,1.7-6.2c0.9-2,1.7-3.5,1.8-5.8c0.2-3.1-1.7-5.8-1.6-8.8c0.1-2.9,1-6,2.9-8.2
			c-1-0.7-2.7-0.6-3.9-0.3c-1.4,0.4-1.9,1.3-2.8,2.3c-2.1,2.2-3.7,5.1-3.4,8.2C119.8,140.8,120.5,142.3,121.1,143.8z"/>
		<path class="st0" d="M129.2,154.9c-1.2,2.1-2.7,4.4-2.4,6.8c0.3,2,3.2,5.7,5.6,5.2c1.1-0.3,1.7-2.2,2.5-2.9c1.2-1,2.7-1.7,4.2-2.1
			c3.3-0.9,6.7-1,10.1-0.8c3,0.1,6,0.9,9,0.9c0.7,0,1.5,0,1.8-0.8c0.1-0.5-1.1-4.2-1.8-5.5c-0.9-1.3-1.7-2.8-2.9-3.7
			c-1.3-1-2.7-1.6-4.1-2.5c-1.3-0.8-2.7-1.7-4-2.4c-1.5-0.7-3.1-1.3-4.9-1.1c-0.7,0.1-1.4,0.4-2.3,0.2c-0.8-0.2-1.3-0.7-2-1.1
			c-1.3-0.7-2.7-1.5-4.2-1.6c-0.9-0.1-1.5-0.8-2.4-0.4c-1,0.5-0.5,0.9-0.3,1.9c0.7,3,0.2,5.9-1.1,8.6
			C129.8,154,129.5,154.4,129.2,154.9z"/>
		<path class="st0" d="M130.9,142.1l0.4,0.3c1.3-0.7,3.4-0.4,4.8-0.2c0.3-0.5-0.1-1.5-0.3-2.2c-0.4-1-0.8-2-1.3-2.9
			c-0.5-1-1.2-1.9-2-2.6c-0.4-0.3-1.7-1.8-2.2-1.5c0.1,1.9,0.5,3.9,0.6,5.9c0.1,0.7,0.2,1.6,0.1,2.3
			C130.8,141.5,130.7,141.9,130.9,142.1z"/>
		<path class="st0" d="M156.7,146.2c-1,0.5-2,1.2-2.9,1.9c-0.2,0-0.6,0.3-0.4,0.5l0.6,0.3c0.5,1.2,2,2.2,2.9,3
			c1.3,1.1,2.3,2.4,3.6,3.5c0.3-0.3,0.2-0.8,0.4-1.1c0.1-0.6,0.3-1.2,0.6-1.8c0.5-1.3,1.2-2.6,1.9-3.7c0.7-1.1,1.4-2,2.2-3.1
			c0.1-0.2,0.2-0.4,0.4-0.6c0.1-0.2,0.6-0.3,0.5-0.5c0.2-0.3-0.4-0.5-0.7-0.5c-1.5-0.4-3.5,0-4.9,0.4
			C159.5,144.8,158.1,145.4,156.7,146.2z"/>
		<path class="st0" d="M144.9,144.9c0,0-0.1,0-0.2,0c0,0,0.1,0,0.1,0.1L144.9,144.9z"/>
		<path class="st0" d="M141.4,138.4c0.2-0.7,0.5-1.2,0.8-1.8c-1-0.7-2.8,0.5-3.5,1.3c-1,1.2-0.9,3-0.3,4.4c0.7,1.3,2,2.2,3.4,2.6
			c0.8,0.2,2.1,0.3,2.9,0.1C142.7,143.7,140.8,140.9,141.4,138.4z"/>
		<path class="st0" d="M149.4,145.8c-0.4-0.1-0.9-0.2-1.2-0.4c3,1.6,4.6,1.2,6,0.5c1.1-0.6,2-1,2.7-2.1c0.5-0.9,1-2.1,0.7-3.1
			c-0.5-1-2.3-1.8-3.4-1.6c1,0.4,1.4,2,1.4,3c-0.1,1.2-1,2.5-2,3.1C152.3,145.8,150.8,145.9,149.4,145.8z"/>
		<path class="st0" d="M146.4,137.4c-1.9,1.3-1.7,3.8,0.3,4.8c-0.9-0.5-0.2-2.4,0.3-2.9c1.2-1.7,3.3-1.3,4.8-0.4
			c-0.4-0.9-0.9-1.3-1.8-1.8C148.7,136.5,147.4,136.7,146.4,137.4z"/>
		<path class="st0" d="M152.3,140.7c-0.4-0.1-1.3,0.6-1.7,0.8c-0.8,0.2-1.9,0.7-2.8,0.6c0.7,1.6,4,0.3,4.5-0.3
			C152.7,141.5,153,140.9,152.3,140.7z"/>
		<path class="st0" d="M141.1,130.4c-1.3,1.6-2.7,3.2-3.2,5.2l0.1,0.1l-0.7,1.6c0.1-0.1,0.2-0.2,0.2-0.2c0.6-0.6,1.3-1.1,2.2-1.6
			c1.9-1,4-1.2,6.2-1.3c1.7,0,3.5,0.5,5,1.3c1.2,0.7,3,1.1,3.9,2.4c0.4-1.7-0.4-3.7-1-5.1c-1.1-2.5-2.8-3.8-5.1-5.1
			C146.1,126.2,142.9,128.4,141.1,130.4z"/>
		<path class="st0" d="M156.5,134.5c0.4,1.9,1.4,3.6,2.1,5.4c0.2,0.4,0.3,0.9,0.6,1.3c0,0.4,0.1,0.6,0.4,0.6
			c0.4,0.1,0.7-0.1,1.1-0.2c0.5-0.1,0.8-0.1,1.4,0c0.9,0.1,1.9,0.1,2.9,0.4c0.3,0,0.9,0.4,1.1,0.2c0.2-0.1,0.4-1,0.4-1.2
			c0.2-0.6,0.3-1.2,0.3-1.8c0.3-3.4-1.9-6.5-5-8.2c-1.3-0.7-2.8-1.2-4.4-1c-0.5,0-2.1-0.1-2.3,0.6L155,131
			C156.2,131.5,156.3,133.4,156.5,134.5z"/>
		<path class="st0" d="M135.3,134.4c0.8,0.8,0.9,0.5,1.4-0.4c0.5-0.8,1-1.5,1.4-2.3c1.4-2.2,2.8-3.7,5-5c2-1.3,5.5-1.5,7.8-0.5
			c-0.8-1.9-3.8-2.3-5.5-2.4c-1.3-0.2-2.7,0-3.8,0.4c-0.4,0.3-0.7,0.4-1.3,0.4c-0.4-0.1-0.7-0.2-1,0c-1.1,0.1-2.1,1-3,1.6
			c-0.9,0.9-2.4,0.8-3.2,1.7c-0.7,0.8-2.7,3.2-3.3,4.2c0.8-0.2,1.4-0.4,2.2-0.1C133.3,132.5,134.4,133.4,135.3,134.4z"/>
		<path class="st0" d="M168.4,141c0.5,1.7,0.7,2.8,0.2,4.5c-0.5,1.7-1.7,3.3-2.8,4.8c-2.2,3.1-4.9,6.4-4.7,10.4
			c0.4-0.3,0.9-0.9,1.2-1.2c0.6-0.4,1.3-0.9,1.9-1.2c1.6-1,3.3-1.6,5.1-2.1c3-1,5.9-2.5,7.5-5.3c0.9-1.5,1.4-2.8,1.2-4.6
			c-0.1-1.8-1.3-3.7-2.6-4.8c-1-0.9-2.2-2-3.6-2.1c-0.9-0.1-2.6-0.4-3.3,0.4C168.1,140.2,168.3,140.4,168.4,141z"/>
		<path class="st0" d="M170,177.7c-2.3-0.9-3.4-3-6.2-2.4c-2.8,0.6-5.1,1.8-8.1,2c-5.1,0.4-10.2,0.1-14.9-1.7
			c-4.8-1.9-8.8-4.7-13.2-7.5c-1-0.6-1.4-0.7-2.9-2c-2.2-1.9-3.4-4.5-2.8-6.7c-1.7-1.2-4.3-3-6.3-3.9c-2.1-0.9-6-0.5-8.3,0.2
			c3.5-0.2,5.3,1.5,7.4,4c2.2,2.7,3.7,4.4,6.7,6.1c1.5,0.9,2.9,2,4.5,2.9c1.2,0.7,2.4,1.3,3.6,2c0.9,0.5,2.1,0.8,3,1.4
			c-0.8,0.1-1.6,0-2.3,0.5c-0.6,0.4-0.9,1.1-1.1,1.9c-0.7,3.1,1.2,6.3,0.9,9.4c-0.2,2-1.6,4.7-3.9,4.8c2.3-0.1,4.6-0.4,6.3-1.7
			c2.1-1.7,2.3-3.6,5.1-4.4c2.8-0.8,3.7-2.3,5.9-3.9c2.3-1.8,4.3,0,6.5,0.9c3.4,1.4,6.4,0.6,9.9-0.1c3.1-0.6,6-0.6,9.1-0.1
			c2.5,0.4,5.4,0.5,7.1-1C174,178.5,172,178.5,170,177.7z"/>
	</g>
	<g>
		<path class="st0" d="M166.6,121C166.6,121,166.6,120.9,166.6,121c-0.5-0.3-1.2-0.5-1.8-0.7c-0.2,2.6-0.7,5.5-1.7,7.9
			c-0.4,0.8,1.5,1.5,1.9,0.6c1.1-2.5,1.5-5.6,1.7-8.2c0.1-0.8-1.4-1.1-1.8-0.6c0,0,0,0.1-0.1,0.1C164.2,120.8,166,121.7,166.6,121
			L166.6,121z"/>
	</g>
	<path class="st0" d="M145,102.6c-1.3-0.3-2.4-0.4-3.7-0.5c-0.9-0.1-2.1-0.3-2.7-1c0.1,0.5,0,1.1,0,1.6c-0.1,0.7,0,1.6,0,2.4
		c-0.1,1.5,0.2,2.9,0.4,4.5c0.3,2.6,1.2,5.6,3.1,7.5c3.7,3.9,10,2.6,10.5,1.9c0.1-0.9-3.9-4.9-5-6.2c-1.3-1.4-2.6-2.9-3.9-4.3
		c-0.6-0.7,7.6,5.7,10.3,9.5c0.5-0.6,0.9-5,0.6-6.4c-0.2-2.2-1-4-2.6-5.7C150,103.9,147.6,103.2,145,102.6z"/>
	<path class="st0" d="M100.4,249.4c-5.4-3.6-13.2-6.7-24.1-7.2c-22.9-1.2-34.1,8.2-34.1,8.2c5.9-2.9,10.5-4.7,16.9-5.8
		c14.3-2.5,28.9-1.6,40.6,5.7C100,249.9,100.2,249.7,100.4,249.4z"/>
	<path class="st0" d="M83.6,258.3c1.6-4.5,1-10.5-3.3-13.5c-2.9-1-6.3,4.4-7.4,6c-4.9,7-4.2,13.9-1.4,21.4
		C74.7,266.4,81.4,264.8,83.6,258.3z"/>
	<path class="st0" d="M102,230.3c-11.4,0.1-19.1,9-19.1,9c2.1,1.5,5,1.9,7.4,2c3.4,0.8,6.9,1.6,11,1.4c6-0.6,9.2-6.3,13.2-10.7
		C111.3,229.6,105.6,229.7,102,230.3z"/>
	<path class="st0" d="M119.8,258.4c-3-3.7-6.4-6.9-10.9-8.4c-2.5-1-5.5-2.3-11.3-1.2l-0.9,1.4c-1.2,4,1.6,9.1,3.5,12.1
		c5.6,7.9,13.1,13.2,20.6,18.5C126.1,273.2,124.8,266,119.8,258.4z"/>
</g>
</svg>
