<?xml version="1.0" encoding="utf-8"?>
<!-- Generator: Adobe Illustrator 26.0.1, SVG Export Plug-In . SVG Version: 6.00 Build 0)  -->
<svg version="1.1" id="Layer_1" xmlns="http://www.w3.org/2000/svg" xmlns:xlink="http://www.w3.org/1999/xlink" x="0px" y="0px"
	 viewBox="0 0 468 77.2" style="enable-background:new 0 0 468 77.2;" xml:space="preserve">
<g>
	<path class="st0" d="M233.9,63.7c-1.7,4.4-3.2,7.5-4.1,7.6c-8.5,1.4-28.7-11.3-36.4-19.5c-10.4-11-10.6-22.4-4.1-27.5
		c4.3-3.3,10.8-1.3,15.1,0.8c3.9,1.9,7.3,4.5,10.8,7c0.9,0.6,1.8-0.6,1.4-1.4c-4.6-9-1.4-20.3,7.5-24.8c7.2-3.6,19.1-1.3,19.1,19.6
		c1,0.1,1.9,0.4,2.5,0.9c0.3-2.2,0.4-4.5,0.2-6.7c0-0.1,0-0.1,0-0.2c0,0,0-0.1,0-0.1c-1-6.1-3.2-12.6-8.9-16
		c-4.1-2.4-9-1.7-13.1,0.2c-9.2,4.5-13.4,15.3-10.5,24.7c-5.9-4.2-12.3-8.3-19.7-7.7c-6.5,0.5-11,6.2-11.6,12.4
		c-0.6,6.2,3,12.6,6.6,17.4c5,6.4,12.9,11.4,19.8,15.4c3.5,2,7.2,3.7,11,5.2c2.6,1,7.4,3.3,10.2,2.6c2.8-0.6,4.5-5.1,5.5-7.3
		c0.1-0.2,0.2-0.5,0.3-0.7C235,65,234.4,64.3,233.9,63.7z"/>
	<path class="st0" d="M282.9,37c-1.1-16.1-22.8-9-29.6,0.5c-1.5-4.3-6-8.1-10.3-8.9c-5-1-10.2,1.7-12.9,5.8
		c-3,4.6-1.2,10.7,0.4,15.5c2.3,6.5,5.8,12.9,10.1,18.3c1.8,2.3,3.8,4.6,6.2,6.4c1.9,1.4,2.9,2.2,5,1.2c4.9-2.3,9.2-6.4,13.1-10.2
		c4.8-4.6,9.1-9.8,12.8-15.3C280.4,46.4,283.2,41.7,282.9,37z M277.3,47.3c-2.7,4.6-6.1,8.7-9.6,12.6c-3.4,3.7-7,7.2-10.9,10.3
		c-1.5,1.2-3.2,2.3-4.9,3.3c-2.2,1.3-3.6-0.4-5.4-2c-7.8-6.9-13.9-18.5-15.7-28.7c-1-5.8,2.2-10.6,7.8-12.1
		c5.6-1.5,13.1,3.6,13.3,9.6c0,0.9,1.5,1.5,1.9,0.5c2.4-5.6,8.1-9.1,13.8-10.7c5.9-1.7,12.8-0.4,13.3,6.8
		C281.1,40.7,279.1,44.2,277.3,47.3z"/>
	<g>
		<path class="st0" d="M3.8,66.5c3.8,3.5,9-0.1,8.4-1.9c-0.8,1.7-4.3,2.2-6.3,0c-2.8-3-1.5-9.8,8-12.8C36.1,44.6,64.7,57,67.1,67
			c2.1,8.6-10.4,4.2-12.4-3.7c-2.8-11.3,6.6-13.2,16.1-9.4c5,2,21.2,13.8,32.5,15.5c7.9,1.2,20.3,2.7,25.4-4.7
			c11.4-16.3-20.8-38.6-35.8-24.4c-10.2,9.7,23.8,32.6,58.8,30c17.9-1.3,29.9-13.7,24.8-25.9c-2.8-6.7-10.7-8.9-16.2-6
			c-6.3,3.3-3.8,11.1,0.1,11.7c-6.1-8.4,8.3-15.8,13.5-6.1c5.4,10.1-1.9,21.6-17.5,24.7c-28.6,5.6-70.5-15-63.1-26.9
			c3.9-6.3,31.1,0.6,34.9,14.6c3.9,14.3-12.7,14.5-23.7,10.1c-12.8-5.1-22.2-16.8-36.4-17.1c-17.9-0.3-16,11.9-13.2,16.9
			c5.2,9.2,16.3,7.1,13-1c-3.9-9.5-28.9-22-53.7-15.7C1.2,53-0.6,62.5,3.8,66.5z"/>
		<path class="st0" d="M463.5,66.5c-3.8,3.5-8.9-0.1-8.4-1.9c0.8,1.7,4.3,2.2,6.3,0c2.8-3,1.5-9.8-8-12.8
			c-22.2-7.2-50.8,5.2-53.2,15.3c-2.1,8.6,10.4,4.2,12.4-3.7c2.8-11.3-6.6-13.2-16.1-9.4c-5,2-21.2,13.8-32.5,15.5
			c-7.9,1.2-20.3,2.7-25.4-4.7c-11.4-16.3,20.8-38.6,35.8-24.4c10.2,9.7-23.8,32.6-58.8,30c-17.9-1.3-29.9-13.7-24.8-25.9
			c2.8-6.7,10.7-8.9,16.2-6c6.3,3.3,3.8,11.1-0.1,11.7c6.1-8.4-8.3-15.8-13.5-6.1c-5.4,10.1,1.9,21.6,17.5,24.7
			c28.6,5.6,70.5-15,63.1-26.9c-3.9-6.3-31,0.6-34.9,14.6c-3.9,14.3,12.7,14.5,23.7,10.1c12.8-5.1,22.2-16.8,36.4-17.1
			c17.9-0.3,16,11.9,13.2,16.9c-5.2,9.2-16.3,7.1-13-1c3.9-9.5,28.9-22,53.7-15.7C466.1,53,467.9,62.5,463.5,66.5z"/>
	</g>
</g>
</svg>
